<svg xmlns="http://www.w3.org/2000/svg">
<defs>
<font id="StylishClassyFont" horiz-adv-x="1024" >
  <font-face 
    font-family="Stylish Classy Font"
    font-weight="400"
    font-stretch="normal"
    units-per-em="2048"
    panose-1="2 0 5 0 0 0 0 0 0 0"
    ascent="1638"
    descent="-410"
    x-height="646"
    cap-height="2862"
    bbox="-1442 -3574 20379 4598"
    underline-thickness="150"
    underline-position="-442"
    unicode-range="U+001D-F002"
  />
<missing-glyph 
d="M479 600v7q0 26 -10 26t-12 -14q0 -15 22 -19zM737 418q-9 9 -87 52q-23 11 -30 11q15 -6 40 -23q49 -35 77 -40zM444 248l-4 32q-8 51 -25 55q-104 23 -129 23q130 -97 158 -110zM508 1194q2 1 2 2q0 4 -11 13l-1 3q-7 0 -7 -1q0 -4 7.5 -10.5t9.5 -6.5zM506 44
q-11 0 -11 24q-3 31 -19 79q-13 41 -15 59q-7 28 -223 167q-1 0 -2 1t-3 1t-3.5 2t-9.5 7q-27 10 -27 21q0 5 9 5q13 0 38 -9q29 -10 66 -20.5t71 -17t46 -6.5q4 0 5.5 1.5t1.5 13.5q3 53 14 53q6 0 6 -5q0 -6 -2 -17q-4 -19 -4 -29q0 -22 13 -24q148 -32 240 -32
q44 0 44 13l-2 10q0 4 2 4q4 0 7.5 -2.5t5.5 -7t2 -8.5q0 -33 -65 -33q-39 0 -135 18q-61 11 -96 15q-8 0 -8 -14q0 -24 18 -75q7 -17 76 -62q96 -63 96 -86q0 -3 -3 -7t-6 -4q-4 0 -13 11q-14 23 -46 47q-83 64 -92 64q-3 0 -3 -4q0 -8 10 -33q29 -75 29 -100
q0 -9 -4 -14.5t-8 -5.5zM517 389q-12 6 -22 14q-23 19 -23 35q0 20 36 27q9 0 16.5 -3t9.5 -3q4 0 4 4l-3 22q0 13 11 24q5 5 5 7q0 3 -44 46q-26 4 -58 24q-16 11 -16 28q0 9 5 19q11 21 35 21q16 0 19 -5t3 -13q0 -18 4 -36q7 -16 33 -16q30 0 30 23q0 12 -12 30
q-43 62 -109 100q-35 20 -53 20q-10 0 -11 -6q-18 -142 -18 -175q0 -29 6 -42q6 -23 6 -37q0 -16 -14 -16q-20 0 -20 45q0 70 11 128q7 47 11 100q0 15 -47 27q-44 11 -44 22q2 10 17 10q10 0 36 -6q21 -6 29 -6q7 0 8 5q2 20 2 49q0 37 -3 98l-1 49q0 11 4 14q18 0 18 -161
q0 -25 -1 -49q0 -15 44 -33l19 -8q177 -36 247 -36q52 0 56 17q2 5 5 5q10 0 10 -12q0 -3 -2 -7q-16 -24 -67 -24q-44 0 -169 23q-28 5 -36 5q-5 0 -5 -1q0 -5 19 -19q82 -68 82 -110v-10q0 -8 -14 -22t-33 -14q3 -5 12 -14q34 -30 60 -41q51 -15 117 -57q46 -29 46 -42

<glyph glyph-name="ss2" unicode="ss&#x32;" horiz-adv-x="2310" 
d="M1203 808q51 17 147 105t196.5 208t163.5 232q51 90 51 150q0 15 -3 27q-11 47 -86 47q-137 0 -231 -115q-107 -132 -200 -382q-40 -105 -40 -220q0 -26 2 -52zM273 894q4 0 12 2t30 26.5t56 82.5q8 14 8 23q0 10 -12 10q-13 0 -35.5 -13t-45 -41.5t-28.5 -66.5
q0 -23 15 -23zM1200 -801h-9q-62 0 -85 40q-15 25 -15 55q0 23 8 48q52 147 103 228.5t100 135.5q73 79 73 120q0 31 -29 67q-117 113 -179.5 241t-103.5 257q-166 -121 -301 -250.5t-248 -249.5q-85 -89 -161 -163q-150 -147 -206 -147q-61 0 -90 60q-8 16 -8 31
q0 18 13 34q84 87 137 139q63 62 87 93q17 21 17 38q0 7 -6.5 20.5t-45.5 47.5q-96 90 -178 206q-104 155 -104 370q0 244 127 445q93 139 200 190q80 38 148 38q23 0 77.5 -11t88.5 -78q13 -26 13 -56q0 -49 -34 -109q-76 -129 -146.5 -209.5t-126.5 -132.5
q-62 -57 -95 -105q-30 -43 -30 -100q0 -7 2 -44t55 -148q18 -37 48 -66q27 -29 48 -53q73 -84 111 -84q27 0 69.5 30.5t145.5 128.5q88 83 237 216q82 75 101 162q15 74 15 162q0 131 13 240q31 262 255 554q138 169 334 169q185 0 274 -136q34 -52 34 -115q0 -39 -13 -83
q-75 -208 -374 -527q-108 -115 -239 -246q-56 -61 -56 -159q0 -11 3.5 -74t106.5 -225.5t137 -191.5q21 -19 42 -19q12 0 33 11t80 65q29 27 71 62q76 64 282 229t297 214q29 15 52 15q29 0 44 -15q19 -19 19 -50q0 -33 -91 -107t-282 -221.5t-302 -249.5q-72 -70 -78 -119
q-2 -15 -2 -29q0 -34 11 -65q11 -36 11 -76q0 -6 -1 -32.5t-53 -91.5q-146 -174 -254.5 -248t-176.5 -76z" />
    <glyph glyph-name="sh" unicode="sh" horiz-adv-x="2821" 
d="M499 -261q30 35 43 55t13 50q0 24 -5 63l-22 -33q-40 -52 -40 -89q0 -21 11 -46zM346 -600h-10q-88 0 -105 99q-2 13 -2 27q0 105 107 295q104 178 104 232q0 23 -19 38t-76 25q-46 10 -106.5 31t-128.5 71q-125 98 -125 218q0 5 2.5 72t92.5 189.5t211 209.5t222 108
q22 5 40 5q67 0 89 -60l1 -10q0 -32 -48.5 -78t-128 -106.5t-153 -127.5t-105.5 -136q-14 -30 -14 -58q0 -38 33.5 -89t186.5 -108q58 -24 91 -24q11 0 31 7t62 77q156 240 286 434q257 378 460 721.5t426 859.5q87 194 164 265q54 50 91 50q16 0 28 -9q28 -20 28 -76
q0 -28 -13.5 -102t-122.5 -244q-97 -152 -187.5 -415.5t-160.5 -570.5t-106 -586q-29 -216 -29 -375q0 -47 6.5 -159.5t77.5 -129.5q5 -1 11 -1q70 0 204 203q173 265 278 385q115 130 172 130q68 0 68 -179q0 -78 -18 -256q-14 -116 -14 -188q0 -33 3 -57q27 -121 86 -161
q49 -33 107 -33q69 0 158 28q64 18 90 18q36 0 36 -35q0 -36 -59.5 -77.5t-167.5 -61.5q-35 -6 -71 -6q-73 0 -163.5 33t-158.5 161q-57 107 -57 297q0 39 2 81q-7 2 -15 2q-32 0 -71 -47.5t-89 -129.5q-58 -99 -129 -185.5t-159 -101.5q-10 -2 -21 -2q-80 0 -175 101
q-93 106 -111 261q-7 63 -7 131q0 187 81 567q72 339 72 507q-619 -962 -709 -1172q-27 -61 -27 -87q0 -16 8.5 -23.5t25 -12t31 -17.5t15.5 -53q0 -40 -24 -123q-74 -226 -189.5 -343t-212.5 -123z" />
    <glyph glyph-name="yl" unicode="yl" horiz-adv-x="2622" 
d="M515 -2357q57 110 128 336q150 481 261 1029q80 393 80 545q0 67 -17 81q-89 -115 -184 -361t-170.5 -549.5t-106.5 -592.5q-14 -126 -14 -235q0 -140 23 -253zM499 -2687q-26 0 -80 37.5t-93 260.5q-17 96 -17 221q0 166 30 384q61 387 152.5 688.5t192 530t186.5 397.5
q77 152 124 266t49 200q1 142 8 283q3 61 5 123l-10 1q-49 0 -117 -78t-152 -198q-75 -107 -154.5 -204.5t-157.5 -146.5q-94 -53 -168 -53q-33 0 -94.5 21.5t-115.5 119.5q-77 139 -77 312q0 188 85 216q46 11 87 11q108 0 145 -55q8 -13 8 -26q0 -28 -31 -61
q-84 -90 -84 -221q0 -53 19 -93q22 -46 70 -46q18 0 68 14.5t182 180.5q117 152 213 283q162 227 265 336q60 64 102 64q30 0 65 -55t36 -387q0 -29 13 -29q14 0 37 24q37 39 55 69q74 117 321.5 489.5t500.5 737t342 458.5q30 27 79 27q23 0 50 -10t39 -52q3 -11 3 -25
q0 -38 -22 -98q-40 -100 -110 -311q-175 -525 -306 -1068q-156 -643 -156 -1024q0 -23 3 -139.5t77 -217.5q27 -31 56 -31q52 0 146 124q33 41 61 70q25 25 45 25q3 0 16 -2t27 -57l1 -14q0 -38 -34.5 -108.5t-104.5 -138.5q-80 -78 -177 -78q-83 0 -173 92
q-94 108 -116 306q-10 88 -10 187q0 311 104 787q86 394 252 956q64 214 64 224q0 8 -4 8q-10 0 -56 -44q-208 -206 -871 -1295q-41 -67 -59 -95q-118 -184 -132 -407q-12 -199 -64 -547.5t-134 -747t-185 -746.5t-217 -547q-49 -78 -102 -78z" />
    <glyph glyph-name="Cl" unicode="Cl" horiz-adv-x="3723" 
d="M661 -1084q-135 0 -302 84t-273 371q-91 246 -91 576q0 54 9 283.5t156.5 690.5t431.5 924q398 629 743 629q74 0 188.5 -60t182.5 -319q36 -136 36 -308q0 -155 -45 -438.5t-271 -743.5q-57 -113 -109 -141q-53 -28 -90 -27t-74 51.5t-28 69t80.5 81.5t143.5 199
q39 71 70 149q159 387 159 774q0 63 -10.5 191.5t-82.5 241.5q-61 96 -161 96q-18 0 -92 -11t-258 -212q-247 -277 -421 -620.5t-269 -702.5q-108 -410 -108 -768q0 -271 70.5 -492.5t238.5 -319.5q88 -51 201 -51q106 0 235 44q333 131 960 939q549 706 1066 1549
q230 373 364 644.5t153 368.5q23 126 100.5 434t77.5 608q0 98 -9 199q0 98 100 98q49 0 116 -39.5t103 -156.5q12 -42 12 -95q0 -94 -40 -221q-131 -376 -322 -1102q-239 -904 -358 -1650q-86 -526 -86 -898q0 -257 53.5 -461.5t206.5 -258.5q16 -6 16 -17q0 -34 -79 -59
q-26 -8 -56 -8q-29 0 -77.5 12t-109.5 81q-145 163 -145 630q0 236 73.5 732.5t144 843t89.5 480.5q0 64 -14 64q-18 0 -59 -90q-68 -150 -246 -431t-428 -658t-529.5 -740.5t-545.5 -629.5t-479 -349q-170 -60 -312 -60z" />
    <glyph glyph-name="St" unicode="St" horiz-adv-x="2865" 
d="M2652 2667q29 51 116 327t89 309q0 17 -5 17q-24 0 -101 -216q-99 -285 -99 -437zM362 -627q67 0 167.5 70t198 210.5t148.5 346.5q-8 155 -58 155q-34 0 -98 -72.5t-169 -216.5l-131 -174q-125 -169 -125 -249q0 -70 67 -70zM953 590q333 311 638 621q428 437 428 524
l-1 7q-60 14 -140 14q-95 0 -249 -15q-150 -15 -286 -15q-16 0 -100.5 1.5t-167.5 64.5q-48 42 -48 81q0 55 116 146q59 46 107 102q53 61 53 136q0 205 -89 309q-109 125 -298 107q-97 0 -212 -39q-128 -42 -203.5 -116.5t-138.5 -137.5q-157 -156 -226 -387
q-40 -132 -40 -273q0 -102 46 -278.5t241 -387.5q35 -37 99 -109q265 -299 381 -382q36 -24 90 27zM2015 -2168q-126 0 -203 222q-54 158 -54 440q0 251 57 634q58 345 178 966q99 505 180.5 959t92.5 640l-6 17q-9 14 -22 14l-10 -1q-19 -3 -55 -46q-228 -275 -668 -732
q-262 -269 -407 -440q-97 -110 -71 -215q0 -37 12 -78q22 -75 22 -156q0 -101 -53.5 -264t-180.5 -334.5t-287 -256.5q-94 -51 -185 -51q-64 0 -128 25q-146 79 -146 197v61q0 60 86 207t207.5 292t225.5 258l101 112q34 42 34 83q0 32 -32.5 82.5t-149.5 151.5
q-106 93 -241 238.5t-271 369.5q-120 210 -120 444q0 229 88 451t239 399.5t339 272.5q150 75 306 75q39 0 79 -5q212 -34 325 -169q152 -182 152 -455q0 -115 -72 -267l-1 -15q0 -59 103 -67q47 -4 106 -4q87 0 198 9q142 9 297 10q108 2 187.5 91t110.5 214t55 293
q56 344 123 572q84 299 111 389q105 346 188 361h15q110 0 139 -106q16 -57 16 -130q0 -194 -104 -524q-60 -189 -117 -333.5t-81 -191.5q-109 -226 -203 -459q-18 -43 -18 -60q-41 -105 82 -111q34 -3 75 -3q145 0 416 33q248 24 561 38q104 5 212 5q215 0 444 -19
q419 -12 419 -129q0 -10 -12 -44.5t-90 -85.5t-164 -80q-65 -23 -103 -23q-35 0 -35 16q0 17 35 54q24 20 49 37q53 31 79 83q-29 46 -201 58q-101 6 -226 6q-369 0 -1189 -70q-228 -19 -323 -25q-88 -7 -132 -261q-21 -112 -37 -236q-20 -153 -111 -650
q-97 -524 -192.5 -1095t-131.5 -983q-6 -82 -6 -150q0 -98 16 -191q27 -152 118 -239q38 -38 38 -64q0 -46 -60 -59q-8 -2 -18 -2z" />
    <glyph glyph-name=".notdef" unicode="&#xe306;" 
d="M479 600v7q0 26 -10 26t-12 -14q0 -15 22 -19zM737 418q-9 9 -87 52q-23 11 -30 11q15 -6 40 -23q49 -35 77 -40zM444 248l-4 32q-8 51 -25 55q-104 23 -129 23q130 -97 158 -110zM508 1194q2 1 2 2q0 4 -11 13l-1 3q-7 0 -7 -1q0 -4 7.5 -10.5t9.5 -6.5zM506 44
q-11 0 -11 24q-3 31 -19 79q-13 41 -15 59q-7 28 -223 167q-1 0 -2 1t-3 1t-3.5 2t-9.5 7q-27 10 -27 21q0 5 9 5q13 0 38 -9q29 -10 66 -20.5t71 -17t46 -6.5q4 0 5.5 1.5t1.5 13.5q3 53 14 53q6 0 6 -5q0 -6 -2 -17q-4 -19 -4 -29q0 -22 13 -24q148 -32 240 -32
q44 0 44 13l-2 10q0 4 2 4q4 0 7.5 -2.5t5.5 -7t2 -8.5q0 -33 -65 -33q-39 0 -135 18q-61 11 -96 15q-8 0 -8 -14q0 -24 18 -75q7 -17 76 -62q96 -63 96 -86q0 -3 -3 -7t-6 -4q-4 0 -13 11q-14 23 -46 47q-83 64 -92 64q-3 0 -3 -4q0 -8 10 -33q29 -75 29 -100
q0 -9 -4 -14.5t-8 -5.5zM517 389q-12 6 -22 14q-23 19 -23 35q0 20 36 27q9 0 16.5 -3t9.5 -3q4 0 4 4l-3 22q0 13 11 24q5 5 5 7q0 3 -44 46q-26 4 -58 24q-16 11 -16 28q0 9 5 19q11 21 35 21q16 0 19 -5t3 -13q0 -18 4 -36q7 -16 33 -16q30 0 30 23q0 12 -12 30
q-43 62 -109 100q-35 20 -53 20q-10 0 -11 -6q-18 -142 -18 -175q0 -29 6 -42q6 -23 6 -37q0 -16 -14 -16q-20 0 -20 45q0 70 11 128q7 47 11 100q0 15 -47 27q-44 11 -44 22q2 10 17 10q10 0 36 -6q21 -6 29 -6q7 0 8 5q2 20 2 49q0 37 -3 98l-1 49q0 11 4 14q18 0 18 -161
q0 -25 -1 -49q0 -15 44 -33l19 -8q177 -36 247 -36q52 0 56 17q2 5 5 5q10 0 10 -12q0 -3 -2 -7q-16 -24 -67 -24q-44 0 -169 23q-28 5 -36 5q-5 0 -5 -1q0 -5 19 -19q82 -68 82 -110v-10q0 -8 -14 -22t-33 -14q3 -5 12 -14q34 -30 60 -41q51 -15 117 -57q46 -29 46 -42
q0 -12 -18 -12q-5 0 -12 2q-50 18 -121 70q-37 27 -49 29q-13 0 -13 -9q0 -16 29 -55q11 -15 13 -20v-5q-2 -3 -6 -3q-5 0 -16 8q-43 35 -69 35q-12 0 -12 -9q0 -11 19 -25q10 -8 10 -16q0 -5 -6 -7zM505 812q-20 0 -20 12q0 14 22 14q39 0 39 9q0 6 -25 29q-50 43 -50 54
q0 7 14 7q11 0 27 -4q62 -13 68 -13q4 0 4 2t-19 16q-59 43 -66 67l-48 5q-10 6 -10 12q0 11 17 11q14 0 49 -9l17 -3q-1 6 -12 11q-52 33 -52 56q0 20 36 22q23 0 56 -12q4 0 4 3q0 9 -44 60q-3 5 -8 9q-35 12 -35 33q0 9 7.5 20t20.5 11q20 0 31 -29q4 -12 12 -12q6 0 6 6
q0 10 -10 28q-15 29 -37 53q-4 7 -4 11q0 5 5 7q11 0 40 -44q27 -40 27 -57q0 -19 -21 -26q-9 -3 -19 -3q13 -12 31 -36q29 -38 29 -52t-12 -14q-2 0 -4 2q-8 5 -24 10q-29 10 -51 10q-14 0 -14 -4q0 -15 45 -40q53 -31 141 -57q83 -25 126 -30q29 -4 29 -18q0 -9 -14 -9
q-8 0 -205 52l-78 18q71 -81 176 -104q56 -11 56 -26q0 -11 -24 -11q-35 8 -57 17.5t-45 14.5l-119 20q10 -14 22 -24q34 -30 34 -46q0 -13 -20.5 -21t-43.5 -8zM901 -280l-1 1852h-776l1 -1852h776zM924 -305h-824v1902h824v-1902z" />
    <glyph glyph-name=".null" horiz-adv-x="0" 
 />
    <glyph glyph-name=".null" horiz-adv-x="0" 
 />
    <glyph glyph-name="nonmarkingreturn" horiz-adv-x="508" 
 />
    <glyph glyph-name="space" unicode=" " horiz-adv-x="999" 
 />
    <glyph glyph-name="space" unicode="&#xa0;" horiz-adv-x="999" 
 />
    <glyph glyph-name="exclam" unicode="!" horiz-adv-x="1612" 
d="M834 -163q-31 0 -85 21.5t-109.5 86.5t-68.5 174q-20 92 -20 225q0 391 171 1190q101 471 225 949q223 858 423 1496q34 89 105 89q63 0 104 -59q22 -32 22 -78q0 -43 -19 -97q-243 -607 -392 -1142q-164 -589 -324 -1287q-154 -603 -154 -944q0 -127 24.5 -280.5
t127.5 -291.5q12 -17 12 -29q0 -23 -42 -23zM666 -973q-27 0 -55 14q-105 56 -143 93q-33 30 -33 58q0 31 42 92q7 11 14 24q31 52 67.5 88.5t85.5 42.5q45 12 79 12q48 0 87 -33t39 -114q0 -71 -32 -144t-87 -112q-30 -21 -64 -21z" />
    <glyph glyph-name="quotedbl" unicode="&#x22;" horiz-adv-x="741" 
d="M358 2306q-14 0 -24.5 10.5t-10.5 32.5l1 14l-1 15q0 51 37 142.5t60 131.5q33 56 45 118q2 11 2 22q0 54 -44 123q-6 11 -6 21q0 23 29 42q39 26 93 26q4 0 35.5 -0.5t64.5 -51.5q16 -25 16 -65q0 -45 -29 -139.5t-228 -419.5q-15 -22 -40 -22zM105 2414
q-14 0 -24.5 10.5t-10.5 32.5l1 14q-2 14 -2 28q0 67 50 153q33 56 45 118q2 11 2 22q0 54 -44 123q-6 11 -6 21q0 23 29 42q39 26 93 26q4 0 35.5 -0.5t64.5 -51.5q16 -25 16 -65q0 -45 -29 -139.5t-180 -311.5q-15 -22 -40 -22z" />
    <glyph glyph-name="numbersign" unicode="#" horiz-adv-x="2305" 
d="M844 253q76 0 283 202q164 157 164 254q0 26 -14 44q-125 195 -245 392q-20 34 -43 34q-16 0 -32 -18q-116 -127 -197 -205q-118 -111 -156 -183q-16 -31 -16 -69q0 -49 39 -133.5t185 -301.5q11 -16 32 -16zM1504 -1215q-15 0 -28 6q-28 11 -28 45q0 14 5 32
q15 49 15 99q0 55 -27.5 135.5t-317.5 465.5q-251 332 -356 332q-16 0 -69.5 -34.5t-254.5 -197.5q-159 -130 -429 -336q-36 -37 -74 -37q-32 0 -64 26q-24 19 -24 43q0 46 94 108q526 399 738 595q18 19 18 50q0 27 -21 83t-79 143t-112 153t-72 80q-158 -214 -478 -558
q-100 -120 -175 -120q-26 0 -48 14q-32 19 -32 49q0 54 104 141q254 286 517 563q16 18 16 58q0 64 -54 221q-88 255 -273 645q-40 79 -40 115t35 36q45 0 86 -38q23 -23 70 -137q67 -166 328 -705q87 78 226 223q106 110 151 198q30 58 30 95q0 19 -8 33q-131 222 -256 447
q-5 31 -5 52q0 50 28 50q20 0 53 -24q59 -42 184 -246q111 -182 170 -182q20 0 35 19q240 312 366 561q33 63 61 63q20 0 38 -31q21 -38 21 -72t-21 -64q-177 -296 -325 -495q-110 -146 -110 -192q0 -11 5 -19q122 -202 292 -443q6 -8 16 -8q53 0 198 175q236 282 320 402
q119 168 195 168q26 0 39 -22t13 -53q0 -28 -14.5 -84t-85.5 -139q-389 -435 -499 -553q-31 -34 -31 -71q0 -20 14 -38q132 -166 249 -277q16 3 30 3q90 0 118 -119q10 -44 10 -74q0 -76 -60 -76q-75 0 -202 128q-83 84 -227 270q-27 38 -65 38q-30 0 -68 -25
q-125 -125 -280 -270q-90 -78 -90 -128q0 -59 118 -239t252 -369q176 -195 233 -332q43 -105 43 -178q0 -112 -71 -157q-32 -20 -60 -20z" />
    <glyph glyph-name="dollar" unicode="$" horiz-adv-x="2858" 
d="M1140 -779q50 0 180.5 90.5t294 257t290 369.5t151.5 408l-14 78q-13 103 -47.5 198t-137.5 194.5t-321 215.5l-6 1q-57 0 -158 -440q-91 -398 -172 -885q-71 -426 -71 -480q0 -5 1 -6zM1341 1388q60 0 111 215q44 184 93 545q21 146 39 254q35 211 69 451q36 251 79 508
q0 55 -65 55q-61 0 -158.5 -44.5t-211.5 -129t-223 -202t-190.5 -261.5t-114.5 -308q-15 -76 -15 -155q0 -91 28.5 -227.5t158 -321t372.5 -369.5q14 -10 28 -10zM1773 2465q44 0 136.5 51t219 155t242.5 231t185 253q60 108 60 199q0 15 -6.5 73.5t-134.5 113.5
q-96 41 -277 41q-61 0 -131 -5q-95 -6 -143 -68.5t-69.5 -181.5t-38.5 -296q-28 -273 -49 -356q-22 -88 -22 -137q0 -35 9 -70q8 -3 19 -3zM915 -2882q-13 0 -37 11q-94 48 -127 212q-26 130 -26 299q0 42 5 176t33 359t54 397q19 128 27 197q-301 -167 -472 -216
q-109 -31 -178 -31q-141 0 -141 120q0 60 31 123t70 88q13 8 23 8q20 0 29 -36q16 -99 39 -132q13 -18 37 -18q20 0 63 18t172 98q123 75 336 193q52 38 119 290t135.5 596.5t126.5 660.5q65 350 101 511q9 35 9 63q0 37 -21 67t-94 74q-198 120 -417 379q-210 262 -241 527
q-8 64 -8 128q0 196 84 409.5t253.5 413.5t360 332.5t349.5 176.5q98 28 147.5 119.5t69 215t28.5 251.5q8 104 20.5 192t40.5 144q31 64 95 64q72 0 87 -68q6 -28 6 -63q0 -108 -76 -365q-25 -88 -43 -162q-16 -67 -16 -111q0 -4 0.5 -29t33.5 -27q364 -10 555 -105
q242 -122 242 -336q0 -107 -75.5 -248t-269.5 -293q-281 -217 -519 -371q-126 -81 -183 -133.5t-80.5 -136.5t-47.5 -258.5t-84 -499.5q-2 -13 -2 -27q0 -76 69.5 -155t185.5 -175q124 -101 240.5 -228t168.5 -294q22 -71 22 -151q0 -110 -55.5 -285.5t-305.5 -469.5
q-171 -195 -304.5 -305t-234.5 -178q-107 -71 -183.5 -144t-128.5 -198t-85.5 -351.5t-54.5 -604.5q-3 -68 -3 -129q0 -236 50 -449q16 -69 16 -102q0 -28 -21 -28z" />
    <glyph glyph-name="percent" unicode="%" horiz-adv-x="1794" 
d="M352 1963q37 0 88.5 48.5t99.5 138.5q59 113 59 189q0 52 -41 62q-60 10 -100 21t-67 11q-11 0 -30.5 -5t-42.5 -68t-60 -213q15 -153 64 -177q15 -7 30 -7zM-57 -1312q-52 0 -124.5 40.5t-103.5 204.5q-8 45 -8 98q0 141 60 338q91 274 254 608t364.5 694.5t407.5 714.5
q240 413 435 768.5t291 601.5q2 7 2 12q0 22 -33 22q-65 0 -253 -79q-471 -197 -488 -260q-6 -23 -6 -52q0 -17 2.5 -37.5t2.5 -45.5q0 -34 -6.5 -88.5t-57 -145.5t-172.5 -207q-82 -74 -167 -74q-18 0 -78 10.5t-119 121.5q-39 74 -39 182q0 55 20.5 182t187.5 381
q56 81 107 90q13 3 26 3q63 0 148 -85q40 -42 65 -47q40 1 122.5 36t189.5 86q123 59 254 114q213 90 322 90q53 0 89 -20q51 -28 51 -111q0 -135 -223 -547q-195 -362 -472 -839q-190 -328 -382 -670q-447 -796 -633 -1254q-136 -335 -136 -509q0 -125 76 -169q14 -7 30 -7
q32 0 82 34.5t107 97.5q81 88 105 122l179 214q182 213 357 431t331 449q43 62 93 88q31 17 55 17q49 0 49 -54q0 -15 -9 -58t-94 -165q-174 -255 -174 -533q0 -39 10.5 -117t63.5 -107q11 -6 23 -6q45 0 103 87q125 202 150 315q11 52 11 92q0 47 -23 90.5t-62 71.5
q-25 20 -36 39q-9 21 -9 38q0 31 30 46q22 11 48 11q31 0 84.5 -20.5t99.5 -107.5q31 -57 31 -144q0 -47 -16.5 -154t-158.5 -350q-105 -169 -248 -169q-40 0 -98.5 23t-110 101.5t-52.5 185.5q0 41 3 83q3 38 3 66q0 7 -0.5 28.5t-16.5 21.5q-14 0 -48 -41l-324 -399
q-317 -384 -427 -447q-61 -31 -117 -31z" />
    <glyph glyph-name="ampersand" unicode="&#x26;" horiz-adv-x="5473" 
d="M1085 -1523q-171 0 -343 63.5t-263 234.5q-53 99 -53 223q0 88 45.5 259t305 461t753.5 607q83 50 105 70.5t37 60.5l-124 5q-468 10 -798 84q-478 103 -652 398q-81 136 -81 333q0 340 269 719q232 329 597.5 634t798.5 542.5t866 365.5q363 107 678 107q59 0 118 -4
q242 -21 415.5 -160.5t237.5 -360.5q28 -94 28 -197q0 -138 -68.5 -349t-346.5 -489.5t-789 -532.5q-68 -31 -102 -31q-38 0 -38 30l1 11q3 12 234 168q195 130 357.5 257.5t296 297t245.5 427.5q51 119 51 228q0 82 -48.5 207t-259.5 220q-169 76 -419 76
q-63 0 -266.5 -14.5t-656.5 -197.5t-1006 -566q-365 -258 -623 -556t-352 -583q-38 -118 -38 -225q0 -152 105 -329t519 -281q257 -65 644 -65q239 0 526 24q205 22 406 109q109 48 169 48q62 0 103 -86q12 -28 12 -51q0 -44 -60 -78.5t-221 -77.5q-169 -45 -410 -138.5
t-528 -283.5t-595 -524q-139 -154 -207 -322q-53 -128 -53 -243q0 -36 13 -124.5t144 -170.5q110 -70 310 -70q40 0 83 3q326 24 741 137t805.5 300t642.5 437q154 159 154 394q0 66 -24 170.5t-128 209.5t-283 138q-34 6 -71 39q-40 37 -40 78q0 106 315 147q180 20 360 20
q195 0 479.5 -35t592.5 -133t488 -218q172 -116 172 -220q0 -5 -5 -61.5t-269 -122.5q-435 -100 -665 -100q-180 0 -180 56q0 23 52 56.5t192 48.5q487 44 597 126q25 17 25 39q0 21 -42.5 59.5t-252.5 104.5l-169 53q-526 183 -826 183q-170 0 -332 -43q-44 -13 -44 -34
q0 -20 39 -71q52 -63 119 -204q71 -172 71 -324q0 -95 -50 -252.5t-257 -338.5t-490 -318q-507 -244 -1160 -387q-444 -97 -629 -97z" />
    <glyph glyph-name="quotesingle" unicode="'" horiz-adv-x="543" 
d="M105 2358q-14 0 -24.5 10.5t-10.5 32.5l1 14q-2 14 -2 28q0 67 50 153q33 56 45 118q2 11 2 22q0 54 -44 123q-6 11 -6 21q0 23 29 42q39 26 93 26q4 0 35.5 -0.5t64.5 -51.5q16 -25 16 -65q0 -45 -29 -139.5t-180 -311.5q-15 -22 -40 -22z" />
    <glyph glyph-name="parenleft" unicode="(" horiz-adv-x="1158" 
d="M753 -939q-6 0 -54 2t-170 66t-242.5 195.5t-203.5 339.5t-94 500q11 577 306 1441q64 189 65 228q2 71 121.5 284t283 437t299.5 327q79 52 149 52q17 0 67.5 -9t110 -64.5t78.5 -111.5q7 -20 7 -36q0 -44 -57 -44q-31 0 -68 33q-41 36 -78 36q-22 0 -59.5 -14.5
t-113.5 -82.5q-207 -193 -394 -551t-322 -785t-186 -827q-22 -174 -22 -325q0 -195 37 -352q49 -184 140 -299.5t193 -183t183 -106.5q62 -31 96 -55q27 -20 27 -40q0 -6 -2 -11q-19 -44 -97 -44z" />
    <glyph glyph-name="parenright" unicode=")" horiz-adv-x="1102" 
d="M-186 -1090q-8 0 -21 4t-20 34q-4 13 -4 33q0 25 7.5 75.5t42 160.5t101.5 276t174 398.5t262 542.5q136 269 236.5 525t155.5 532.5t55 605.5q-13 252 -96.5 456.5t-193 362t-201.5 266.5q-69 83 -106 138q-27 40 -27 65q0 10 8.5 27.5t90.5 17.5q58 -2 159.5 -101
t212.5 -278t197.5 -419.5t114.5 -526.5q9 -89 9 -180q0 -202 -44 -416q-74 -334 -216 -672.5t-315 -699.5q-131 -274 -262.5 -569t-248.5 -620q-1 -3 -15 -14q-32 -24 -56 -24z" />
    <glyph glyph-name="asterisk" unicode="*" horiz-adv-x="1343" 
d="M492 2322q-8 0 -18 2q-50 18 -50 65q0 1 0.5 25t18.5 82q20 69 20 106q0 32 -15 55v9l-4 -4l-1 1l1 -2q-25 -32 -46 -62q-88 -131 -140 -131q-18 0 -36 10q-15 11 -15 29q0 20 23.5 62.5t82.5 110t111 122.5q35 37 52 57.5t17 35.5q0 37 -141 68q-54 12 -107 30
q-122 39 -124 120q2 33 42 42q29 6 62 6q44 0 150 -17q-21 72 -21 102q0 51 34 51q48 0 125 -73q31 -33 45 -33q8 0 17 14q11 19 17 119q3 68 17 118.5t63 50.5q93 -8 93 -97q-1 -37 -6 -71q-5 -28 -5 -46q1 -17 14 -17q27 0 68 75q50 95 97 95q19 0 42 -12q33 -22 33 -60
q0 -87 -164 -275l-30 -39q33 -11 71 -11q47 0 117 13q54 10 94 10q12 0 42 -2.5t35 -54.5q0 -99 -117 -99l-60 3q-64 0 -166 -19l-68 -11q-38 -8 -38 -50q0 -47 23 -126q25 -90 25 -132q0 -22 -7 -46q-9 -31 -59 -34q-38 0 -49 67q-9 62 -41 62q-24 0 -33.5 -38t-15.5 -89
q-5 -45 -13 -86q-18 -81 -62 -81z" />
    <glyph glyph-name="plus" unicode="+" horiz-adv-x="1459" 
d="M525 -203q-66 0 -66 158q0 120 40 332q25 115 25 189q0 107 -69 140.5t-184 47.5q-299 34 -299 125q0 20 14 37.5t30 28.5t22 11q233 -10 352 -33q70 -13 117 -13q25 0 59.5 7t60.5 86t60 264q3 305 150 385q30 16 50 16q38 0 38 -61q0 -63 -40 -189q-92 -291 -92 -390
l1 -15q8 -90 81 -90q215 -15 321 -15q53 0 79 4q20 3 37 3q48 0 69 -22q22 -26 22 -48q0 -54 -152 -94q-66 -17 -159 -17q-39 0 -83 3q-32 2 -60 2q-103 0 -162.5 -30t-70.5 -79l-96 -531q-37 -212 -95 -212z" />
    <glyph glyph-name="comma" unicode="," horiz-adv-x="828" 
d="M281 -442q-44 0 -44 48q0 17 156 243q43 52 60 119l1 25q0 48 -40.5 52t-73.5 8q-27 3 -51 16t-49 84q-9 21 -9 40q0 20 16 49q18 34 124 34q11 0 18 -1q256 -42 256 -209q0 -91 -77 -209q-109 -163 -260 -290q-10 -9 -27 -9z" />
    <glyph glyph-name="hyphen" unicode="-" horiz-adv-x="1864" 
d="M343 433q-17 0 -84.5 0.5t-93.5 18.5q-45 39 -45 84q0 12 3 25q13 54 344 54h65q128 -3 214 -3q133 0 191.5 8.5t217.5 17.5t159 10q188 -6 251 -106q10 -15 10 -28q0 -70 -276 -70l-462 3q-93 0 -242 -9q-145 -5 -252 -5z" />
    <glyph glyph-name="hyphen" unicode="&#xad;" horiz-adv-x="1864" 
d="M343 433q-17 0 -84.5 0.5t-93.5 18.5q-45 39 -45 84q0 12 3 25q13 54 344 54h65q128 -3 214 -3q133 0 191.5 8.5t217.5 17.5t159 10q188 -6 251 -106q10 -15 10 -28q0 -70 -276 -70l-462 3q-93 0 -242 -9q-145 -5 -252 -5z" />
    <glyph glyph-name="period" unicode="." horiz-adv-x="892" 
d="M327 15q-36 0 -65 36q-38 50 -38 114q0 19 9.5 74t77.5 100q28 16 60 16q9 0 17 -1q116 -22 184 -121q7 -11 12 -25q2 -7 6 -15q-22 -42 -29 -50q-68 -76 -209 -124q-13 -4 -25 -4z" />
    <glyph glyph-name="slash" unicode="/" horiz-adv-x="1099" 
d="M-90 -1469q-140 0 -211 160q-34 77 -34 207q0 33 7 142t104 394q112 318 293.5 710.5t382.5 805.5q176 359 333 695.5t264 614t132 459.5q11 63 50 87q19 11 38 11q20 0 51 -19.5t44 -103.5q4 -20 4 -45q0 -199 -300 -828q-152 -317 -334 -682q-419 -836 -619 -1305
q-277 -650 -277 -960q0 -15 4.5 -107t121.5 -146q43 -21 43 -42q0 -6 -10 -23q-13 -21 -87 -25z" />
    <glyph glyph-name="zero" unicode="0" horiz-adv-x="1815" 
d="M464 -421q18 0 85 12t190.5 126.5t240.5 281t214.5 342t161.5 318t81 209.5q84 338 84 568q0 2 -1 119t-55 254.5t-126 196t-130 58.5q-2 0 -32.5 -1t-41.5 -48q-8 -43 -25.5 -116t-38.5 -142t-42 -101q-9 -15 -17 -15q-10 0 -21.5 29t-15.5 170h4q-1 5 -1 16
q0 214 -97 214q-43 0 -119 -65q-93 -84 -200.5 -299t-203 -501.5t-150.5 -584.5q-44 -241 -44 -451q0 -50 7.5 -199.5t115.5 -293.5q81 -97 177 -97zM456 -582q-81 0 -157 37q-117 62 -175 140t-81 169q-46 175 -46 341q0 219 43 483.5t132 549.5t200 528q13 31 13 57
q0 38 -29 86q-23 33 -23 63q0 31 52 69q162 118 271 247q50 63 97 90q36 21 100 21q21 0 81 -5.5t259 -53.5q260 -67 376 -267t116 -482q-1 -282 -89.5 -594.5t-238.5 -603.5t-332.5 -510t-371.5 -314q-102 -51 -197 -51z" />
    <glyph glyph-name="one" unicode="1" horiz-adv-x="1227" 
d="M478 -1315q-43 0 -93 39q-107 97 -115 281l-1 58q0 161 44.5 371t108.5 437q40 148 72.5 281t44.5 238q24 166 136 615q250 1011 250 1250q0 76 -22 99q-89 -84 -237.5 -256.5t-289.5 -349.5t-206 -275q-56 -81 -150 -81q-86 0 -86 61q0 39 72 97q85 67 339 384
q117 144 240 288q346 405 465 405q73 0 73 -139q0 -93 -36 -270q-108 -590 -216.5 -1114t-269.5 -1127q-6 -20 -34 -143.5t-60 -294.5q-60 -321 -60 -497q0 -56 6 -100q12 -82 57 -82q10 0 21 4q25 8 42 8q40 0 40 -46q0 -28 -24 -71t-79 -64q-16 -6 -32 -6z" />
    <glyph glyph-name="two" unicode="2" horiz-adv-x="2387" 
d="M-383 -703q-27 0 -51 4q-91 22 -91 77q0 7 6.5 43t97.5 120.5t228.5 165.5t288.5 134q492 181 499 187q88 98 188 184q158 138 233.5 241.5t160.5 179.5q64 56 161.5 174t273.5 402q230 382 287 648q26 120 26 219q0 119 -53.5 243.5t-201.5 190.5q-115 50 -249 50
q-39 0 -149.5 -12t-275.5 -106q-77 -46 -157.5 -138.5t-130.5 -201.5q-41 -87 -41 -164q0 -19 2.5 -36.5t2.5 -31.5q0 -57 -42 -57q-29 0 -68.5 33.5t-56.5 104.5q-5 21 -5 43q0 55 32 119q155 283 358 425q242 170 508 170q156 0 315 -65t267 -213t108 -349
q-20 -592 -644 -1342q-158 -189 -291 -336q-111 -124 -181 -210t-77 -127q127 43 342 43q136 0 299 -18t318 -55.5t241 -85.5q66 -37 66 -77q0 -39 -56 -39q-55 0 -214 35q-354 84 -658 85q-441 0 -791 -226q-42 -28 -99 -68q-112 -80 -254 -170q-302 -193 -472 -193z" />
    <glyph glyph-name="three" unicode="3" horiz-adv-x="2053" 
d="M-74 -1140q-24 0 -75 14q-69 19 -69 57q0 1 1 12.5t39 43t127 73.5q167 79 423 235.5t525 355.5t475 404t272 381q16 47 16 80q0 19 -10 46.5t-53 48t-102 36.5q-125 20 -248 20q-219 0 -559 -71q-240 -52 -382 -52q-140 0 -219 83q-25 29 -25 62q0 31 34 83.5t151.5 143
t283.5 204.5q230 156 501.5 367.5t526.5 489.5q116 131 116 207q0 12 -12 56t-139 62q-51 7 -110 7q-92 0 -240.5 -21t-343.5 -75t-350 -120.5t-221 -129.5q-43 -43 -45 -75l-1 -14q0 -23 7 -40.5t7 -31.5q0 -2 -1 -11t-27 -24q-10 -5 -23 -5q-24 0 -66.5 22t-75.5 78
q-18 31 -18 68q0 29 18.5 82.5t143.5 136t389 162.5t708 146q81 12 157 12q84 0 197 -22t180 -116q31 -44 31 -105q0 -69 -57 -199t-332 -388q-428 -390 -894 -709q-231 -159 -231 -189q0 -18 48 -18q15 0 82.5 6t384.5 64q217 38 396 38q88 0 246 -18t273 -125
q80 -75 80 -185q0 -46 -31 -162t-279 -361q-181 -176 -472.5 -412t-597.5 -436.5t-530 -271.5z" />
    <glyph glyph-name="four" unicode="4" horiz-adv-x="2053" 
d="M1377 -1205q-41 0 -106.5 51t-113.5 185q-33 93 -33 232q0 61 6 131q50 425 141.5 755.5t165.5 536.5q70 198 70 258q-50 0 -153.5 -59.5t-246.5 -153.5q-165 -107 -352 -217t-366 -177q-140 -53 -256 -53q-32 0 -63 4q-177 32 -203 151q-7 31 -7 65q0 100 68.5 255.5
t206.5 365.5t292 424q130 182 240.5 347.5t174.5 297.5q-90 32 -90 105q0 23 23.5 93t157 229t304.5 339q135 144 261 286q68 73 119 73q7 0 15 -2q51 -12 51 -83q0 -6 -2.5 -50.5t-107.5 -167.5q-29 -34 -157 -216t-311 -454q-430 -640 -737 -1155q-326 -546 -326 -673
q0 -17 6 -27q42 -52 121 -52q15 0 75 7t198.5 71t295 156.5t313.5 190.5q187 118 346 209q213 121 304 121q72 0 72 -79q0 -84 -93 -282q-73 -152 -158.5 -412t-148 -560t-62.5 -571q0 -265 95 -433q11 -20 11 -34q0 -28 -40 -28z" />
    <glyph glyph-name="five" unicode="5" horiz-adv-x="1871" 
d="M78 -999q-77 3 -125 40q-67 50 -67 98q0 23 20 33q8 4 18 4q31 0 89 -30q24 -12 58 -12q62 0 179.5 49.5t292.5 171t338.5 273.5t272.5 303q121 167 121 289q0 105 -119 157q-117 46 -250 91q-156 52 -312 114.5t-287 148.5t-212.5 208t-89.5 296q0 193 101 431.5
t251 452.5t294 332q-40 4 -92 4q-176 0 -195 29q-23 38 -23 63q0 49 85 50q150 1 277.5 28t237.5 93q76 47 120 47q39 0 76 -15q66 -25 130 -25q53 0 104 9q382 71 651 71q30 0 110 -3t146 -40q39 -23 39 -62q0 -60 -86 -148q-74 -75 -110 -75q-20 0 -20 24q0 29 30 98
q6 14 6 26q0 61 -160 61q-107 0 -251 -21q-199 -30 -301 -57q-70 -18 -84 -53q-12 -28 -12 -66q-52 -35 -89 -35q-12 0 -23 4q-66 23 -71 82q-143 0 -278 -90.5t-253 -236.5t-209.5 -312t-146.5 -316t-64 -249q-3 -35 -3 -69q0 -171 80.5 -287t234.5 -188t337 -129
q165 -51 324 -119q220 -103 258 -255q11 -44 11 -90q0 -112 -79 -260.5t-250.5 -318.5t-371.5 -309.5t-377 -223.5t-281 -86z" />
    <glyph glyph-name="six" unicode="6" horiz-adv-x="1745" 
d="M526 -885q-112 0 -225.5 62t-197.5 172t-102 223q-33 232 -33 451q0 100 15 304.5t91 515.5t188 650q43 137 91 318q44 168 90 321.5t94 244.5q40 82 92 236q49 144 77 206q91 233 159 369.5t211 342.5q23 31 68 45q21 7 42 7q25 0 58.5 -12.5t51.5 -71.5q6 -21 6 -49
q0 -51 -21 -125q-97 -360 -163 -556q-92 -271 -141 -271q-9 0 -16 7q-37 43 -37 103q0 78 67 240q34 87 64 186t39 209q-93 -116 -222 -403t-265 -678t-249 -820t-172 -828q-43 -289 -43 -528q0 -92 14.5 -286t149.5 -335q110 -104 233 -104q17 0 97 9.5t223 120.5
t267.5 276t212.5 344q129 263 129 431q0 104 -62 172q-75 83 -258 83q-92 0 -202 -25t-184 -66q-97 -48 -204 -113q-211 -128 -211 -244q0 -61 -47 -61q-42 0 -78 38q-27 28 -27 72q0 20 10.5 68t129.5 148q280 218 545 297q154 46 285 46q92 0 228 -39.5t200 -225.5
q21 -63 21 -141q0 -150 -80 -355q-137 -336 -371 -610q-276 -322 -591 -369q-24 -2 -47 -2z" />
    <glyph glyph-name="seven" unicode="7" horiz-adv-x="1894" 
d="M512 -1325q-41 0 -96 23t-98 112q-31 67 -31 181q0 39 8.5 147.5t110.5 390.5q91 241 287 667.5t416 891.5q526 1107 573 1279q-46 -14 -120 -38q-868 -292 -1250 -292q-45 0 -132 8t-143 77q-28 40 -28 65q0 55 106 55q32 0 65 -7q104 -19 216 -19q106 0 278.5 25.5
t401.5 95.5t423 140q162 58 279 93q93 28 146 28q60 0 60 -41q0 -42 -69 -175q-114 -213 -405 -827t-576 -1241.5t-382 -880.5q-19 -51 -41 -148q-37 -156 -37 -280q0 -64 15.5 -133.5t79.5 -95.5q50 -20 50 -43q0 -5 -8.5 -23t-63.5 -31q-17 -4 -35 -4z" />
    <glyph glyph-name="eight" unicode="8" horiz-adv-x="2012" 
d="M1192 738q51 83 168 388t221 636q118 376 118 510q0 281 -306 281q-49 0 -169 -17.5t-327 -111.5t-387 -228t-284 -283q-86 -122 -86 -237q0 -24 4 -48q32 -151 171 -179q60 -13 122 -16q68 -4 120 -18.5t71 -64.5q22 -62 68 -107t109 -90q72 -51 156 -128.5t168 -208.5
q15 -21 63 -78zM607 -363q92 0 203 94q146 131 222 285.5t82 312.5q-5 142 -59 285.5t-139 257.5t-180 168q-58 32 -112 32q-36 0 -97 -25t-120 -182q-108 -306 -108 -596q0 -222 60 -393t178 -224q34 -15 70 -15zM604 -488q-47 0 -139 20.5t-187 133t-114 295.5l-21 226
q10 253 43 425q48 256 142 453q42 85 42 123q0 31 -27 61.5t-112 79.5q-207 125 -252 265q-17 52 -17 105q0 87 59 201t202 244q256 234 618 413q143 70 216 93q161 49 319 49q299 0 423 -184q61 -90 61 -236l-1 -43q-21 -239 -112 -504.5t-198 -519.5q-80 -194 -141 -361
q-80 -219 -80 -344q0 -85 42 -134q31 -33 31 -50q0 -16 -44 -24q-32 -4 -65 -20.5t-45 -63.5q-63 -276 -184.5 -439t-268.5 -224q-97 -40 -190 -40z" />
    <glyph glyph-name="nine" unicode="9" horiz-adv-x="2297" 
d="M1260 -1789q-18 0 -54 14t-84.5 82t-73.5 201q-13 67 -13 156q0 84 12 188q48 386 155 865t236 950t243 832q14 40 14 58q0 15 -10 15q-31 0 -243 -235q-325 -356 -571 -562q-333 -279 -561 -279q-23 0 -46 3q-213 36 -258 201q-15 57 -15 123q0 126 68 327t235.5 471
t378.5 516t423 418q285 230 496 230q214 0 214 -261q0 -76 -24.5 -168t-67.5 -152q-28 -40 -52 -40q-12 0 -24 12q-23 30 -23 72q0 46 21 128q21 75 21 129q0 50 -37 80q-30 20 -72 20q-73 0 -209.5 -78t-338 -271t-389 -434t-312.5 -479q-140 -267 -140 -462
q0 -244 164 -244q12 0 62.5 6t155 62t202.5 130q198 151 565 542q227 243 435 496t322 444q44 68 108 68q37 0 61 -23q18 -17 18 -41q0 -18 -10 -40q-289 -568 -463 -1041.5t-292 -973t-240 -1145.5q-55 -264 -55 -468q0 -62 9 -171t82 -208q15 -20 15 -35
q0 -11 -10.5 -19.5t-27.5 -8.5z" />
    <glyph glyph-name="colon" unicode=":" horiz-adv-x="945" 
d="M298 -276q-36 0 -65 36q-38 50 -38 114q0 19 9.5 74t77.5 100q28 16 60 16q9 0 17 -1q116 -22 184 -121q7 -11 12 -25q2 -7 6 -15q-22 -42 -29 -50q-68 -76 -209 -124q-13 -4 -25 -4zM574 954q-36 0 -65 36q-38 50 -38 114q0 19 9.5 74t77.5 100q28 16 60 16q9 0 17 -1
q116 -22 184 -121q7 -11 12 -25q2 -7 6 -15q-22 -42 -29 -50q-68 -76 -209 -124q-13 -4 -25 -4z" />
    <glyph glyph-name="semicolon" unicode=";" horiz-adv-x="1003" 
d="M281 -638q-44 0 -44 48q0 17 156 243q43 52 60 119l1 25q0 48 -40.5 52t-73.5 8q-27 3 -51 16t-49 84q-9 21 -9 40q0 20 16 49q18 34 124 34q11 0 18 -1q256 -42 256 -209q0 -91 -77 -209q-109 -163 -260 -290q-10 -9 -27 -9zM727 1056q-36 0 -65 36q-38 50 -38 114
q0 19 9.5 74t77.5 100q28 16 60 16q9 0 17 -1q116 -22 184 -121q7 -11 12 -25q2 -7 6 -15q-22 -42 -29 -50q-68 -76 -209 -124q-13 -4 -25 -4z" />
    <glyph glyph-name="semicolon" unicode="&#x37e;" horiz-adv-x="1003" 
d="M281 -638q-44 0 -44 48q0 17 156 243q43 52 60 119l1 25q0 48 -40.5 52t-73.5 8q-27 3 -51 16t-49 84q-9 21 -9 40q0 20 16 49q18 34 124 34q11 0 18 -1q256 -42 256 -209q0 -91 -77 -209q-109 -163 -260 -290q-10 -9 -27 -9zM727 1056q-36 0 -65 36q-38 50 -38 114
q0 19 9.5 74t77.5 100q28 16 60 16q9 0 17 -1q116 -22 184 -121q7 -11 12 -25q2 -7 6 -15q-22 -42 -29 -50q-68 -76 -209 -124q-13 -4 -25 -4z" />
    <glyph glyph-name="less" unicode="&#x3c;" horiz-adv-x="1420" 
d="M827 44q-35 0 -74 22q-85 51 -186 106q-150 81 -289 170t-213 186q-46 60 -46 124q0 38 17 78q36 134 365 289q226 106 594 237q114 41 190 70q27 10 51 10q28 0 62 -19q38 -22 43 -82q0 -44 -50 -96t-185 -91q-426 -116 -632 -198t-245 -145q-14 -22 -14 -43
q0 -40 60.5 -88t192.5 -116q95 -50 196.5 -112.5t189.5 -142.5q54 -54 54 -93q0 -5 -4.5 -28t-50.5 -35q-13 -3 -26 -3z" />
    <glyph glyph-name="equal" unicode="=" horiz-adv-x="1587" 
d="M237 742q-18 0 -85 0.5t-93 18.5q-45 39 -45 84q0 12 3 25q13 54 344 54h65q128 -3 213 -3q134 0 192.5 8.5t217.5 17.5t159 10q188 -6 251 -106q10 -15 10 -28q0 -70 -276 -70l-462 3q-93 0 -242 -9q-145 -5 -252 -5zM274 184q-188 6 -251 107q-10 15 -10 28
q0 70 282 70l185 -1q190 -2 290 -2q89 0 223 8q145 5 252 5q18 0 85 -0.5t93 -18.5q45 -39 45 -84q0 -12 -3 -25q-13 -54 -344 -54h-65q-135 3 -223 3q-126 0 -183.5 -8.5t-216.5 -17.5t-159 -10z" />
    <glyph glyph-name="greater" unicode="&#x3e;" horiz-adv-x="1249" 
d="M111 -159q-18 0 -33 14q-25 31 -25 70q0 97 146 246q156 159 426 351q65 47 214 149l-81 41q-277 135 -452 244q-277 171 -281 285q3 99 53 99q58 0 198 -135q168 -158 565 -340q129 -58 201 -105q66 -42 66 -90q0 -5 -4.5 -34.5t-118.5 -107.5q-142 -99 -218 -150
q-82 -55 -128 -89q-66 -48 -259 -228q-104 -96 -125 -117q-101 -103 -144 -103z" />
    <glyph glyph-name="question" unicode="?" horiz-adv-x="2702" 
d="M1087 91q-111 0 -212 165q-68 110 -68 264q0 148 105 320q155 235 397.5 459t494.5 429q187 152 340 290q317 282 317 439q0 12 -7 64t-151 117t-454 98q-302 46 -530 46q-77 0 -247.5 -13t-333.5 -81t-237 -153q-85 -96 -85 -177q0 -54 35 -69q209 -95 209 -136
q0 -23 -91 -23q-117 0 -209.5 58t-114.5 170q-5 23 -5 48q0 243 381 438q174 80 446 94q93 4 187 4q181 0 411 -20.5t419 -54.5q134 -22 260.5 -74t207.5 -137q77 -82 77 -195q0 -5 -2 -66.5t-125 -216.5q-127 -153 -299.5 -310t-361.5 -316q-207 -173 -393.5 -344.5
t-312.5 -336.5q-157 -205 -157 -377q0 -126 95 -242q14 -17 33 -34q49 -44 49 -71q0 -16 -13 -33q-23 -23 -55 -23zM1068 -677h-12q-53 0 -90 31q-33 28 -33 82q0 13 2 27q19 86 88 120q41 21 83 21q29 0 79.5 -17t74.5 -105q-19 -75 -74.5 -115.5t-117.5 -43.5z" />
    <glyph glyph-name="at" unicode="@" horiz-adv-x="2635" 
d="M1047 454q43 0 131 70q52 42 95 84q98 95 98 118q0 5 -5 5q-2 0 -16 -1.5t-84.5 -47.5t-143 -106.5t-104.5 -106.5q10 -15 29 -15zM909 -998q-24 0 -150 5.5t-322 143.5q-385 280 -434 739q-9 88 -9 180q0 132 19 270q61 303 191.5 614.5t322.5 591.5t437 487.5
t536 301.5q86 25 170 25q60 0 159 -22.5t198 -101.5t128 -178q92 -342 92 -652q0 -42 -7.5 -236t-98.5 -472t-221 -459.5t-259 -237.5q-48 -21 -90 -21q-72 0 -145.5 79t-84.5 357q-1 33 -22 33q-31 0 -129 -77q-62 -47 -131 -89q-83 -51 -148 -51q-56 0 -99 53
q-31 45 -31 94q0 42 34.5 114.5t135 167t202 162.5t154 86.5t99.5 18.5q45 0 103 -24t102.5 -90t44.5 -132q0 -59 -47 -85q-54 -29 -81.5 -112.5t-27.5 -171.5q0 -3 0.5 -50.5t34.5 -99.5q19 -29 51 -29q24 0 74 26.5t161 200.5q132 212 190.5 410.5t70.5 406.5q8 138 8 291
q0 76 -2 156q0 300 -111 447q-86 111 -284 111q-206 0 -429.5 -121.5t-438 -365t-373.5 -549.5t-237 -627q-58 -236 -58 -454q0 -77 17.5 -257.5t178.5 -384.5q148 -176 343 -235q135 -41 277 -41q63 0 199.5 17.5t325 100t322.5 190.5q27 20 69 39.5t96.5 53.5t118.5 97
q52 53 106 105q80 75 156 154t140 169q24 30 41 30q25 0 25 -40q0 -24 -17.5 -82t-117.5 -181.5t-307 -284.5q-394 -306 -811 -445q-207 -69 -410 -69z" />
    <glyph glyph-name="A" unicode="A" horiz-adv-x="3025" 
d="M1562 1020q141 26 261 44q201 27 325.5 67t146.5 140q12 61 43.5 199t68 306t63 317.5t26.5 224.5q0 29 -5 43q-86 -107 -298.5 -397.5t-406.5 -574t-224 -369.5zM2217 -1628q-62 0 -121 48q-152 128 -152 503q0 160 23 348q35 295 130 797q100 524 131 817v7
q0 63 -121 63q-162 0 -488 -100q-112 -35 -143 -47q-91 -39 -229.5 -222t-299.5 -425q-252 -376 -398 -555q-212 -261 -334 -261q-34 0 -63 22q-38 30 -38 55q0 23 27 47.5t76 59.5q70 50 173 141t224 245q279 363 410.5 545t131.5 236q0 28 -34 28q-38 0 -108.5 -23.5
t-172.5 -60.5q-388 -146 -749 -230q-51 -11 -94 -11q-83 0 -130 32.5t-47 70.5q0 36 47.5 65.5t151.5 31.5q135 4 314.5 50.5t369.5 105.5q339 103 494 129q147 36 657 756q371 524 761 1134q2 1 3.5 4.5t5.5 8.5t5 7.5t2 3.5q4 4 9 14q0 1 8 13q0 1 1.5 2.5t2.5 3l3 4.5
t3.5 6.5t3.5 5.5t2.5 4.5t7 10.5t13.5 22q2 4 4 4v2l6 8v1q1 0 1.5 1t1 1.5t1 1.5t2 3t2.5 4t8 14q2 1 2 3q7 12 10 15t25 40q1 0 1 1q26 73 69 122.5t77 49.5q41 0 41 -80q0 -108 -77 -324q-85 -241 -171.5 -558t-146.5 -599t-60 -392q0 -34 7 -46q20 -7 119 -11
q176 -8 294 -28q166 -29 166 -96q0 -16 -10 -34q-8 -11 -39 -11q-50 0 -144 17q-162 27 -253 27q-177 0 -200 -99q-65 -310 -146 -816q-130 -801 -130 -1226q0 -384 115 -384q18 0 39 10q29 13 46 13q27 0 27 -23t-20 -51.5t-55 -50t-81 -21.5z" />
    <glyph glyph-name="B" unicode="B" horiz-adv-x="2561" 
d="M401 1351q83 0 208.5 126.5t262 326.5t258.5 434q278 531 298 863q0 73 -32 129t-81.5 94t-106 57.5t-105.5 19.5t-81.5 -20.5t-32.5 -60.5q0 -110 -64 -333q-96 -340 -338 -1020q-84 -238 -141 -408t-57 -207zM-117 593q308 647 542 1326.5t367 1417.5
q-284 -132 -489 -703q-144 -400 -275 -1000l-61 -259q-119 -448 -119 -650q0 -105 35 -132zM256 -974q-226 0 -377 158q-68 73 -68 189q0 93 37 190t89 179.5t102 134t76 51.5q18 0 19 -28q-1 -21 -20 -71q-97 -245 -97 -402q0 -235 226 -235q31 0 68 5q255 38 507 201.5
t482 398t417.5 483t311.5 457.5q55 92 100 224t45 264q0 109 -43 202t-147 149.5t-286 56.5q-44 0 -92 -4q-484 -41 -782 -237q-126 -82 -216 -159q-69 -57 -131.5 -99t-131.5 -56q-119 -27 -257 -354q-60 -144 -118 -297q-76 -209 -148 -361q-78 -166 -151 -166
q-71 0 -71 93q0 107 70 268l4 13q44 446 333 1762q108 494 160 708q77 298 221.5 485t322.5 273t348 86q209 0 362.5 -116t170.5 -321l1 -45q0 -313 -231 -758q-157 -302 -430 -693q307 69 454 96q184 34 359 34q263 0 409 -104q171 -122 171 -402q0 -226 -122 -504
q-102 -236 -269 -481t-375 -471t-434.5 -405.5t-450.5 -285.5t-418 -106z" />
    <glyph glyph-name="C" unicode="C" horiz-adv-x="1912" 
d="M540 -486q-5 0 -117.5 1.5t-260.5 168.5t-176 489q-5 54 -5 112q0 289 116 681q221 722 438 1163t411 643q198 206 353 206q144 0 232 -147q99 -164 99 -462q0 -242 -84 -555t-290 -670q-316 -542 -434 -542q-55 0 -55 118l1 31q206 179 357 437.5t243 538.5
q126 387 126 686q0 375 -197 375q-137 -12 -286 -169.5t-291 -415t-260.5 -569.5t-194.5 -632q-98 -408 -98 -730q0 -203 46 -357q66 -197 215 -233q48 -12 101 -12q110 0 272 63t365 199q347 232 663 531q110 104 119 117q5 7 28 7q53 0 53 -43q0 -13 -8 -38
q-23 -64 -168 -194q-193 -173 -856 -636q-240 -162 -457 -162z" />
    <glyph glyph-name="D" unicode="D" horiz-adv-x="2800" 
d="M475 -1129q-93 0 -156.5 39.5t-95.5 104t-32 141.5q0 94 49.5 189t149.5 163q10 6 17 6q14 0 14 -25q0 -41 -18 -116q-26 -139 -26 -200q0 -139 97 -139q36 0 89 21q134 53 310.5 185.5t376.5 330t402.5 442.5t386 521t326.5 567t227 579.5t84 557.5q0 147 -28 285
q-47 206 -193.5 343.5t-362.5 207t-461 69.5q-390 0 -749 -159q-383 -169 -611 -482q-254 -347 -254 -813q0 -80 8 -164q17 -199 30 -428q12 -241 33.5 -480.5t65.5 -439.5q29 36 95 227t140 449.5t128 497.5t54 358q-9 -35 -35.5 -87.5t-58 -95.5t-50.5 -43q-13 0 -14 36
q0 31 12 92q10 50 26 138q84 467 156 685q76 233 155 233q40 0 84 -68q29 -54 29 -168q0 -195 -69 -522t-170.5 -705t-204.5 -739q-93 -326 -161.5 -582.5t-88.5 -390.5q-7 -43 -33 -65t-55 -22q-32 0 -57.5 25.5t-25.5 79.5q0 31 11 71q35 138 35 312q0 170 -24.5 368
t-56.5 412q-36 239 -65.5 485.5t-29.5 482.5q0 414 119 702q138 321 390 538.5t567 328.5t631 111q198 0 383.5 -44.5t344.5 -134.5t278 -226t186.5 -320t67.5 -414q0 -652 -557 -1532q-723 -1132 -1287 -1550q-307 -229 -528 -229z" />
    <glyph glyph-name="E" unicode="E" horiz-adv-x="2802" 
d="M472 -859q-52 0 -99 7q-110 19 -173 94t-63 170q0 92 63 175q109 136 272 279q244 214 671 521q128 92 212.5 156.5t101.5 91.5q-10 9 -31 9q-31 0 -83 -14.5t-122 -36.5q-83 -27 -186 -55.5t-218.5 -49t-236.5 -20.5q-341 0 -504 183q-113 125 -113 294q0 112 55.5 233
t173.5 239q251 249 570.5 509t673 459t706.5 265q41 7 78 7q131 0 213 -74.5t82 -195.5q0 -155 -140 -330q-73 -92 -253 -241q-757 -654 -867 -654q-15 0 -16 15q0 13 13 40q49 86 429 401q126 104 383 311q44 56 92 115q52 61 99 122q106 140 106 216q0 75 -100 101
q-34 9 -76 9q-114 0 -280 -56t-359 -153.5t-391 -225t-380 -273t-326 -296.5t-228.5 -295.5t-84.5 -268.5q0 -61 23 -116q89 -197 384 -197q118 0 253 26t273 64.5t268 79.5q151 47 276 80.5t204 33.5q68 0 95 -33q7 -10 7 -23q0 -45 -81.5 -119.5t-215.5 -170t-297 -205.5
q-220 -148 -438.5 -307t-377 -313t-197.5 -286q-7 -25 -7 -46q0 -99 149 -99q109 0 275 47q450 128 1243 514q40 19 79 40q316 187 411 187q30 0 32 -25q0 -39 -93 -155q-46 -54 -109.5 -84.5t-134.5 -53.5q-63 -20 -123 -47q-110 -51 -248 -118q-393 -194 -665 -301
q-397 -156 -649 -156z" />
    <glyph glyph-name="F" unicode="F" horiz-adv-x="2342" 
d="M-51 -1090q-33 0 -61 54q-29 63 -29 162q0 124 35.5 290.5t88 347.5t107.5 354q62 196 106 353t44 236q0 31 -8 47q-44 0 -124 -31t-177 -74q-78 -34 -157 -66t-150 -53t-123 -21q-40 0 -65 15q-57 37 -57 66q0 27 41 49q61 33 258 85q129 33 263 78q314 105 359 278
l26 115q113 486 165 790q35 205 35 350q-9 2 -21 2q-48 0 -127 -25q-114 -37 -334 -132q-108 -47 -162 -66q-120 -41 -120 -109q0 -27 10 -50q7 -19 7 -33q0 -27 -50 -27q-23 0 -59 5q-21 3 -45 3q-76 0 -170 -15.5t-166 -15.5q-113 0 -113 64l1 12q24 79 887 380
q283 99 383 132q136 50 170 178q14 54 20 106q5 40 13 72q16 70 80 70l22 -2q39 -7 51 -35.5t12 -65.5q0 -26 -2 -51.5t-2 -48.5q0 -32 9.5 -53.5t40.5 -21.5q12 0 28 4q790 188 1207 188q164 0 262 -26.5t141 -72.5t43 -105q0 -76 -56.5 -163.5t-145.5 -172.5t-190 -155
t-193.5 -112.5t-154.5 -42.5q-41 2 -41 16q0 17 48.5 52.5t121.5 83t153 103.5t151 118.5t116.5 128t45.5 129.5l-1 14q-127 69 -301 69q-52 0 -103 -5q-473 -35 -741 -82t-394.5 -134.5t-175.5 -244.5t-84 -414q-49 -330 -79 -438q-45 -162 -45 -235q0 -81 50 -81
q14 0 32 6q95 32 770 195q654 157 790 176q40 5 68 5q79 0 79 -33q0 -22 -30 -50.5t-67 -50t-61 -27.5q-5 1 -14 1q-82 0 -421 -73.5t-683.5 -162t-488.5 -145.5q-54 -28 -108 -185t-101 -369.5t-78.5 -407.5t-40.5 -300q-27 -322 -91.5 -510.5t-128.5 -188.5z" />
    <glyph glyph-name="G" unicode="G" horiz-adv-x="3548" 
d="M2590 -1233q-114 0 -195 114q-96 133 -96 395q0 433 275 1139q14 34 30 68q23 48 42 102t24 121q-102 -75 -235 -178q-157 -121 -344.5 -260.5t-392 -275.5t-414 -248.5t-410 -181t-377.5 -68.5q-297 0 -469 217q-185 237 -185 565q0 249 97.5 523.5t266.5 553.5
t386.5 546t460.5 503.5t488.5 425.5t471 313t407.5 164q126 27 230 27q175 0 286.5 -69.5t165 -193.5t53.5 -288q0 -312 -178 -723q-69 -163 -103 -262q-26 -78 -45 -117t-44 -39q-21 0 -54 30q-37 35 -37 97q0 76 41.5 184.5t97.5 234.5q45 102 87.5 207t71 207.5
t28.5 194.5q0 77 -26.5 143t-87 116t-162.5 80q-71 20 -151 20q-193 0 -427 -104.5t-484 -286.5t-494 -419t-460.5 -506.5t-383.5 -548t-263.5 -544t-96.5 -490.5q0 -260 137 -428q141 -172 388 -172q412 0 1130 472q297 196 719 515q121 92 218 163q207 151 207 215
q0 45 -102 45q-97 0 -238.5 -32.5t-250 -68t-120.5 -49.5q-21 -42 -108 -42q-51 0 -105.5 15t-92.5 41t-38 57q0 63 167 116q198 63 626 99q187 19 391.5 55.5t336 57.5t284.5 21q170 0 170 -54q0 -44 -182 -86q-75 -18 -255 -65t-271 -209q-214 -405 -342 -728
q-197 -495 -197 -846q0 -210 72 -362q32 -65 111 -65q31 0 58 5q23 4 39 4q30 0 30 -22q0 -10 -6 -27q-20 -52 -66.5 -82.5t-104.5 -30.5z" />
    <glyph glyph-name="H" unicode="H" horiz-adv-x="3237" 
d="M2112 966q54 0 154 17q36 14 77 14q38 0 64 -3q19 -2 34 -2q33 0 53 20t45.5 84.5t69.5 194.5q22 65 61 204.5t96.5 306.5t101.5 324.5t76.5 261t41.5 103.5q1 0 2 -3q-1 6 -5 6q-25 0 -152.5 -177t-287.5 -425t-296 -480q-201 -343 -201 -406q0 -40 66 -40zM455 -1197
q31 0 75 28q94 67 285.5 336.5t405 610.5t373 621t189.5 367q-199 -18 -608 -99q-164 -33 -309 -58q-150 -22 -185 -166q-310 -1051 -310 -1442q0 -198 84 -198zM2282 -2800q-28 0 -93.5 51.5t-112 157.5t-79 270t-32.5 389q0 113 10 242q42 438 153 991t212 993
q110 487 110 544q-52 10 -162 10q-82 0 -157.5 -8.5t-149 -28.5t-100.5 -56q-121 -183 -336 -568q-170 -301 -360 -621t-368.5 -563.5t-310.5 -314.5q-56 -26 -104 -26q-68 0 -116.5 43.5t-75 113.5t-26.5 149q0 29 4 57q36 252 133.5 609.5t191.5 670.5q30 99 54 182
q-16 14 -55 14q-62 0 -168 -26.5t-232 -62.5q-150 -44 -298 -80t-251 -36q-132 0 -143 79q0 43 71.5 80.5t175.5 62t200 24.5q63 0 116 -13q22 0 120.5 14t219.5 46q296 77 338 206l26 94q480 1758 629 1846q37 22 79 22q36 0 70 -20.5t55 -66t21 -119.5q0 -30 -4 -66
q-31 -247 -77.5 -436t-95.5 -318.5t-89.5 -195.5t-58.5 -66q-11 0 -11 23q0 2 11 37q189 625 189 862q0 92 -31 117q-3 2 -7 2q-71 0 -330 -863q-100 -332 -210 -737q-2 -3 -2 -7q-2 -12 -5 -15q0 -7 -2 -7v-5q-6 -11 -6 -19q0 -2 -1 -3v-2l-1 -1v-3h-1q0 -4 -1 -4v-3l-1 -1
v-3l-1 -1v-2q-2 -4 -2 -7t-2 -6t-2 -6t-7 -29l-1 -1q0 -32 69 -32q94 0 242.5 28t302.5 62q168 36 284 56q59 9 120 34t104 63q46 49 253 375q419 658 911 1481q193 322 213 364q53 126 123 193t115 67q42 0 42 -51q0 -72 -94 -219q-132 -214 -312 -682.5t-321.5 -926.5
t-141.5 -583q0 -15 2 -23q106 -37 152 -57q122 -54 122 -142q0 -77 -91 -187q-41 -48 -60 -48q-22 0 -22 54q0 29 15 128q0 44 -34 74t-75 30q-70 0 -94 -86l-6 -22q-182 -687 -291 -1220q-170 -831 -170 -1404q0 -482 128 -761q32 -72 32 -110q0 -39 -28 -40z" />
    <glyph glyph-name="I" unicode="I" horiz-adv-x="1466" 
d="M-578 -1203q-76 0 -91 56q-1 5 -1 11q0 38 57.5 81t140.5 81t168 62t139 24q75 0 193 38t233 81q75 28 137.5 48t86 41.5t23.5 53.5q0 29 -12 73q-28 115 -28 214q0 81 19 190q36 187 170 757.5t279.5 1147t217.5 780.5q6 17 6 30q0 41 -59 41q-84 0 -233 -52
q-266 -93 -661 -287q-342 -169 -416 -219q-261 -183 -300 -373q-6 -21 -11 -32t-15 -11t-30 12q-65 39 -99.5 68.5t-34.5 61.5q0 49 93 123q311 257 732.5 463t873 337t853.5 164q134 -8 210 -37.5t105.5 -71t29.5 -83.5q0 -38 -16 -71.5t-37.5 -54t-37.5 -20.5t-18 27
q0 17 8.5 46.5t8.5 53.5q0 42 -23.5 65t-65 32.5t-94.5 9.5q-95 0 -253 -24q-79 -11 -149 -18q-103 -13 -139 -70t-48 -120q-5 -21 -11 -39q-40 -129 -154 -551q-297 -1101 -376 -1435q-118 -503 -118 -827q0 -161 22 -219q16 -43 78 -43q58 0 256 49q254 60 283 63
q17 0 28.5 -10.5t11.5 -24.5q0 -20 -30 -39q-18 -9 -265 -104q-264 -102 -275 -104q-208 -25 -431.5 -106t-427.5 -170q-163 -71 -293.5 -120t-209.5 -49z" />
    <glyph glyph-name="J" unicode="J" horiz-adv-x="2760" 
d="M-349 -2960q136 0 403.5 252.5t593.5 696t650.5 1028.5t586.5 1262q10 18 10 37q0 20 -23 44q-767 -631 -1387 -1355q-773 -905 -926 -1651q-16 -87 -16 -149q0 -165 108 -165zM-337 -3120q-76 0 -143 40t-109.5 119.5t-42.5 200.5q0 102 38 235q154 498 433 938.5
t613.5 811.5t656.5 661.5t562 488.5q158 132 254 218.5t109 124.5q90 305 131.5 556t41.5 453q0 523 -255 774q-225 221 -607 221q-208 0 -427 -61.5t-419.5 -164.5t-360 -232t-253 -266.5t-93.5 -265.5q0 -124 94 -216q45 -47 45 -76q0 -40 -64 -40q-36 0 -81.5 17
t-87.5 52.5t-70 90t-28 129.5q0 181 192 425q172 213 425 385.5t545 276.5t572 104q436 0 704 -270q299 -303 318 -936q0 -144 -27 -315t-55 -314q-36 -180 -36 -226q0 -26 32 -26q39 0 132.5 38.5t130.5 38.5q36 0 36 -34q0 -28 -34.5 -50.5t-86.5 -46.5q-59 -28 -127 -69
q-164 -98 -225 -263q-69 -195 -205 -505.5t-322 -681.5q-427 -851 -868 -1461q-525 -727 -949 -865q-44 -14 -89 -14z" />
    <glyph glyph-name="K" unicode="K" horiz-adv-x="2316" 
d="M156 -37q46 0 73.5 40t48 120t44.5 197q10 51 79 367q18 64 18 104q0 39 -26 39q-69 0 -381 -294q-203 -189 -203 -317q0 -155 304 -249q24 -7 43 -7zM165 -1430q-68 0 -111 86q-47 93 -47 251q0 132 30 264.5t65 249.5q25 86 42.5 157.5t17.5 122.5q0 78 -53 97
q-495 174 -495 415q0 89 59 182q104 165 374 377q123 96 347 264q86 65 117.5 141t52.5 193q14 71 38 167q26 114 63 336q70 400 114 583q73 300 140 300q93 -4 93 -151q0 -76 -21 -180t-53.5 -221t-67.5 -236q-49 -164 -86 -307.5t-37 -230.5q0 -59 22 -84q410 296 758 586
t691 591q274 241 578 499q159 133 291 133q73 0 115 -39t42 -92q0 -41 -29 -83.5t-92 -74.5q-12 -6 -20 -6q-13 0 -17.5 12.5t-6.5 29.5q-3 23 -11 42t-36 19q-88 0 -404 -272q-623 -540 -966 -826q-392 -328 -942 -749q-52 -45 -108 -210q-97 -288 -187 -735
q-33 -161 -37 -198q0 -35 20 -49q27 -20 121 -35q64 -9 400 -73q284 -55 544.5 -94.5t599.5 -56.5q17 -1 36 -17t19 -36q0 -17 -22.5 -34t-79 -28t-159.5 -11q-113 0 -291 17q-234 28 -523 88q-177 36 -336.5 63t-265.5 27q-129 0 -142 -51q-16 -65 -39 -150
q-28 -102 -56 -216q-69 -274 -69 -423q0 -190 112 -190h17q30 0 30 -21q0 -22 -20 -48t-51.5 -45.5t-67.5 -19.5z" />
    <glyph glyph-name="L" unicode="L" horiz-adv-x="2508" 
d="M-1334 -1555q-108 0 -108 73l2 18q12 40 108.5 96.5t213 102t173.5 45.5l24 -1q142 0 657 242q213 100 403 192q186 91 296 141q146 59 164 213q47 286 202 1049.5t327 1535t272 1079.5q22 64 74 64q34 0 63 -38t29 -117q0 -62 -25 -150q-43 -152 -73 -310
q-30 -152 -65 -270t-94 -163q-14 -24 -98 -377.5t-189 -838.5t-186 -912t-81 -566q0 -36 7 -46q34 9 198 71q422 157 693 245q458 148 656 148q139 0 139 -77t-144 -233q-68 -74 -114 -74q-30 0 -32 40q0 37 34 106q7 14 7 24q0 30 -54 30q-173 0 -768 -222
q-386 -145 -598 -237q-65 -32 -89.5 -113.5t-34.5 -171.5q-17 -134 -45 -179q-19 -29 -62 -29q-34 4 -34 52q0 41 16 101q17 75 17 117q0 80 -69 80q-53 0 -166 -52q-486 -262 -941 -463q-509 -225 -705 -225z" />
    <glyph glyph-name="M" unicode="M" horiz-adv-x="4374" 
d="M480 -516q-20 0 -38 12.5t-18 63.5q0 110 67 369t165 601q194 681 292 1101q146 624 146 977q0 141 -25.5 245t-82 161t-149.5 57q-76 0 -179 -42q-192 -83 -383.5 -254t-351.5 -371.5t-258 -372.5t-98 -246q0 -14 4 -24q72 -41 120 -70q120 -76 120 -106q0 -15 -40 -16
q-134 9 -259 53q-156 54 -156 144q0 42 40 95q52 67 136 193q269 407 518 678q366 396 736 465q39 6 73 6q130 0 207.5 -82t111.5 -227.5t34 -334.5q0 -274 -56 -607t-137.5 -663.5t-165 -608t-143.5 -449.5t-72 -186q9 -5 19 -5q45 0 100.5 69t124 187.5t149.5 269.5
q111 209 248 442.5t302 449t361 370.5q98 74 155 74q95 0 95 -195q0 -119 -30.5 -289t-75.5 -360.5t-93 -377.5q-57 -224 -98.5 -405.5t-41.5 -270.5q0 -50 18 -64q13 0 237 404q343 607 492 859q737 1240 981 1240q40 0 68 -34q46 -59 46 -183q0 -113 -24.5 -307.5
t-58.5 -429.5q-43 -298 -80 -601.5t-37 -528.5q0 -107 11.5 -188t38.5 -125.5t72 -44.5q17 0 37 7q7 7 18 10.5t35.5 20t71 64.5t124.5 146q38 45 60 45q30 0 31 -62q0 -58 -34.5 -147t-108.5 -169.5t-191 -122.5q-40 -13 -75 -13q-246 0 -246 638q0 239 29 504
q47 443 133 883l26 132q1 30 4 60q5 37 5 75q0 53 -21 105q-157 -13 -543 -646q-261 -426 -668 -1189q-249 -468 -339 -601q-21 -28 -57 -47.5t-76 -19.5q-37 0 -70.5 23t-55 78t-21.5 151q0 122 45 320q33 136 94 348q48 171 96.5 353t81.5 341t33 255q0 103 -46 103
q-69 0 -243 -233q-200 -272 -376 -570t-326 -572q-123 -223 -227.5 -400.5t-189 -282t-147.5 -104.5z" />
    <glyph glyph-name="N" unicode="N" horiz-adv-x="3092" 
d="M2281 -514q-134 0 -242 153q-154 225 -154 681q0 423 123 1018q79 386 221 923l45 174q32 123 32 201q0 30 -4 60q-4 1 -9 1q-37 0 -112 -73q-139 -136 -345 -412q-158 -212 -243 -336q-140 -204 -320.5 -524.5t-368.5 -667.5q-215 -398 -393 -707.5t-268 -398.5
q-92 -82 -178 -82q-57 0 -101.5 33t-70.5 85t-29 113l-1 43q0 412 410 1874q12 45 59 255q138 617 138 749q0 18 -4 24q-14 -6 -66.5 -63.5t-123 -147.5t-138.5 -194.5t-114 -204.5t-46 -175q0 -32 11 -58q4 -9 4 -17q0 -19 -17.5 -28.5t-42.5 -9.5q-31 0 -65.5 15.5
t-58.5 48t-24 85.5q0 95 92 224q612 845 628 871q7 13 27 23.5t44 10.5q22 0 44 -14t36 -49t14 -98q0 -64 -19 -161q-65 -311 -196 -853q-96 -401 -192.5 -821.5t-163 -769t-66.5 -515.5l1 -37q7 -74 40 -74q74 0 273 326q101 167 283 505q39 74 50 93q193 317 367 632
q169 306 350 604t402.5 584t513.5 555q52 46 99 46q40 0 68 -37t28 -116q0 -43 -10 -98q-34 -171 -106 -472q-144 -599 -219 -997q-117 -617 -117 -1005q0 -372 110 -536q53 -74 120 -74q103 0 254 162q99 106 273 340q72 99 139 183q149 187 219 187q25 0 44 -23
q7 -10 7 -23q0 -29 -26 -72q-40 -66 -143 -187q-71 -85 -148 -195q-156 -226 -280 -357q-189 -199 -344 -199z" />
    <glyph glyph-name="O" unicode="O" horiz-adv-x="2181" 
d="M550 -794q-243 0 -404 235q-143 209 -176 500q-12 98 -12 284q0 298 33 584q40 345 125 557q99 249 253 249q244 -20 244 -381q0 -118 -23.5 -231t-56 -187t-59.5 -74q-5 0 -11.5 4t-14.5 11.5t-8 13.5q12 45 20 134t8 188q0 85 -7.5 163t-24.5 127t-46 49
q-48 0 -121 -155q-83 -180 -124.5 -408.5t-41.5 -468.5q0 -229 37.5 -447.5t110.5 -393.5q44 -101 118.5 -148.5t165.5 -47.5q139 0 295 97t285 270q177 239 339 540t290.5 638t204 686.5t75.5 680.5q0 293 -69 559q-35 124 -136 185t-246 61q-214 0 -488.5 -129t-542 -379
t-472.5 -617q-107 -199 -107 -308q0 -42 12.5 -68.5t30.5 -43.5t34 -28.5t26.5 -21t10.5 -22.5q0 -8 -5 -18q-22 -37 -64 -37q-40 0 -85.5 31t-77.5 89.5t-32 143.5q0 139 104 304q144 230 308 441.5t372 386.5q213 177 442 288q273 132 520 132q108 0 216 -28
q137 -39 222.5 -152t125 -285t39.5 -386q0 -326 -80.5 -716.5t-220.5 -782t-321 -733t-384.5 -579.5t-411.5 -319q-104 -37 -194 -37z" />
    <glyph glyph-name="P" unicode="P" horiz-adv-x="2615" 
d="M897 -42q238 93 742 692q432 512 800 1051q463 678 463 1123q0 292 -204 436q-186 131 -505 131q-210 0 -444.5 -55.5t-458.5 -152.5q93 -86 93 -214q0 -37 -6 -76q-66 -435 -165 -999q-133 -751 -203 -1263q-3 -23 -41 -244q-71 -399 -71 -429zM537 -1580
q-20 0 -47.5 23.5t-39 65.5t-11.5 98q0 124 29 296.5t78 349.5q42 152 73.5 282t31.5 210q0 34 15 57q-10 27 -10 52t9.5 52t24.5 63q37 148 99 447q166 745 175.5 896t9.5 240q0 188 30 400q28 204 117 732q69 406 88 429q-15 9 -38 9q-60 0 -167.5 -53.5t-241.5 -149
t-277.5 -223.5t-279 -278.5t-244 -314.5t-173.5 -331t-65 -326q0 -203 120 -368q109 -148 109 -216q0 -37 -32 -37q-36 0 -93.5 42.5t-114.5 123.5q-137 195 -137 454q0 209 102 436q177 378 472.5 680.5t654.5 516.5t728 328.5t684 114.5q375 0 594 -160q235 -173 235 -508
q0 -583 -722 -1543q-301 -403 -660 -816q-476 -546 -766 -700q-151 -88 -280 -977q-11 -63 -14 -148q-1 -58 -6 -114q-12 -135 -60 -135z" />
    <glyph glyph-name="Q" unicode="Q" horiz-adv-x="2197" 
d="M490 -807q138 0 281 126q19 17 19 59q0 34 -10 84t-24 116q-19 83 -39.5 190.5t-35 238.5t-14.5 285q6 494 46 882q33 322 114.5 633.5t238.5 761.5q24 73 24 127q0 56 -23 87.5t-65 31.5q-57 0 -143 -70q-195 -159 -390 -637q-229 -564 -375 -1492q-58 -366 -68 -690
q-6 -36 -6 -77q0 -101 34 -215t96.5 -213.5t148.5 -163.5t191 -64zM978 -466q69 0 197 187t341 599q71 138 177.5 391t224 571t221 649.5t170 627.5t66.5 496q0 88 -15 152q-34 134 -105.5 194.5t-165.5 60.5q-121 0 -261.5 -82.5t-268 -220t-216 -306t-110.5 -343.5
q-2 -1 -42 -82t-99 -240q-148 -395 -219 -932q-41 -306 -41 -727q12 -387 23 -571q11 -201 38 -312.5t85 -111.5zM1684 -1565q-175 0 -363 141q-238 177 -451 588q-247 -109 -437 -109q-131 0 -226 49q-335 173 -335 866q0 357 81 745q40 204 104 467q98 408 220 773
q152 455 316 725q196 320 394 320q73 0 149 -47q46 -30 76 -30t50.5 29t47.5 83q37 77 117 195t243 264q154 125 357 125q201 0 331 -129q151 -150 151 -449q0 -300 -217 -1051q-134 -461 -321.5 -953.5t-409 -923t-458.5 -707.5q-51 -62 -51 -155q0 -118 86 -263.5
t261.5 -272t443.5 -197.5q16 -5 16 -15q0 -19 -47 -43.5t-128 -24.5z" />
    <glyph glyph-name="R" unicode="R" horiz-adv-x="3464" 
d="M668 -1584q-117 0 -117 252q0 122 16.5 259t33.5 233t22 108q8 20 8 39q0 32 -22 78q10 48 10 74q0 19 9 38q107 254 200.5 563t126.5 602l-4 1q-15 0 -23 137q0 160 271 876q66 282 118 545q84 410 128 559q67 229 137 229q67 -11 67 -105q0 -67 -27 -151
q-114 -380 -438 -1793q-169 -737 -294 -1241q334 183 1059 849q314 289 573 559t420 458q165 189 299 349q273 326 441 603q215 356 215 606q0 266 -255.5 402t-813.5 136q-319 0 -749.5 -70t-851.5 -213t-778 -363t-592.5 -520.5t-290.5 -684.5l-1 -20q0 -60 33.5 -142.5
t81.5 -170.5t95 -167q44 -75 73.5 -129.5t29.5 -76.5q0 -12 -10 -12q-13 0 -46 20q-209 132 -306.5 306.5t-97.5 372.5q0 287 183.5 590.5t506.5 560.5t750 417q442 164 948 291q662 166 1174 166q709 0 998 -341q109 -130 109 -320q0 -608 -1092 -1774
q-699 -748 -1695 -1580q-239 -199 -260.5 -212t-39 -31.5t-17.5 -62.5q61 -14 121 -14q77 0 242 31q107 21 256 40.5t364 19.5q602 0 1525 -208q33 -7 96 -15q245 -27 245 -65q0 -30 -159 -71q-33 -8 -80 -8q-83 0 -203.5 21t-271 51.5t-324.5 62t-363.5 53t-385.5 21.5
q-186 0 -373 -26q-300 -43 -578 -57q-158 -7 -228.5 -26.5t-92.5 -91t-42 -303.5q-10 -95 -10 -119q0 -66 26 -182q18 -80 18 -110q0 -71 -72 -98q-13 -5 -25 -5z" />
    <glyph glyph-name="S" unicode="S" horiz-adv-x="1595" 
d="M-55 -1107q203 0 424 83q177 66 330.5 173.5t251.5 242.5q108 148 108 305q0 138 -103 275q-62 84 -108 84q-2 0 -27.5 -2t-106.5 -67q-51 -38 -131 -88q-121 -75 -299 -228t-324.5 -318t-171.5 -275q-6 -37 -6 -66q0 -77 43 -98t120 -21zM4 -1266q-279 0 -392 159
q-38 55 -38 114q0 54 31 112q136 232 300.5 405t326 296.5t286.5 206.5q148 97 199 153q-10 27 -49 66t-98 91q-97 85 -212.5 205.5t-209.5 281.5t-127 365q-10 65 -10 134q0 150 47 321q119 405 291.5 679.5t364.5 415.5t366 141q169 0 286 -139.5t144 -427.5q5 -62 5 -111
q0 -124 -31 -184q-26 -49 -61 -49q-8 0 -19 5.5t-12 18.5q0 155 -12 304q-27 330 -187 410q-39 20 -90 20q-70 0 -165 -38q-148 -66 -271 -206q-230 -262 -377 -682q-110 -311 -110 -494q0 -376 383 -762q99 -101 261 -248q25 -21 68 -21q13 0 51 5q67 7 271 91
q177 72 225 72q32 0 39 -21q0 -27 -60 -59t-147 -70t-160.5 -76.5t-96.5 -74.5q12 -35 59 -95q51 -66 102 -160q53 -101 53 -227q0 -280 -403 -600q-288 -218 -537 -285q-156 -42 -284 -42z" />
    <glyph glyph-name="T" unicode="T" horiz-adv-x="2276" 
d="M1620 -989q-69 0 -145.5 55t-143 152.5t-108.5 228t-42 282.5l1 49q5 114 92 721q91 639 124 765q124 422 210 688q63 198 98.5 322t35.5 187q0 73 -55 73q-53 0 -140.5 -33.5t-221.5 -92.5q-139 -60 -716 -297q-590 -244 -686 -305q-19 -14 -19 -32q0 -28 49 -82
q37 -42 37 -58q0 -24 -63 -24q-97 5 -119 5q-131 0 -255 -22.5t-233 -47.5q-82 -19 -151.5 -32.5t-124.5 -13.5q-87 0 -124 44q-26 32 -26 56q0 31 34.5 49.5t85.5 29.5t104 19q38 6 69 12q147 34 475 167.5t731 307.5q393 169 759.5 319.5t607.5 226.5q25 9 52.5 45.5
t56.5 82.5q34 54 67 97t64 43q43 0 72 -101q10 -26 61 -26q56 0 151 23t214.5 55.5t250.5 64.5t262.5 54t250.5 22q323 0 323 -163q0 -184 -397 -550q-165 -152 -339 -285q-1 -1 -4.5 -2.5t-4 -3t-1 -2t-2 -2.5t-3 -2.5t-2 -1t-1.5 -0.5v-1h-2q0 -1 -1 -1q-5 -3 -5.5 -4
t-1.5 -1.5t-2 -1.5q-22 -18 -27 -21q-26 -15 -51 -15q-27 0 -47 14.5t-20 38.5q0 28 37 67q141 135 266 250q120 111 213 200.5t146.5 156t53.5 106.5q0 58 -130 59q-82 0 -279 -32q-363 -51 -611 -124q-349 -102 -414 -272q-50 -141 -123 -374q-181 -574 -307 -1130
q-164 -720 -164 -1176q0 -325 88 -499q59 -106 133 -132q68 -24 124 -24q31 -1 47.5 -4.5t16.5 -18.5q0 -16 -20 -49q-48 -79 -131 -79z" />
    <glyph glyph-name="U" unicode="U" horiz-adv-x="2420" 
d="M189 -952q-141 0 -255 180q-49 82 -49 284q0 409 179 1239q124 576 248 1030l-5 11l2 -15q-20 -5 -63.5 -58.5t-59.5 -53.5q-17 0 -17 70q4 94 85 329q85 248 185 428q119 213 207 213q64 0 64 -90q0 -54 -19 -128q-27 -106 -94 -289q-74 -193 -182 -609
q-86 -326 -166 -703q-188 -878 -188 -1334q0 -353 125 -353q151 0 482 524q256 404 741 1368q258 517 541 1033q11 18 40.5 39t61.5 21q70 0 70 -131q0 -74 -27 -203q-12 -51 -43 -174q-131 -519 -221 -948q-141 -668 -141 -1013q0 -313 125 -313q32 0 75 22q72 36 107 36
q38 0 38 -32q0 -34 -33.5 -79.5t-88.5 -80.5t-120 -35q-120 0 -213 141q-64 102 -64 341q0 226 46.5 517t107.5 571t111 488q28 118 45 195q-59 -18 -169.5 -224t-258.5 -517q-88 -180 -184 -374.5t-198.5 -384.5t-208 -358.5t-211.5 -298.5t-208.5 -205.5t-198.5 -75.5z
" />
    <glyph glyph-name="V" unicode="V" horiz-adv-x="2472" 
d="M805 -878q-101 0 -183 73t-130 207t-48 324q3 202 29.5 478.5t61.5 590.5q40 363 73 715t33 614q0 206 -29 329q-34 127 -113 127q-100 0 -258 -192q-125 -153 -257 -377q-108 -185 -134 -256q-13 -50 -18 -138q-3 -50 -8 -95q-11 -105 -47 -105q-17 0 -42 25
q-62 66 -62 182q0 119 58.5 268t153.5 298.5t209.5 274.5t230 202.5t210.5 77.5q165 0 211 -256q14 -91 20 -216q6 -89 6 -162q0 -187 -22.5 -449.5t-53.5 -558.5q-34 -331 -62 -657.5t-28 -588.5q0 -170 16.5 -299t55 -201t104.5 -72q54 0 129 54q119 96 322.5 436.5
t437 803t444 924.5t347 804.5t136.5 423.5l-1 19q0 50 21.5 93t52 69t59.5 26q59 0 59 -107q0 -180 -182 -580q-65 -143 -174 -390q-376 -862 -675 -1475q-432 -885 -680 -1133q-137 -131 -273 -131z" />
    <glyph glyph-name="W" unicode="W" horiz-adv-x="2879" 
d="M-30 -785q-22 0 -42 7q-180 70 -180 398q0 125 22 266q31 208 111 532q22 90 38 161q76 352 227 869q254 873 407 873q20 0 39.5 -9.5t32.5 -33.5t13 -66q0 -40 -15 -99q-90 -346 -263 -872q-72 -222 -125 -301q-34 -51 -70 -59q-10 -2 -18 -7q-26 -18 -135 -522
q-107 -483 -107 -745q0 -115 25 -187q17 -40 46 -40q96 0 327 398q290 501 747 1516q54 118 58 125q20 20 47 20q32 0 61 -28t29 -88q0 -39 -18 -92q-126 -366 -126 -773q0 -164 22.5 -309t66 -254t106.5 -171.5t143 -62.5q144 0 317 213q202 256 371 607.5t273.5 702.5
t104.5 583q0 276 -155 276q-42 0 -72 -59q-29 -55 -52 -119q-18 -48 -34.5 -82.5t-32.5 -34.5t-32 39q-42 108 -42 191q0 80 31.5 135.5t83.5 84t112 28.5q61 0 123 -30t113.5 -92.5t83 -158.5t31.5 -228q0 -134 -40 -307q-40 -163 -137 -441q-118 -335 -265 -638
q-175 -360 -359 -575q-214 -249 -418 -249q-145 0 -279 128q-141 137 -188 361q-33 153 -33 396l1 97q0 109 -9 210q-3 26 -11 26q-11 0 -40 -79q-83 -222 -223 -515q-178 -371 -346 -617q-204 -299 -346 -299z" />
    <glyph glyph-name="X" unicode="X" horiz-adv-x="3208" 
d="M292 -1886q-65 0 -138.5 24.5t-138 79t-105.5 144t-41 221.5q0 227 139 538q109 239 341 625q80 134 147 252q148 264 148 371q0 33 -13 56q-140 255 -253 528.5t-221 562.5q-100 267 -212 544t-255 562q-27 57 -27 93q0 53 49 55q47 0 127 -65t174 -211
q255 -404 255 -472q0 -23 -23 -23q-16 0 -36 6q-25 7 -46 7l-14 -1l12 -36q65 -205 160 -472q133 -377 252 -632q146 -315 230 -315q24 0 42 27q353 539 440 670q379 570 732 1025q444 571 841 913q459 394 806 394q47 0 94 -8q298 -53 298 -397q0 -92 -17 -186
q-114 -692 -321 -1363q-34 -63 -47 -63q-10 0 -10 31q0 87 69 387q48 217 73 309q124 535 124 860q0 72 -11 132.5t-54.5 96.5t-140.5 36q-81 0 -206 -29q-790 -204 -2163 -2284q-458 -694 -458 -731q0 -54 45.5 -148.5t128 -208t192 -227t237 -208.5t265.5 -153.5
t276 -58.5q187 0 342 122q108 87 185.5 178.5t139.5 177.5q142 197 181 197q18 0 18 -32q0 -37 -27.5 -111t-80.5 -165t-130 -184t-176.5 -171t-220 -127t-259.5 -49q-471 0 -971 614q-46 59 -81 120q-33 56 -64.5 95.5t-70.5 39.5q-84 0 -291 -311q-120 -179 -232.5 -396
t-187 -424.5t-74.5 -347.5q0 -31 4 -58q43 -228 202 -276q65 -19 120 -24q41 -4 66 -11.5t25 -31.5q0 -39 -51 -61q-46 -22 -112 -22z" />
    <glyph glyph-name="Y" unicode="Y" horiz-adv-x="2213" 
d="M1106 -2534q-40 0 -78.5 31.5t-63.5 106.5t-25 203l1 52q11 82 16 129t6.5 75t2.5 52q1 34 6 97q27 26 36 60t12 74q35 249 195.5 928.5t344.5 1428.5q221 900 320 1343q11 50 23 95q20 71 20 98q0 14 -8 15q-23 0 -151 -175q-112 -159 -198 -305q-41 -67 -61 -97
q-266 -384 -537 -793q-376 -573 -751 -1097q-43 -57 -120 -102t-151 -45q-44 0 -80 21t-57.5 69t-21.5 129q0 133 72 367q51 152 123 354q188 520 277 831q143 496 143 808q0 181 -53 313q-56 125 -145 125q-62 0 -130 -52.5t-134 -132t-121.5 -165t-93.5 -153.5t-51 -98
q-6 -18 -15 -71q-6 -45 -16 -93.5t-26.5 -84t-42.5 -35.5q-19 0 -44 26q-58 65 -58 162q0 101 52 217.5t129.5 227t157.5 198t139 133.5q113 84 230 84q100 0 188.5 -62.5t143 -190t54.5 -320.5q0 -45 -3 -92q-27 -311 -143.5 -718.5t-242.5 -788.5q-87 -267 -147 -468.5
t-60 -285.5q0 -50 25 -51q76 0 414 479q299 427 981 1439q777 1152 850 1310q14 33 42 50t58 17q31 0 55.5 -20.5t24.5 -63.5q0 -41 -30 -104q-159 -330 -334 -941q-267 -939 -622 -2545q-153 -673 -170 -751q-94 -427 -94 -608q0 -41 7 -65q29 9 56 58t53.5 112t52.5 112
t55 49q42 0 42 -79q0 -89 -42.5 -241t-90 -290.5t-72.5 -204.5q-15 -41 -49.5 -65.5t-74.5 -24.5z" />
    <glyph glyph-name="Z" unicode="Z" horiz-adv-x="3289" 
d="M-978 -1188q75 0 233 77q267 131 649 377q180 116 211 137q474 301 474 408q0 7 -2 14q-36 -27 -160.5 -88t-273.5 -132q-228 -107 -344 -169q-339 -191 -569 -346q-266 -180 -266 -246q0 -6 2 -11q11 -21 46 -21zM-1159 -1396q-56 0 -107 13q-113 31 -113 105
q0 47 39 100q65 90 175 174q688 518 1413 831q299 129 517 209q264 97 375 164q113 80 319 296t402 442.5t280 337.5q463 619 463 1064q0 334 -254 517q-243 175 -648 175q-236 0 -504 -64t-547 -194q-111 -50 -209.5 -118t-172.5 -170q-61 -86 -61 -151q0 -40 17 -66.5
t38 -47.5q14 -17 25 -32t11 -32q0 -18 -17.5 -40t-45.5 -22q-40 0 -87.5 42t-81.5 109.5t-34 143.5q0 98 65 174q88 105 189 192t234 142q231 94 412 159q174 62 352.5 102.5t364.5 40.5q343 0 669 -164q154 -79 252 -191q188 -217 188 -531q0 -311 -175 -634
q-215 -389 -469.5 -688t-549.5 -596l-85 -88l19 -27l94 24q1177 314 1611 314q214 0 214 -81q0 -33 -39 -61.5t-84 -28.5q-15 0 -29 4q-46 12 -117 12q-279 0 -915 -150q-462 -109 -801 -209q-188 -58 -381.5 -191t-409.5 -306q-191 -152 -410 -311t-478 -301
q-79 -43 -167 -94q-121 -71 -249 -139q-301 -159 -497 -159z" />
    <glyph glyph-name="bracketleft" unicode="[" horiz-adv-x="994" 
d="M257 -1279q-109 0 -225.5 22.5t-192.5 124.5q-72 96 -72 281q0 10 1.5 115.5t94.5 431.5q221 774 338 1341t241 1298l33 192q24 134 82 293.5t141 303.5t183 232q90 79 185 79q11 0 70 -5t165 -152q74 -111 74 -181q0 -2 -1 -38.5t-38 -56.5q-12 -7 -23 -7q-23 0 -43 27
q-11 18 -23 40q-25 46 -57 88.5t-74 56.5q-12 4 -24 4q-34 0 -75 -28q-157 -120 -260 -382t-174 -606.5t-130 -711.5q-47 -287 -98.5 -555.5t-117.5 -489.5q-38 -125 -103.5 -369.5t-120.5 -492.5q-65 -290 -65 -407q0 -244 218 -286q70 -14 151 -14q111 0 318 31
q154 25 262 25q106 0 130 -62v-5q0 -53 -236 -88q-176 -27 -358 -40q-11 0 -19 -1q-84 -8 -157 -8z" />
    <glyph glyph-name="backslash" unicode="\" horiz-adv-x="569" 
d="M-89 -1469q-141 0 -212 160q-34 76 -34 203q0 36 7 145.5t104 394.5q112 318 293.5 710.5t383.5 805.5q175 359 332 695.5t264 614t133 459.5q10 63 49 87q19 11 38 11q21 0 51.5 -19.5t43.5 -103.5q4 -20 4 -45q0 -199 -300 -828q-152 -317 -334 -682
q-419 -836 -619 -1305q-276 -648 -276 -956q0 -17 4 -110t121 -147q43 -21 43 -42q0 -6 -10 -23t-67 -24q-9 -1 -19 -1z" />
    <glyph glyph-name="bracketright" unicode="]" horiz-adv-x="1810" 
d="M-270 -1096q-79 0 -126 21q-64 28 -64 64q0 2 1.5 22.5t84.5 33.5q385 52 629 71q199 14 286 34.5t107 82t20 205.5q0 152 25.5 407t124.5 669q149 603 237 1092t165 996q45 290 98 617q7 43 7 77q0 52 -23 88.5t-93 40.5q-19 1 -40 1q-59 0 -137 -8q-114 -12 -271 -12
q-148 0 -325 41q-57 15 -98.5 51t-41.5 71v20q1 19 77 31q19 3 44 3q77 0 214 -26q111 -21 256 -21q63 0 124 3q52 3 100 3q90 0 186.5 -13t153.5 -99q39 -59 39 -171q0 -54 -9 -119q-116 -812 -226 -1381t-267 -1279q-20 -90 -40 -185q-111 -524 -111 -944
q-1 -139 -15.5 -217.5t-72 -118t-188 -60.5t-363.5 -44q-166 -17 -394 -43q-40 -4 -74 -4z" />
    <glyph glyph-name="asciicircum" unicode="^" horiz-adv-x="1296" 
d="M1138 1539h-5q-116 0 -197 222q-37 167 -132.5 367t-160.5 235q-20 11 -38 11q-44 0 -89 -64.5t-104 -201.5q-44 -98 -99.5 -203t-129.5 -198q-53 -60 -94 -60q-7 0 -27 2.5t-35 47.5q-5 16 -5 33q0 32 17 68q46 89 94 193q71 155 151 299.5t172 224.5q61 55 133 55
q32 0 66 -13q136 -27 312 -345q121 -219 170 -326q48 -112 82 -185q13 -30 13 -57q0 -89 -94 -105z" />
    <glyph glyph-name="underscore" unicode="_" horiz-adv-x="1317" 
d="M172 -247q-60 0 -79 6q-83 34 -83 95q0 16 11 37t41 25q39 2 122 9q578 45 806 45q145 0 188 -19q47 -28 59 -79q3 -11 3 -21q0 -37 -35 -62q-23 -17 -66 -17q-40 0 -99 15q-204 -1 -492 -19q-278 -15 -376 -15z" />
    <glyph glyph-name="grave" unicode="`" horiz-adv-x="429" 
d="M292 1624q-14 0 -42 9q-30 28 -114.5 162.5t-105.5 182.5q0 22 17 46q21 29 59 29q59 -6 142 -141t109 -172q16 -24 16 -43q0 -34 -46 -63q-16 -10 -35 -10z" />
    <glyph glyph-name="a" unicode="a" horiz-adv-x="1209" 
d="M17 141q7 0 41 48q11 16 26 35q58 77 113 156q13 17 28 34q50 52 50 95q0 41 -18 41q-38 0 -123 -132q-63 -91 -99 -191q-20 -67 -20 -82q0 -4 2 -4zM-100 -164q-52 0 -108.5 42t-56.5 103q0 29 13 62q132 328 327 622q64 92 152 92q54 0 115 -43q48 -34 69 -34
q15 0 31.5 15t98.5 113q63 70 113 70q68 0 68 -106q0 -22 -3 -49q-29 -178 -29 -330v-61q0 -54 23 -118q21 -60 89 -60q5 0 44.5 2t161.5 146t169 205q78 101 112 101q21 0 42 -26q8 -11 8 -27q0 -50 -89.5 -168t-127.5 -169q-47 -64 -106.5 -127.5t-133.5 -96.5
q-43 -20 -93 -20q-35 0 -73 10q-91 29 -134.5 94t-58 148t-19.5 163q-2 35 -5 67l-10 1q-52 0 -110.5 -74.5t-126.5 -188.5q-67 -110 -139.5 -208t-152.5 -136q-30 -14 -60 -14z" />
    <glyph glyph-name="b" unicode="b" horiz-adv-x="1355" 
d="M343 2087q14 0 165 386q142 366 142 479q0 25 -7 40q-62 -26 -96.5 -95t-61.5 -157q-18 -53 -77 -302q-66 -279 -68 -340q0 -11 3 -11zM376 -296q-44 0 -103.5 40.5t-120.5 151t-99.5 240t-45.5 240.5q-8 140 -8 282q0 529 115 1192q37 227 101 505q150 660 305 885
q43 52 108 52q10 0 54 -5t100 -72q39 -48 39 -120q0 -29 -6 -62q-58 -249 -151.5 -496t-193.5 -482q-115 -269 -199.5 -507t-96.5 -429l-7 -116q-14 -212 -14 -389q0 -188 32 -367t127 -297q49 -57 89 -57q12 0 42 15t64.5 90t70.5 187q35 91 35 130q0 21 -13.5 49.5
t-73.5 74.5q-65 49 -163 165q-21 30 -21 56q0 62 86 76q13 2 26 2q45 0 94 -25q300 -163 551 -170l65 -1q61 0 108 4q39 4 67 4q114 -5 114 -69q0 -48 -101 -83q-71 -20 -136 -20q-80 0 -178 20q-62 15 -112 15q-26 0 -70.5 -7t-78.5 -107l-23 -76q-44 -157 -108.5 -290
t-196.5 -210q-37 -19 -73 -19z" />
    <glyph glyph-name="c" unicode="c" horiz-adv-x="1110" 
d="M270 -52q-116 0 -199.5 71.5t-104.5 217.5q-6 39 -6 80q0 294 236 578q72 80 169 80q71 0 132.5 -45t75.5 -132q2 -13 2 -27q0 -78 -62 -175q-17 -22 -41 -22q-17 0 -32.5 10t-19.5 29q-1 12 -1 55q0 126 -37 126q-11 0 -26 -10q-74 -53 -126 -160q-72 -147 -72 -290
q0 -70 25 -147t115 -99q18 -5 40 -5q82 0 210 70q372 234 483 337q29 27 90 68q43 18 68 18q38 0 38 -39q-27 -59 -164 -171t-203 -160q-103 -76 -233.5 -150.5t-286.5 -102.5q-36 -5 -70 -5z" />
    <glyph glyph-name="d" unicode="d" horiz-adv-x="1527" 
d="M-56 -40q119 60 231.5 213.5t188 315t75.5 224.5q0 26 -16 27q-75 0 -413 -532q-25 -39 -46.5 -99.5t-21.5 -117.5q0 -16 2 -31zM925 -236q-73 0 -134 62q-111 124 -111 376q0 137 24.5 284t51.5 279q31 143 44 246q-6 -20 -41 -95.5t-92.5 -187.5t-132 -240.5
t-158.5 -254t-171.5 -229.5t-172.5 -167t-160 -63q-55 0 -103 42q-42 42 -42 118q0 94 52.5 224.5t136.5 269.5t183.5 263.5t196.5 210.5l16 14q59 53 96.5 80t74.5 27q46 0 132 -55q75 70 155.5 291t152.5 505t122 542t64 401q8 69 31.5 102.5t53.5 33.5q27 0 53.5 -27.5
t44 -80t17.5 -129.5q0 -134 -59 -294q-17 -49 -77 -287t-132 -571q-179 -828 -179 -1235q0 -290 103 -290q37 0 90 40q92 73 190 197t185 245q162 231 201 231q21 0 36.5 -25t15.5 -63q0 -53 -34 -104q-465 -686 -724 -686z" />
    <glyph glyph-name="e" unicode="e" horiz-adv-x="1053" 
d="M114 316q16 0 93 72q138 127 186 235q14 30 14 55q0 23 -13 42q-11 15 -26 15q-19 0 -40 -16q-173 -126 -238 -331q-3 -12 -3 -24q3 -48 27 -48zM283 -101q-61 0 -149 32t-155 227q-29 86 -29 175q0 113 46 229q100 182 195 277q79 79 169 79q37 0 76 -13
q119 -43 119 -162q0 -63 -35 -141q-55 -130 -135 -241t-201 -189q-27 -19 -27 -44q0 -1 1.5 -15t30.5 -32q62 -35 126 -35q55 0 112 27q214 92 372.5 226t248.5 242q45 48 85 48q33 0 48 -25q8 -13 8 -30q0 -99 -306 -343q-366 -292 -600 -292z" />
    <glyph glyph-name="f" unicode="f" horiz-adv-x="949" 
d="M-103 -1666q22 59 67 221.5t94 373.5q101 440 101 687q0 36 -5.5 121.5t-74.5 105.5q-33 -203 -69 -405q-48 -272 -89.5 -545t-62.5 -548l14 -4q13 -3 25 -7zM-154 -2047q-101 5 -134 131q-21 85 -21 204q0 60 10 198q18 246 142 858q105 523 105 643q0 11 -22 49
q-24 43 -24 164q0 92 22 108t35 61.5t58 228t189 548.5q89 173 126 219q38 40 65 40q44 0 57 -76q2 -16 2 -33q0 -38 -12 -77q-136 -395 -167 -494q-59 -184 -101 -374q-4 -24 -4 -44q0 -114 147 -114q29 0 92.5 11.5t127.5 46.5q167 96 437 328q18 11 55 11q12 0 30 -2.5
t28 -19.5q4 -6 4 -16q0 -14 -13.5 -42.5t-72.5 -88.5t-175 -151q-178 -135 -290 -188t-171.5 -68t-76.5 -40q-8 -12 -8 -40q0 -26 7 -66q13 -94 13 -213q0 -88 -12.5 -258.5t-60 -432t-113 -491.5t-137 -373.5t-137.5 -146.5z" />
    <glyph glyph-name="g" unicode="g" horiz-adv-x="1360" 
d="M237 233q51 0 125 63t145.5 158t120.5 197t54 186q-27 -10 -61 -21q-190 -61 -302 -131q-168 -106 -168 -267q0 -64 30 -143q18 -42 56 -42zM-6 -2107q81 0 204 351q106 306 194.5 707t88.5 553q0 47 -11 58q-33 -19 -103 -103.5t-156 -216.5t-165.5 -294t-132 -336
t-52.5 -339q0 -205 92 -351q19 -29 41 -29zM25 -2297q-45 0 -92 37q-248 201 -248 546q0 158 47.5 327.5t127.5 337.5t179 323.5t204.5 287.5t203.5 230q57 62 87.5 163.5t30.5 178.5q0 89 -35 89q-10 0 -24 -10q-183 -139 -312 -139q-117 0 -172 112q-47 103 -47 215
q0 123 48 241.5t131 205.5q78 80 169.5 129.5t184.5 72.5t170 23q87 0 142.5 -25t55.5 -68q0 -36 -44 -81q-26 -26 -26 -48q0 -18 19 -51q37 -60 37 -128q0 -87 -58 -212q-18 -40 -40.5 -134.5t-22.5 -152.5q0 -15 2.5 -26t14.5 -11q29 0 100 58.5t161 139.5
q160 137 272.5 186t155.5 49q36 0 48 -41q-30 -141 -201 -213q-127 -53 -261 -158.5t-238 -230t-122 -244.5q-14 -113 -51 -342q-149 -902 -335 -1338q-128 -299 -262 -299z" />
    <glyph glyph-name="h" unicode="h" horiz-adv-x="1824" 
d="M210 -212q-59 0 -114 40.5t-90 137t-35 266.5q0 188 56 479q102 511 160 892q61 391 140 798q55 203 86 402q40 232 76 334q48 139 133 139q97 -6 97 -96q0 -51 -22.5 -128.5t-56.5 -181.5q-139 -405 -201 -804q-6 -40 -37 -195q-43 -207 -101 -520q-152 -812 -152 -1155
q0 -214 64 -214q28 0 70 42q49 49 132 186q447 729 666 729q76 -2 113 -64t48.5 -162.5t11.5 -212.5l-2 -224q0 -77 5.5 -139.5t23 -99t52.5 -36.5q96 0 345 325q50 66 81 114q35 52 67 90q45 45 83 45q21 0 35 -14.5t14 -43.5q0 -35 -25 -91q-57 -113 -169.5 -249.5
t-198.5 -225.5q-43 -45 -110.5 -77.5t-140.5 -32.5q-70 0 -133 41.5t-103 140t-40 271.5q0 36 2 75q8 138 8 222q0 137 -31 137q-29 0 -86.5 -78t-156.5 -226q-370 -560 -457 -608q-51 -28 -107 -28z" />
    <glyph glyph-name="i" unicode="i" horiz-adv-x="779" 
d="M261 1082q-64 0 -113 45q-38 35 -38 122q0 39 7 87q20 126 123 126q28 0 61 -9q148 -39 148 -152q-4 -70 -51 -144q-55 -75 -137 -75zM181 -339q-18 0 -58 12.5t-103.5 91t-65.5 183.5l-1 57q0 92 8 245t19.5 243t80.5 200q30 40 66 40q10 0 39 -9t43 -61q6 -21 6 -44
q0 -33 -13 -69q-39 -95 -66 -229q-29 -145 -29 -235q0 -88 50 -177q33 -59 77 -59q25 0 77.5 35t177.5 219q158 234 306 468q27 24 49 24q27 0 48 -38l1 -4q0 -33 -100 -204q-122 -194 -254.5 -386t-224.5 -256q-77 -47 -133 -47z" />
    <glyph glyph-name="j" unicode="j" horiz-adv-x="921" 
d="M-759 -1704q55 0 139 97.5t175 246.5t171.5 312t131.5 302.5t51 209.5q0 48 -33 52q-66 0 -211.5 -167.5t-286 -403t-205.5 -456.5v-22q0 -171 68 -171zM96 985q-53 0 -90.5 47t-37.5 121q0 38 12 82q9 60 9 89q0 32 -10 40t-30 11q-26 2 -66 23q-48 31 -48 59
q0 39 66 66t150 27q65 0 126.5 -20.5t102 -67.5t40.5 -127q0 -51 -20 -115q-41 -126 -96.5 -180.5t-107.5 -54.5zM-754 -1887q-99 0 -186 106q-82 99 -82 238q0 133 67.5 281.5t173 296.5t226.5 282t232.5 241t188.5 173q58 50 86 112.5t36.5 138.5t8.5 165l-1 194
q0 70 3 149q0 76 -27 152q-14 43 -14 72q0 71 65 71q39 0 80 -28t56 -73q19 -81 19 -188q0 -109 -9 -224q-8 -100 -8 -173q0 -120 36 -120q12 0 28 11q12 9 74 63q577 507 688 507q23 0 24 -26q0 -15 -9 -40q-6 -11 -231 -209q-464 -400 -565 -525q-60 -80 -77 -110
q-25 -42 -38 -105q-11 -58 -43 -162q-76 -248 -191 -511q-139 -320 -285 -520q-174 -239 -326 -239z" />
    <glyph glyph-name="k" unicode="k" horiz-adv-x="1180" 
d="M-174 -1620q-40 0 -75 32.5t-56.5 97.5t-21.5 162q0 82 19 186l72 394q245 1367 412 2162q156 742 224 794q26 20 55 20q27 0 52.5 -18.5t42 -56.5t16.5 -98q0 -79 -39 -198q-70 -202 -117 -329q-77 -203 -123 -371.5t-105 -521.5q126 189 235 313q164 188 281 188
q56 -2 88.5 -22.5t46.5 -52.5t14 -67q0 -49 -22 -89t-52 -40q-24 0 -50 37q-22 32 -40 32q-12 0 -27 -12q-184 -166 -296.5 -325.5t-112.5 -258.5q0 -105 133 -105q67 0 171 30q136 38 390 162q264 128 317 135q8 -12 8 -26q0 -54 -100 -130.5t-249.5 -149.5t-310 -122.5
t-281.5 -49.5q-59 0 -103 14q-79 27 -125 70q-8 -43 -34 -163q-36 -166 -84.5 -403t-86.5 -468.5t-38 -362.5q0 -69 14 -98q50 58 133 218q36 71 67.5 122.5t53.5 51.5q18 0 18 -34q0 -79 -88 -316q-78 -208 -90 -226q-59 -107 -136 -107z" />
    <glyph glyph-name="l" unicode="l" horiz-adv-x="883" 
d="M264 -283q-81 0 -138 63q-128 148 -128 579q0 428 107 980q105 565 156 825q139 715 257 980q20 43 73 43q26 0 51 -15t41.5 -47t16.5 -83q0 -35 -10 -80q-33 -141 -64.5 -232.5t-63.5 -170.5q-45 -106 -99 -276t-123 -507q-31 -148 -68 -379t-65.5 -494.5t-28.5 -498.5
q0 -143 14 -263q29 -246 97 -246q75 0 223 172q116 135 231 308q168 250 230 250q28 0 28 -53q0 -141 -110 -296q-66 -92 -148 -193q-39 -48 -76 -96q-46 -60 -112 -122q-159 -148 -291 -148z" />
    <glyph glyph-name="m" unicode="m" horiz-adv-x="1702" 
d="M1265 -80q-79 0 -152 87q-76 93 -87 234q-5 63 -5 210l-12 1q-30 0 -61.5 -27.5t-64.5 -64.5q-26 -29 -54 -56.5t-58.5 -45.5t-64.5 -18q-90 0 -187 156q-34 -4 -76 -37t-90 -77q-39 -36 -79 -69t-80 -55.5t-78 -22.5q-61 0 -107 76q-23 48 -23 139q0 119 25.5 259.5
t52.5 208.5q8 19 33 35.5t52 16.5q29 0 52.5 -27.5t23.5 -98.5q0 -55 -60 -359q10 -3 20 -3q29 0 61 20.5t65.5 53t68 69t68 68.5t66 53t61.5 21q26 0 49 -20q38 -35 69 -160l15 -54q61 43 155 145q51 53 103.5 104t100 85t84.5 34q74 0 74 -168q0 -89 -22 -235
q-6 -42 -6 -96q0 -50 7 -99.5t24 -82t46 -32.5q37 0 163 117q22 21 51 46q65 64 140 169q45 63 83 109t59 46q46 -8 46 -47q0 -85 -167 -292q-112 -138 -168 -194q-15 -11 -36.5 -30t-49.5 -40q-67 -52 -130 -52z" />
    <glyph glyph-name="n" unicode="n" horiz-adv-x="1450" 
d="M1033 -66q-218 0 -304 231.5t-128 231.5q-38 0 -78 -31.5t-80 -80.5t-82 -106t-85 -109t-86 -85.5t-86 -33.5q-59 0 -112 75q-45 66 -45 199q0 109 28 226t72 202.5t93 105.5q29 6 50 6q76 0 76 -76q0 -50 -45 -193q-30 -92 -51 -190q-14 -72 -14 -100q0 -22 7 -22
q13 0 58 76q62 104 145.5 199t171.5 157t160 62q108 0 142 -159q76 -370 224 -370q112 0 275 214q70 93 112 176q13 25 40 25q12 0 26 -5q26 0 26 -44t-28 -116t-77.5 -152t-114.5 -151t-139 -116.5t-151 -45.5z" />
    <glyph glyph-name="o" unicode="o" horiz-adv-x="946" 
d="M147 -239q-71 0 -124 47.5t-83 117.5t-30 137q20 324 77 466q46 117 105 117q35 0 59 -36.5t24 -77.5q0 -60 -35 -179q-17 -61 -31 -126t-14 -131q0 -41 8 -81q13 -60 66 -60q47 0 107 43.5t104 108.5t44 127q0 76 -75 117q-154 85 -154 140q0 22 18.5 35t38.5 18.5
t27 5.5q67 -23 141 -23q87 0 177.5 21.5t174.5 45.5q65 19 121 33t98 14q86 0 90 -82q-5 -23 -52 -46q-82 -39 -207 -73q-99 -21 -144.5 -46t-59 -56.5t-17.5 -73.5q-4 -46 -23 -108q-47 -147 -282 -335q-77 -60 -149 -60z" />
    <glyph glyph-name="p" unicode="p" horiz-adv-x="1423" 
d="M-344 -2303q-28 0 -49.5 18t-22.5 47.5t-2 57.5q0 151 27 332q42 280 154 758q76 319 122 580q94 598 136 1373q11 172 77 229q28 25 55 25q29 0 50.5 -24.5t21.5 -64.5l-1 -13q-52 -496 -114 -964q33 35 112 174q42 73 94 159q291 482 493 482q159 0 270 -303
q180 55 317 55q117 0 117 -60q0 -15 -8 -35.5t-105 -31.5q-67 -8 -150 -30q-201 -53 -271 -254q-119 -350 -293 -471q-77 -54 -135 -54q-46 0 -74 30.5t-28 87.5q0 65 45 160q91 177 167 266t130 134q46 39 72 74t26 99q0 24 -4 55q-16 113 -80 113q-100 0 -273 -253.5
t-335.5 -663.5t-246.5 -897q-21 -126 -110 -592q-98 -510 -110 -545q-12 -27 -32.5 -40t-41.5 -13z" />
    <glyph glyph-name="q" unicode="q" horiz-adv-x="1548" 
d="M93 220q64 16 170 111t195 206.5t103 176.5q-24 12 -52 12q-62 0 -134.5 -52t-137 -129.5t-105.5 -159.5t-41 -142q0 -12 2 -23zM328 -2444q-45 0 -96.5 48t-87.5 116.5t-36 128.5q0 70 56 100q94 62 204 674q82 460 118 785q60 494 154 889q37 163 37 199q0 27 -13 27
q-18 0 -66 -46t-134 -135q-76 -78 -186 -188q-135 -133 -254 -133q-70 0 -114 48.5t-44 134.5q0 67 33 155q70 190 295 403q141 131 280 131q56 0 122 -17q43 -12 80 -12q61 0 97 62q13 22 40 37t56 15q32 0 56.5 -24.5t24.5 -85.5q0 -65 -39 -180q-60 -180 -156.5 -664
t-176.5 -969.5t-80 -605.5q0 -17 2 -24q47 60 138 242t181.5 378.5t137.5 301.5q146 318 298 587q155 275 301 596q21 49 52.5 73.5t58.5 24.5q45 0 45 -48q-4 -55 -79 -196q-67 -124 -145 -259q-72 -124 -118 -211q-296 -574 -530 -1133.5t-440 -1160.5q-23 -64 -72 -64z
" />
    <glyph glyph-name="r" unicode="r" horiz-adv-x="1435" 
d="M639 -270q-134 0 -173 151q-53 200 -53 371q0 31 6.5 142.5t27.5 195.5q88 363 88 472q0 108 -73 143q-15 7 -26 7q-29 0 -43.5 -41t-29.5 -113.5t-43.5 -171t-84.5 -211.5q-109 -214 -181.5 -279.5t-101.5 -65.5q-22 0 -32 18.5t-10 39.5q0 20 8 36q59 94 76 122.5
t85.5 170.5t113.5 282.5t45 259.5q0 53 -11 101q-5 19 -5 35q0 65 77 65q52 0 122 -29t136.5 -77t110.5 -106t44 -118q-5 -89 -91 -578q-23 -132 -23 -276q0 -11 1 -95t26.5 -180t80.5 -96q3 0 33.5 2t210.5 127t314.5 281.5t173.5 244.5q53 52 94 52q42 0 68 -65
q-6 -47 -246.5 -341.5t-533.5 -427.5q-106 -48 -181 -48z" />
    <glyph glyph-name="s" unicode="s" horiz-adv-x="1134" 
d="M29 -521q-23 0 -45.5 6t-37.5 21.5t-15 42.5q0 86 178 259l231 220q-165 227 -209 292q-80 117 -122 212t-42 187q0 90 42 186.5t130 217.5q40 55 92 55q43 0 75 -34.5t32 -83.5q0 -46 -39 -96q-106 -125 -106 -282q0 -123 56 -240.5t137 -206.5q60 -68 108 -68
q32 0 67 26t84 71q61 57 160.5 133.5t256.5 159.5q75 34 132 34q34 0 56 -10.5t22 -30.5q0 -36 -73 -85q-440 -257 -592 -443q-67 -82 -108 -151q-47 -84 -130 -173t-282 -208q-21 -11 -58 -11z" />
    <glyph glyph-name="t" unicode="t" horiz-adv-x="825" 
d="M239 -356q-76 0 -138.5 54t-99.5 165q-27 94 -27 274q0 183 25.5 410t73.5 425q45 178 45 266q0 72 -29 97t-86 25t-142 -15q-46 -14 -177 -14l-66 1q-71 5 -105 38.5t-34 65.5q0 20 12 34.5t34 17.5q422 16 536 34t127 83q129 541 149 601q26 64 80 64q29 0 57 -21
t46.5 -60.5t18.5 -95.5q0 -48 -17 -108q-13 -42 -33 -101q-31 -93 -60.5 -192t-29.5 -153q92 -27 200 -27q293 24 430 44q71 12 118 12q30 0 48.5 -8.5t22.5 -37.5q0 -39 -53 -64t-133.5 -39.5t-273 -34t-266 -22t-116 -3t-55 -17t-18.5 -60.5q-6 -39 -19 -110
q-23 -127 -53.5 -313.5t-54 -386t-23.5 -354.5q0 -180 40 -243q40 -57 90 -57q59 0 127 63t134.5 158t124 196t97.5 181.5t54.5 112.5t43 55t52.5 23q33 0 33 -45q0 -98 -161 -359q-262 -424 -399 -510q-77 -49 -150 -49z" />
    <glyph glyph-name="u" unicode="u" horiz-adv-x="1405" 
d="M128 -38q-12 0 -22 3q-62 17 -106 95.5t-44 215.5q0 174 81 394q10 12 19 25q20 29 41 50.5t49 21.5q8 0 17 -2q44 -13 44 -71q0 -50 -40 -180q-19 -61 -34.5 -123t-15.5 -118q0 -117 75 -117q42 0 91 31.5t84 69.5q80 90 193 279q93 153 141 204q31 33 59 33q7 0 15 -3
q32 -15 41.5 -63t9.5 -112l-1 -133q0 -60 7.5 -113t32.5 -85.5t76 -32.5q111 0 362 189q34 26 60 50q37 34 68 52q53 27 82 27q36 0 36 -33q0 -24 -22 -60t-65 -75q-66 -60 -165 -130t-176 -107q-141 -62 -229 -62q-74 0 -118 34q-74 56 -114 205q-19 71 -24 71t-12 -20
q-10 -25 -39 -71q-94 -134 -235 -236.5t-222 -102.5z" />
    <glyph glyph-name="v" unicode="v" horiz-adv-x="1100" 
d="M228 -281q-39 0 -80 32q-68 56 -90.5 123.5t-22.5 150.5q0 37 8 193q0 133 -88 444q3 49 28.5 71.5t59.5 22.5q40 0 80.5 -28.5t59.5 -80.5q20 -60 26.5 -145t8.5 -177t8 -175.5t25 -144.5q50 26 123.5 156t128.5 244t72 167q25 79 84 79q11 0 22 -2q81 -13 378 -26
q159 -21 159 -116l-1 -14q0 -44 -64 -44q-40 0 -89 12q-35 8 -106 8l-66 -1q-77 -3 -108 -3q-18 0 -19 1q-39 0 -76 -50q-59 -78 -141 -251q-88 -203 -148 -303q-87 -143 -172 -143z" />
    <glyph glyph-name="w" unicode="w" horiz-adv-x="1928" 
d="M1046 -367q-115 0 -214 151q-79 118 -128 282l-10 1q-34 0 -79.5 -40t-100.5 -97q-50 -52 -105 -102.5t-113 -85t-116 -34.5q-98 0 -178 119q-60 93 -60 280q0 119 19 239t40.5 205.5t31.5 106.5q69 21 113 21q90 0 90 -94q0 -44 -15 -102t-35 -123q-23 -76 -42 -154
t-19 -146q0 -41 9.5 -77t32 -62.5t52.5 -26.5q47 0 109 49q172 138 439 548q19 30 21 32q51 43 78 43q34 0 42.5 -51.5t8.5 -130.5l-1 -113q0 -75 5.5 -153.5t25 -149.5t59.5 -125q18 -22 43 -22q59 0 138.5 90t139.5 211.5t60 215.5q0 75 -46 108q-136 97 -136 169
q0 34 29.5 52t71.5 18q36 0 74 -15t67 -45q114 -121 254 -121q52 0 101 12t94 26q75 23 104 23q43 0 43 -32q0 -33 -47 -77.5t-124 -62.5q-197 -35 -247.5 -47.5t-64 -30t-17.5 -51.5t-23 -94q-48 -148 -255 -401q-113 -136 -219 -136z" />
    <glyph glyph-name="x" unicode="x" horiz-adv-x="1509" 
d="M59 -978q-41 0 -79 19t-62.5 63.5t-24.5 120.5q0 117 66 292q149 378 209 494q24 51 35.5 79t11.5 46q0 24 -32 64q-104 124 -223 460q-58 155 -67 287q0 97 77 97q67 0 112 -76q58 -100 124 -344q22 -77 43 -142q45 -147 88 -147q21 0 45 36q49 74 186.5 257.5t308 396
t316.5 373t212 187.5q25 8 42 8q55 0 55 -62q0 -68 -67 -169.5t-174 -157.5q-54 -29 -179.5 -161.5t-267 -306.5t-244.5 -330.5t-103 -221.5q0 -17 8 -26q135 -141 292 -141q167 0 358 152q128 101 293 282q103 116 155 147q16 5 39 5q22 0 44.5 -5t38 -17t15.5 -33
q0 -42 -77 -110q-51 -48 -118 -119q-181 -194 -330 -307q-217 -163 -418 -163q-171 0 -318 113q-20 16 -42.5 29t-62.5 13q-67 -124 -136 -291q-101 -244 -101 -392q0 -113 66 -152q41 -26 41 -54q0 -35 -48 -64t-107 -29z" />
    <glyph glyph-name="y" unicode="y" horiz-adv-x="1971" 
d="M351 -1642l3 1q43 23 134 332q93 314 93 401l-1 10q-65 -84 -119 -226.5t-87 -282.5t-33 -201q0 -32 10 -34zM290 -2065q-61 0 -104.5 76t-43.5 227q0 166 61 389q116 418 230 597q49 77 92 129q56 65 105.5 161.5t97 312t97.5 635.5q3 23 3 40q0 57 -30 57t-84.5 -47.5
t-121.5 -113.5q-94 -94 -191 -173q-108 -83 -193 -83q-58 0 -99.5 32t-68.5 81t-41 103q-14 91 -14 152q12 213 131 213t119 -132q0 -20 -3 -44q-4 -48 -4 -108l1 -50q0 -84 28 -84q16 0 43 24q63 57 129 112q131 108 248 228.5t194 278.5q33 66 96 66q34 0 61 -23t27 -67
q-27 -380 -101 -748q-31 -159 -31 -203q0 -42 22 -42q24 0 77.5 43t147.5 130q54 50 163 131t240.5 164.5t254.5 142t200 58.5q31 0 52 -12q23 -22 23 -45q0 -34 -38 -67q-69 -60 -205 -115q-88 -36 -96 -36v-1l-6 -1v-1q-2 0 -30 -9q-174 -94 -368 -236
q-462 -337 -545 -702q-63 -307 -173 -721q-146 -546 -240 -659q-58 -60 -112 -60z" />
    <glyph glyph-name="z" unicode="z" horiz-adv-x="1474" 
d="M150 -1462q36 34 227 355q179 302 223 388q20 38 75 176q21 54 21 70q-61 -127 -200 -331q-114 -170 -216.5 -345.5t-129.5 -312.5zM58 -1732q-40 0 -74.5 38.5t-34.5 111.5q0 48 21 110q109 295 275 556.5t318 466.5q105 144 173 249.5t74 164.5l1 16q0 97 -79 97
q-56 0 -136 -40t-166.5 -96.5t-163.5 -110.5q-122 -87 -171 -108q-19 0 -36 7q-32 13 -32 47q0 46 65 129q114 143 181 256q123 206 123 332q0 57 -23.5 84.5t-57.5 27.5q-49 0 -113 -63t-93 -102q-67 -89 -135 -89q-50 0 -55 49q0 9 3 20q29 69 110 169.5t155 145t137 44.5
q67 0 117.5 -41t79 -109t28.5 -149q0 -76 -28 -155q-16 -45 -16 -69q0 -33 36 -33q25 0 63 9q65 15 120 15q45 0 92 -14q54 -17 114 -77q21 -20 35.5 -31.5t27.5 -11.5q18 0 42 22.5t68 70.5q300 338 409 338q36 0 53.5 -22.5t17.5 -48.5q0 -30 -19.5 -49t-54.5 -42
q-47 -30 -113 -92q-40 -18 -143.5 -127.5t-207 -251.5t-145.5 -259q-62 -184 -197 -462.5t-296 -534.5t-299 -371q-24 -17 -50 -17z" />
    <glyph glyph-name="braceleft" unicode="{" horiz-adv-x="1359" 
d="M393 -1790q-124 0 -243 75.5t-167 284.5q-23 104 -23 221q0 121 24 255q81 438 266 803q76 151 139 261q120 202 120 273q0 56 -71 90t-304 41q-31 2 -53 27q-28 32 -28 69q0 24 17 43q141 149 268.5 410.5t244 582t223.5 644.5q110 330 212 606.5t199 440.5
q95 158 185 158h7q149 -22 225 -106q100 -112 100 -238q0 -40 -15 -63q-9 -13 -21 -13q-23 0 -58 46l-29 44q-28 46 -57 82q-36 44 -70 44q-28 0 -59 -38q-158 -207 -277.5 -503.5t-222.5 -612.5q-157 -474 -297 -800q-75 -173 -157 -348q-62 -132 -142 -311
q225 -76 307 -141q57 -46 57 -119q0 -32 -22.5 -110.5t-148.5 -324.5q-87 -173 -207 -434q-81 -179 -125 -373q-43 -190 -43 -359v-93q0 -89 52.5 -207.5t164.5 -148.5q27 -7 58 -7q97 0 232 70q209 110 295 110q52 0 52 -31q0 -8 -11.5 -39.5t-114 -104t-272.5 -124.5
q-116 -32 -210 -32z" />
    <glyph glyph-name="bar" unicode="|" horiz-adv-x="818" 
d="M180 -851q-15 0 -43 16.5t-58 95.5q-48 123 -48 276q0 55 7 109q3 120 53 481t105 734q53 356 74 516q39 316 52.5 524.5t20.5 504.5q6 103 72 103q33 0 76 -40.5t68 -142.5q10 -44 10 -97q0 -70 -18 -157q-28 -130 -106 -662t-152 -1081q-90 -671 -90 -740
q0 -52 48 -130q38 -58 51 -123q2 -11 2 -22q0 -57 -56 -125q-36 -40 -68 -40z" />
    <glyph glyph-name="braceright" unicode="}" horiz-adv-x="1969" 
d="M-3 -1806q-125 0 -144 67q-2 6 -2 12q0 37 73 60q207 57 365 202t261 343t145 416q27 137 27 269q0 76 -9 151q-27 208 -27 334q0 23 3 99t27.5 133.5t51.5 84.5q40 44 40 98q0 20 -4 47q-9 74 -9 152q0 182 61 434t200 558.5t308 579.5t331 470q183 215 183 308
q0 88 -178 127q-150 34 -256 34q-6 0 -64 -1.5t-131 -22.5t-119 -43q-55 -25 -84 -25t-54 41q-28 49 -28 84q0 78 128 109q96 23 230 23l46 -1q18 2 40 2q64 0 171.5 -16t228.5 -62.5t187 -125.5q41 -49 41 -113q0 -98 -117 -274q-64 -96 -147 -203q-119 -153 -258 -369
q-331 -515 -532 -1330q-23 -96 -23 -156q0 -27 10 -68.5t52 -58.5t92 -19q55 -1 94.5 -22t39.5 -100q-5 -86 -50 -113t-107 -36q-54 -8 -102 -30q-95 -43 -95 -208q0 -32 3 -70q25 -225 25 -417q0 -64 -6.5 -216t-104 -379t-326.5 -481q-257 -278 -487 -278z" />
    <glyph glyph-name="asciitilde" unicode="~" horiz-adv-x="1476" 
d="M930 800q-41 0 -78 20q-75 41 -143 110q-129 131 -227 131q-28 0 -59 -8q-86 -22 -203 -150q-55 -58 -100 -58q-59 0 -84 68q-11 28 -11 60q0 123 121 214q84 64 246 87q33 3 63 3q157 0 249 -86q46 -44 78 -88q70 -99 136 -99q33 0 77 18q82 34 228 164q37 30 82 30
q77 0 96 -60q3 -8 3 -18q0 -126 -380 -316q-50 -22 -94 -22z" />
    <glyph glyph-name="exclamdown" unicode="&#xa1;" horiz-adv-x="1295" 
d="M562 657q31 0 85 -21.5t109.5 -86.5t68.5 -174q20 -92 20 -225q0 -391 -171 -1190q-101 -471 -225 -949q-223 -858 -423 -1496q-34 -89 -105 -89q-63 0 -104 59q-22 32 -22 78q0 43 19 97q243 607 392 1142q164 589 324 1287q154 603 154 944q0 127 -24.5 280.5
t-127.5 291.5q-12 17 -12 29q0 23 42 23zM730 1467q27 0 55 -14q105 -56 143 -93q33 -30 33 -58q0 -31 -42 -92q-7 -11 -14 -24q-31 -52 -67.5 -88.5t-85.5 -42.5q-45 -12 -79 -12q-48 0 -87 33t-39 114q0 71 32 144t87 112q30 21 64 21z" />
    <glyph glyph-name="cent" unicode="&#xa2;" horiz-adv-x="2782" 
d="M605 -235q33 0 96.5 12.5t83.5 80.5q55 241 117 493q77 310 146.5 623t113.5 615l1 11q0 39 -35 39q-15 0 -63 -16t-171.5 -111.5t-260.5 -241t-254 -320t-179 -356.5q-43 -127 -43 -247q0 -52 8 -103v-21q0 -175 83 -282t202 -148q83 -28 155 -28zM909 -1267
q-21 0 -66 39q-70 64 -97.5 169.5t-27.5 251.5q0 99 5 189q4 62 4 110q0 69 -9 109q-10 2 -42 4q-191 0 -364 73q-259 109 -320 410q-14 68 -14 150q0 124 31 280q62 272 255.5 558t429 498.5t424.5 264.5q110 32 140 238q13 90 19 186q7 131 29 228q24 107 97 107
q59 0 79 -55q16 -44 16 -107q0 -21 -4.5 -79t-25.5 -156t-40 -174q-22 -82 -22 -102q0 -19 41 -33q34 -13 87 -26q69 -16 147 -44q185 -67 222 -217q7 -29 7 -64q0 -69 -28 -158q-59 -170 -138.5 -267t-151.5 -134q-54 -28 -86 -28q-38 0 -38 25q0 14 16 36.5t41 54.5
q57 71 122 167t95 193q12 38 12 73q0 53 -37.5 112.5t-204.5 85.5q-32 5 -58 5q-52 0 -84.5 -25.5t-46.5 -107.5q-16 -74 -59 -260q-58 -248 -130 -568q-155 -689 -155 -853q0 -25 4 -39q62 24 516 271q564 309 839 444q252 124 311 124q17 0 17 -12t-21 -39
q-97 -107 -423 -304t-672 -381.5t-505 -255.5q-122 -59 -156 -185q-25 -90 -25 -192q0 -137 44 -362q25 -136 25 -178q0 -50 -24 -50z" />
    <glyph glyph-name="sterling" unicode="&#xa3;" horiz-adv-x="2669" 
d="M244 -1143q-61 0 -61 143q0 77 30 177t106 197q120 155 226.5 442t196.5 621t161 628q44 180 80 318q3 14 3 26q0 40 -41 49q-32 7 -81 7q-33 0 -73 -3q-51 -3 -109 -3l-122 2q-71 0 -115 -10t-60.5 -30.5t-20.5 -40.5t-15.5 -34.5t-46.5 -19.5q-12 -2 -28 -2
q-33 0 -95 8q-202 25 -251 77q-37 37 -37 78q0 83 190 95q168 9 336 28q271 30 436 30q51 0 102 -2q56 0 77.5 18.5t38.5 89.5q48 168 98 355q81 309 178 632t221 618t288 518q94 119 228 119q109 0 214.5 -71.5t166.5 -202.5q42 -90 42 -194q0 -48 -9 -99q-5 -24 -10 -24
t-24 48q-91 268 -297 359q-28 10 -56 10q-81 0 -178 -105t-202.5 -328.5t-198 -493.5t-164.5 -527.5t-116.5 -446t-54.5 -249.5q77 -40 227 -40q170 0 504 50q252 38 343 38q19 0 57.5 -3t43.5 -32q0 -38 -90.5 -68.5t-233 -53.5t-294 -38.5t-270 -24t-163.5 -10.5
q-102 -3 -157.5 -55t-78.5 -154q-108 -466 -211.5 -827.5t-247.5 -800.5q24 -16 75 -16q60 0 213 23.5t371 40.5q110 9 234 9t263 -9q93 -5 182 -5l155 2q84 0 157 -7q79 -8 79 -55q0 -59 -75.5 -83.5t-210.5 -25.5q-176 0 -304 4q-154 6 -318 6q-41 0 -166 -1t-316 -34
q-427 -75 -541 -367q-101 -270 -180 -270z" />
    <glyph glyph-name="yen" unicode="&#xa5;" horiz-adv-x="3560" 
d="M1807 -3520q-39 0 -82 27q-213 151 -231 599q-2 56 -2 112q0 149 18 334.5t51.5 382.5t71.5 392q24 116 24 158q0 43 -15 57t-50 14q-45 0 -123 -21q-211 -51 -393 -118.5t-328 -129.5q-280 -122 -366 -122q-66 0 -79 58q0 140 765 371q390 116 527 139q92 18 124 105
t51 235q11 77 27 168q-332 -64 -537 -144t-342 -153q-129 -68 -249 -109q-106 -37 -244 -37l-34 1q-48 3 -78 32q-23 22 -23 49q0 8 6 31t77 49q603 209 1104 337q185 46 267 79t107.5 94t40.5 190q35 287 139 657q72 240 208 753q141 539 141 666q0 24 -5 34
q-62 -73 -248 -387q-365 -611 -642 -1004q-426 -606 -755 -816q-142 -91 -267 -91q-36 0 -130.5 19.5t-205.5 253.5q-99 225 -121 610q-9 160 -9 330q0 241 25 595t85.5 767t126.5 695t114 335q41 39 69 39q70 0 70 -221q0 -98 -14 -216.5t-38 -213.5q-27 -105 -51 -105
q-21 0 -34 117q-18 -10 -54.5 -176t-76 -434t-67 -583t-27.5 -637q0 -676 180 -917q75 -100 192 -100q36 0 76 9q156 47 388 298q423 459 989 1356q240 379 413.5 682.5t233.5 436.5q25 63 60 202q69 274 127 396q45 95 93 95q36 0 77 -69q12 -24 12 -61q0 -110 -156 -487
q-54 -133 -107 -276q-102 -272 -405 -1448q-160 -618 -266 -1171q-7 -36 -7 -63q0 -67 47 -75q13 -2 31 -2q67 0 195 33t321 64q171 27 452 27q66 -3 97 -37q24 -25 24 -57q0 -11 -7 -40t-69 -69q-188 -113 -453.5 -242t-474.5 -175q-33 -6 -50 -6q-15 0 -15 5t19 22
q38 34 362 195q142 71 262 135q176 92 176 117q0 10 -27 10q-17 0 -276 -36q-256 -33 -399.5 -58t-208.5 -59.5t-84.5 -96t-26.5 -168.5q-7 -73 -21 -173q0 -46 161 -46q95 0 223 6t250 6q31 0 121.5 -1t171.5 -38q50 -22 50 -67q0 -28 -18 -63q-25 -46 -45 -47
q-24 0 -49 18t-67 34q-35 13 -110 13q-174 -12 -297 -18q-220 -9 -317.5 -27t-126.5 -77.5t-44 -194.5q-11 -76 -30 -184q-4 -21 -19 -141q-76 -587 -76 -951q0 -34 2.5 -130t29.5 -184q21 -67 61 -67q13 0 51 17.5t142 204.5q42 72 62 72t20 -60q0 -27 -9.5 -93t-51 -167
t-107.5 -153q-33 -26 -70 -26z" />
    <glyph glyph-name="brokenbar" unicode="&#xa6;" horiz-adv-x="818" 
d="M349 1145.08q-15 0 -43 7.09473t-58 41.0645q-48 52.8896 -48 118.678q0 23.6494 7 46.8691q3 51.5996 53 206.827q50 155.227 105 315.614q53 153.077 74 221.876q39 135.878 52.5 225.531t20.5 216.932q6 44.2891 72 44.2891q33 0 76 -17.415q43 -17.4141 68 -61.2734
q10 -18.9199 10 -41.709q0 -30.0996 -18 -67.5088q-28 -55.8994 -106 -284.655q-78 -228.757 -152 -464.822q-90 -288.525 -90 -318.194q0 -22.3604 48 -55.8994q38 -24.9395 51 -52.8896q2 -4.72949 2 -9.45898q0 -24.5098 -56 -53.749q-36 -17.2002 -68 -17.2002z
M194 -882.924q-15 0 -43 7.09473t-58 41.0645q-48 52.8896 -48 118.678q0 23.6494 7 46.8691q3 51.5996 53 206.827q50 155.227 105 315.614q53 153.077 74 221.876q39 135.878 52.5 225.531t20.5 216.932q6 44.2891 72 44.2891q33 0 76 -17.415q43 -17.4141 68 -61.2734
q10 -18.9199 10 -41.709q0 -30.0996 -18 -67.5088q-28 -55.8994 -106 -284.655q-78 -228.757 -152 -464.822q-90 -288.525 -90 -318.194q0 -22.3604 48 -55.8994q38 -24.9395 51 -52.8896q2 -4.72949 2 -9.45898q0 -24.5098 -56 -53.749q-36 -17.2002 -68 -17.2002z" />
    <glyph glyph-name="section" unicode="&#xa7;" horiz-adv-x="1715" 
d="M-483 -1771q-44 0 -58 33q-3 7 -3 15q0 108 339 363q489 358 504 489q-129 20 -205 33q-122 21 -352 72q-123 25 -206 120q-78 90 -100 207q-6 34 -6 68q0 82 36 161q134 278 351.5 548.5t473.5 442.5q72 44 133 44q22 0 71.5 -14t101 -80t69.5 -139q8 -32 8 -58
q0 -85 -60 -85q-19 0 -45 9q-29 13 -48 68q-11 32 -30 56q-16 20 -47 20q-7 0 -31.5 -3t-103.5 -56q-250 -174 -402 -363t-214 -357q-48 -129 -48 -223q0 -29 11.5 -96.5t103.5 -82.5q10 -2 22 -2q87 0 225 104q43 31 185 109q378 205 640 392q378 268 409 477q2 14 2 27
q0 100 -109 185q-128 89 -291 168q-134 66 -257.5 143t-204 179.5t-85.5 246.5q0 152 99 345q94 172 298.5 380.5t440 380.5t421.5 236q75 22 139 22q90 0 181 -59.5t122 -207.5q10 -46 10 -94q0 -303 -297 -496q-11 -7 -35 -7q-41 0 -41 35q0 9 5.5 30.5t51.5 79.5
q95 118 129 243q15 55 15 102q0 60 -24 106q-36 70 -136 70q-17 0 -91.5 -8t-307.5 -169q-255 -180 -468 -400q-305 -314 -305 -566q0 -142 129 -258q54 -47 128.5 -92t158.5 -92q136 -74 262 -158q254 -171 254 -363q0 -31 -14.5 -114t-176.5 -254t-505 -389l-255 -160
q-204 -125 -285 -181q-71 -49 -71 -67q0 -3 6.5 -12.5t80.5 -18.5q315 -45 315 -153q0 -18 -17 -70t-114 -160q-213 -237 -713 -608q-58 -44 -88 -68q-36 -26 -81 -26z" />
    <glyph glyph-name="dieresis" unicode="&#xa8;" horiz-adv-x="1091" 
d="M647 1820q-52 0 -113 48q-38 34 -38 85q0 42 30 75t93 33q155 -17 155 -120q0 -25 -19.5 -63.5t-81.5 -54.5q-13 -3 -26 -3zM259 1787q-25 0 -53 16q-68 43 -98 98q-25 46 -25 83q0 8 4 32.5t43 24.5q118 -2 165.5 -47t47.5 -98q0 -4 -1.5 -33.5t-39.5 -60.5
q-20 -15 -43 -15z" />
    <glyph glyph-name="copyright" unicode="&#xa9;" horiz-adv-x="3349" 
d="M1258 -233q-60 0 -151.5 19.5t-173.5 135.5t-87 351q14 167 102 373t221.5 395.5t282.5 305.5q134 104 257 104l28 -1q134 -22 173 -123q23 -59 23 -130q0 -51 -20 -148t-85.5 -225.5t-140.5 -206.5q-61 -64 -109 -64q-10 0 -20 3q-74 32 -74 111q0 38 18 49
q55 27 114 108.5t101 177.5q47 108 47 181q0 70 -59 70q-54 0 -171 -84q-164 -122 -283 -307.5t-176 -378.5q-41 -138 -41 -254q0 -46 14.5 -142t133.5 -145q39 -16 90 -16q142 0 400 138q99 56 138 56q31 0 58 -27q8 -9 8 -21q0 -28 -52 -80.5t-167.5 -114t-252.5 -93.5
q-75 -17 -146 -17zM953 -827q274 0 570 133q345 161 695.5 449.5t570.5 587.5q168 242 168 484q0 2 -0.5 124t-120 339.5t-305.5 384t-388 255.5q-173 76 -319 76q-24 0 -47 -2q3 -8 34 -39q132 -132 132 -202q0 -29 -24 -52q-12 -10 -21 -10q-14 0 -34 28q-73 102 -276 162
q-113 29 -206 29q-55 0 -144 -19t-178 -82t-148 -122q-63 -64 -104 -78q-94 -26 -226 -206.5t-253.5 -451t-184.5 -567.5q-37 -173 -37 -334q0 -114 19 -222q66 -319 276 -485q228 -180 551 -180zM995 -994l-31 1h-33q-339 0 -586 181t-350 506q-54 171 -54 367
q0 176 44 372q38 160 116 367q179 473 444 826q313 416 653 467q15 2 57 20q204 68 406 68q110 0 320 -38t474 -213t439 -425.5t219 -531.5q11 -70 11 -139q0 -210 -98 -412q-118 -229 -360 -478.5t-546 -466.5t-608 -348q-285 -123 -517 -123z" />
    <glyph glyph-name="guillemotleft" unicode="&#xab;" horiz-adv-x="1673" 
d="M797 236q-11 0 -22 2q-54 25 -97 28q-18 1 -37 1q-25 0 -51 -2.5t-59 -2.5q-42 0 -114.5 7t-230.5 66q-141 58 -172 149q-13 38 -13 79q0 210 358 570q139 139 231 222q39 38 78 78q60 63 117 114q84 74 137 74q30 0 55 -25q23 -28 23 -62q0 -29 -27 -79.5t-92 -111
t-104.5 -84.5t-141 -110t-214 -200t-183.5 -222q-54 -82 -54 -143q0 -18 5 -35q41 -97 211 -106q54 -4 110 -4l91 2q55 0 116 -4t109 -28q68 -38 68 -86q0 -38 -31 -64q-27 -23 -66 -23zM1403 337q-83 0 -323 97q-96 38 -203 76q-62 21 -110 73q-64 68 -64 157q0 57 35 121
q67 109 191 235q349 357 402 357q21 0 57.5 -19t39.5 -78q-25 -47 -89.5 -113.5t-145.5 -142.5q-96 -89 -178 -176q-124 -130 -124 -194q0 -36 40 -56q114 -48 247 -85q97 -28 177 -57q143 -54 143 -116q0 -17 -10 -37q-24 -42 -85 -42z" />
    <glyph glyph-name="registered" unicode="&#xae;" horiz-adv-x="3335" 
d="M1294 286q47 5 141.5 101t197 235.5t173 276t70.5 223.5q0 78 -90 78l-22 -1q-135 -19 -211.5 -110.5t-118.5 -230.5t-84 -349q-10 -40 -27 -78q-31 -70 -31 -118q0 -13 2 -27zM887 -712q-1 0 -23.5 0.5t-46.5 53.5q-11 24 -11 64q0 83 174 772q182 720 298 898
q77 116 98.5 226.5t22.5 198.5q2 73 14 118q13 49 64 49q108 0 122 -158q5 -57 5 -139l39 -2q95 -2 192.5 -21.5t153.5 -88.5q37 -46 37 -127q0 -42 -10 -94q-61 -263 -307 -559q-103 -123 -190 -216q-144 -155 -144 -186q0 -16 26 -16q12 0 28 3q239 43 403 43
q247 0 349 -73q52 -38 52 -70q0 -12 -6 -22q-18 -32 -83 -32q-17 0 -38 2q-86 14 -275 14q-351 0 -570 -53q-133 -32 -161 -92q-45 -128 -82 -268q-50 -179 -66 -200q-24 -25 -65 -25zM1000 -1266q94 0 272.5 39t451.5 286q514 470 852 966q413 607 443 1181q0 40 -20 128
t-66.5 186t-122.5 159q-221 161 -551 232q-231 49 -465 49q-100 0 -319 -20q-261 -24 -531 -213q-145 -102 -193 -102q-31 0 -31 25q0 26 53 90.5t195 158t343 161.5t443 69q-108 206 -298 277q-90 34 -184 34q-105 0 -263 -60.5t-317 -302.5q-207 -336 -341.5 -791.5
t-179.5 -928.5q-19 -199 -19 -383q0 -253 36 -478q41 -242 182 -430.5t354 -277.5q130 -54 276 -54zM994 -1419q-172 0 -372 81.5t-362 301.5q-270 363 -270 1203q0 187 32.5 411.5t132.5 593.5q91 332 196 573q164 376 343 625q38 55 43.5 70t67.5 51.5t162 70.5
q129 44 257 44q99 0 199 -34q147 -56 227.5 -118t118.5 -122.5t57 -109t43 -78.5t75 -33q212 -10 427.5 -63t397 -160.5t292 -278.5t111.5 -416q-43 -606 -455 -1235q-350 -534 -877 -1006q-319 -280 -620 -346q-117 -25 -226 -25z" />
    <glyph glyph-name="macron" unicode="&#xaf;" horiz-adv-x="1864" 
d="M343 1102q-17 0 -84.5 0.5t-93.5 18.5q-45 39 -45 84q0 12 3 25q13 54 344 54h65q128 -3 214 -3q133 0 191.5 8.5t217.5 17.5t159 10q188 -6 251 -106q10 -15 10 -28q0 -70 -276 -70l-462 3q-93 0 -242 -9q-145 -5 -252 -5z" />
    <glyph glyph-name="degree" unicode="&#xb0;" horiz-adv-x="943" 
d="M403 2473q5 0 32 5.5t84.5 69t92.5 140.5q24 51 24 90q0 67 -70 67q-23 0 -53 -7.5t-69 -48.5q-92 -98 -92 -239q10 -77 51 -77zM344 2275q-74 0 -126 66q-67 97 -67 247q0 96 39 202t145 176q137 82 236 82q11 0 68.5 -6t112.5 -82.5t57 -183.5q-9 -109 -77 -218.5
t-165 -186.5q-119 -96 -223 -96z" />
    <glyph glyph-name="plusminus" unicode="&#xb1;" horiz-adv-x="1459" 
d="M525 -203q-66 0 -66 158q0 120 40 332q25 115 25 189q0 107 -69 140.5t-184 47.5q-299 34 -299 125q0 20 14 37.5t30 28.5t22 11q233 -10 352 -33q70 -13 117 -13q25 0 59.5 7t60.5 86t60 264q3 305 150 385q30 16 50 16q38 0 38 -61q0 -63 -40 -189q-92 -291 -92 -390
l1 -15q8 -90 81 -90q215 -15 321 -15q53 0 79 4q20 3 37 3q48 0 69 -22q22 -26 22 -48q0 -54 -152 -94q-66 -17 -159 -17q-39 0 -83 3q-32 2 -60 2q-103 0 -162.5 -30t-70.5 -79l-96 -531q-37 -212 -95 -212zM203 -466q-17 0 -84.5 0.5t-93.5 18.5q-45 39 -45 84q0 12 3 25
q13 54 344 54h65q128 -3 214 -3q133 0 191.5 8.5t217.5 17.5t159 10q188 -6 251 -106q10 -15 10 -28q0 -70 -276 -70l-462 3q-93 0 -242 -9q-145 -5 -252 -5z" />
    <glyph glyph-name="acute" unicode="&#xb4;" horiz-adv-x="489" 
d="M176 1643q-20 0 -41 14q-26 15 -26 40q0 58 71 144q138 228 204 243q3 0 22 -2t36.5 -26.5t17.5 -53.5q-230 -359 -284 -359z" />
    <glyph glyph-name="periodcentered" unicode="&#xb7;" horiz-adv-x="800" 
d="M209 1017q-29 0 -55 31q-32 42 -32 96q0 17 7.5 63.5t65.5 85.5q24 14 53 14l13 -1q124 -24 171 -137q-17 -34 -24 -43q-58 -64 -178 -105q-11 -4 -21 -4z" />
    <glyph glyph-name="periodcentered" unicode="&#x2219;" horiz-adv-x="800" 
d="M209 1017q-29 0 -55 31q-32 42 -32 96q0 17 7.5 63.5t65.5 85.5q24 14 53 14l13 -1q124 -24 171 -137q-17 -34 -24 -43q-58 -64 -178 -105q-11 -4 -21 -4z" />
    <glyph glyph-name="cedilla" unicode="&#xb8;" horiz-adv-x="570" 
d="M101 -532q-46 0 -86 48q-21 26 -21 66q0 27 10 61q25 80 99 80q83 0 121 31q44 25 62 141q2 16 2 31q0 53 -29 101q-5 14 -5 26q0 37 59 37q13 0 28.5 -1.5t52.5 -41.5t39 -147q-4 -39 -12 -85q-24 -126 -140 -239q-110 -108 -180 -108z" />
    <glyph glyph-name="guillemotright" unicode="&#xbb;" horiz-adv-x="1532" 
d="M-18 38q-16 0 -27 7q-36 28 -36 67q0 21 21 67t105 130t190 177q109 96 206.5 193t149.5 187q-4 78 -89 149.5t-192 138.5q-79 50 -142 98q-91 68 -91 123q0 31 30 61q18 14 46 14q85 0 270 -134q191 -140 309 -258q84 -83 84 -160q0 -23 -19 -83t-138 -173
q-39 -40 -104 -109q-205 -222 -339 -344q-165 -151 -234 -151zM530 22q-17 0 -30 8q-19 16 -19 40q0 20 20.5 61t93.5 118.5t168 170.5q109 106 218 222.5t187 234.5q23 38 23 71q0 19 -15 51q-25 54 -205 141q-91 43 -162 93q-82 57 -82 132q0 64 51 64q99 0 323 -154
q146 -101 236 -177q65 -53 65 -133q0 -37 -12 -83q-58 -99 -182.5 -252t-270 -302.5t-266.5 -238.5q-90 -67 -141 -67z" />
    <glyph glyph-name="questiondown" unicode="&#xbf;" horiz-adv-x="2635" 
d="M1442 825q111 0 212 -165q68 -110 68 -264q0 -148 -105 -320q-155 -235 -397.5 -459t-494.5 -429q-187 -152 -340 -290q-317 -282 -317 -439q0 -12 7 -64t151 -117t454 -98q302 -46 530 -46q77 0 247.5 13t333.5 81t237 153q85 96 85 177q0 54 -35 69q-209 95 -209 136
q0 23 91 23q117 0 209.5 -58t114.5 -170q5 -23 5 -48q0 -243 -381 -438q-174 -80 -446 -94q-93 -4 -187 -4q-181 0 -411 20.5t-419 54.5q-134 22 -260.5 74t-207.5 137q-77 82 -77 195q0 5 2 66.5t125 216.5q127 153 299.5 310t361.5 316q207 173 393.5 344.5t312.5 336.5
q157 205 157 377q0 126 -95 242q-14 17 -33 34q-49 44 -49 71q0 16 13 33q23 23 55 23zM1461 1593h12q53 0 90 -31q33 -28 33 -82q0 -13 -2 -27q-19 -86 -88 -120q-41 -21 -83 -21q-29 0 -79.5 17t-74.5 105q19 75 74.5 115.5t117.5 43.5z" />
    <glyph glyph-name="multiply" unicode="&#xd7;" horiz-adv-x="1534" 
d="M178 -159q-9 0 -15 4q-20 14 -20 45q0 104 210 391q67 87 99 151q25 52 25 94q0 34 -26 80t-104 116q-214 188 -214 271q0 36 31 50q22 10 45 10q7 0 10 -2q210 -163 287 -243q73 -73 126 -94q5 -2 10 -2q28 0 76 50.5t152 193.5q130 257 268 257q63 0 63 -40
q0 -56 -122 -187q-192 -205 -234 -290q-18 -49 -18 -70q0 -39 34 -62q290 -235 368 -289q38 -26 59 -36q72 -36 72 -90q0 -57 -61 -57q-119 0 -280 130q-255 197 -314 201l-13 1q-47 0 -73 -33l-61 -85q-91 -124 -235 -326q-99 -139 -145 -139z" />
    <glyph glyph-name="divide" unicode="&#xf7;" horiz-adv-x="1499" 
d="M226 539q-17 0 -84.5 0.5t-93.5 18.5q-45 39 -45 84q0 12 3 25q13 54 344 54h65q128 -3 214 -3q133 0 191.5 8.5t217.5 17.5t159 10q188 -6 251 -106q10 -15 10 -28q0 -70 -276 -70l-462 3q-93 0 -242 -9q-145 -5 -252 -5zM613 -139q-36 0 -65 36q-38 50 -38 114
q0 19 9.5 74t77.5 100q28 16 60 16q9 0 17 -1q116 -22 184 -121q7 -11 12 -25q2 -7 6 -15q-22 -42 -29 -50q-68 -76 -209 -124q-13 -4 -25 -4zM889 1091q-36 0 -65 36q-38 50 -38 114q0 19 9.5 74t77.5 100q28 16 60 16q9 0 17 -1q116 -22 184 -121q7 -11 12 -25q2 -7 6 -15
q-22 -42 -29 -50q-68 -76 -209 -124q-13 -4 -25 -4z" />
    <glyph glyph-name="circumflex" unicode="&#x2c6;" horiz-adv-x="599" 
d="M122 1596q-18 0 -37 17q-18 20 -18 45q0 23 15 42q23 25 203 175q27 25 51 25q44 0 129 -92q21 -26 41 -53.5t31 -37t33 -37.5q9 -12 9 -25q0 -17 -17 -34q-24 -18 -42 -18q-10 0 -36 -5q-29 0 -58.5 46t-43.5 64q-20 24 -49 24q-27 0 -42.5 -10.5t-37.5 -33.5
q-30 -32 -94 -77q-19 -15 -37 -15z" />
    <glyph glyph-name="caron" unicode="&#x2c7;" horiz-adv-x="462" 
d="M175 1597q-31 0 -67.5 37t-63.5 111q-38 96 -38 119t21 39q8 7 20 7q25 0 60 -20q27 -32 39 -73q43 -89 56 -89q11 0 26 17q61 39 97 112q7 14 16 28q14 21 36 21q12 0 25 -6q38 -16 38 -55q-9 -33 -15 -44q-73 -104 -146.5 -154t-103.5 -50z" />
    <glyph glyph-name="uni02C9" unicode="&#x2c9;" horiz-adv-x="829" 
d="M538 1805l-385 5q-68 0 -94 18q-45 39 -56 61q0 12 3 25q12 49 231 49h42q217 -4 257 -4q47 5 83 5q125 0 171 -55q10 -15 10 -28q0 -70 -262 -76z" />
    <glyph glyph-name="breve" unicode="&#x2d8;" horiz-adv-x="631" 
d="M298 1508q-52 0 -136.5 19.5t-115.5 65.5t-31 88q9 86 60 86q23 0 47 -23q71 -102 168 -107l23 -1q80 0 130 32.5t57 88.5q4 28 25 28q20 0 41 -17q28 -24 28 -66q0 -28 -17 -60q-38 -86 -153 -117q-63 -17 -126 -17z" />
    <glyph glyph-name="dotaccent" unicode="&#x2d9;" horiz-adv-x="357" 
d="M122 1623q-20 0 -38 21q-22 30 -22 67q0 12 5 44t46 59q16 10 36 10q71 -5 117 -72q2 -3 11 -24q-35 -66 -140 -102q-8 -3 -15 -3z" />
    <glyph glyph-name="ring" unicode="&#x2da;" horiz-adv-x="428" 
d="M171 1717q23 0 50 32t40 94q4 21 4 43q0 44 -16 92q-6 19 -24 19q-3 0 -16.5 -1.5t-39 -48.5t-40.5 -156q6 -74 42 -74zM171 1608q-96 0 -145 83q-23 39 -23 96q0 23 3 47q26 144 77 226q76 120 166 120q79 0 91 -88q7 -47 23 -91q23 -72 23 -112q-6 -122 -49 -185
q-66 -96 -166 -96z" />
    <glyph glyph-name="ogonek" unicode="&#x2db;" horiz-adv-x="307" 
d="M228 -392q-42 0 -102 49q-42 34 -64 80q-31 66 -31 170q0 74 44 144q30 48 74 48q19 0 32 -10t13 -22q0 -6 -4 -13q-65 -89 -65 -143q0 -64 60 -120q21 -22 57.5 -30t39.5 -36q2 -14 2 -27t-2 -32t-18 -42q-11 -16 -36 -16z" />
    <glyph glyph-name="tilde" unicode="&#x2dc;" horiz-adv-x="690" 
d="M505 1135q-28 0 -123 42q-87 60 -142 60q-26 0 -55 -20t-69 -58q-14 -6 -26 -6q-38 0 -57 62q6 46 49 91q60 63 167 63q16 0 29 -2q85 -14 128 -55q44 -45 76 -45q24 0 54 19q42 15 74 15q22 0 40 -14q13 -9 13 -23q0 -38 -90 -106q-35 -23 -68 -23z" />
    <glyph glyph-name="hungarumlaut" unicode="&#x2dd;" 
d="M-97 1643q-20 0 -41 14q-26 15 -26 40q0 58 71 144q138 228 204 243q3 0 22 -2t36.5 -26.5t17.5 -53.5q-230 -359 -284 -359zM447 1643q-20 0 -41 14q-26 15 -26 40q0 58 71 144q138 228 204 243q3 0 22 -2t36.5 -26.5t17.5 -53.5q-230 -359 -284 -359z" />
    <glyph glyph-name="endash" unicode="&#x2013;" horiz-adv-x="2314" 
d="M504 -188q-187 6 -250 107q-10 15 -10 28q0 70 282 70q108 0 613 -6l153 -1q170 0 335 6q145 5 252 5q17 0 84 -0.5t94 -18.5q45 -40 45 -85q0 -12 -3 -24q-14 -54 -344 -54h-72q-187 3 -337 3q-171 0 -347 -5.5t-335.5 -14.5t-159.5 -10z" />
    <glyph glyph-name="emdash" unicode="&#x2014;" horiz-adv-x="2909" 
d="M840 -239q-195 0 -386 9.5t-239 45.5q-49 45 -49 77q0 95 396 95q201 0 428 -21l8 -1q30 10 781 23q546 9 718 9q123 0 168 -4q47 -8 78 -50q16 -22 16 -44q0 -21 -23 -52.5t-162 -38.5q-374 -17 -806 -29q-668 -19 -928 -19z" />
    <glyph glyph-name="quoteleft" unicode="&#x2018;" horiz-adv-x="1072" 
d="M329 2244q-34 0 -90 21.5t-98 122.5q-21 53 -21 127q0 69 71 274q70 201 192 201q59 0 59 -42q0 -52 -90 -167q-22 -55 -30 -116q-3 -14 -3 -25q0 -58 80 -77t103 -68t23 -81q0 -18 -14.5 -59.5t-109.5 -92.5q-35 -18 -72 -18z" />
    <glyph glyph-name="quoteright" unicode="&#x2019;" horiz-adv-x="1156" 
d="M765 2266q-59 0 -59 42q0 52 90 168q22 54 30 116q3 13 3 25q0 57 -80 76t-103 68.5t-23 80.5q0 19 14.5 60t109.5 93q35 17 72 17q34 0 90 -21t98 -123q21 -52 21 -127q0 -69 -70.5 -272t-192.5 -203z" />
    <glyph glyph-name="quotesinglbase" unicode="&#x201a;" horiz-adv-x="557" 
d="M234 -775q-59 0 -59 42q0 52 90 168q22 54 30 116q3 13 3 25q0 57 -80 76t-103 68.5t-23 80.5q0 19 14.5 60t109.5 93q35 17 72 17q34 0 90 -21t98 -123q21 -52 21 -127q0 -69 -70.5 -272t-192.5 -203z" />
    <glyph glyph-name="quotedblleft" unicode="&#x201c;" horiz-adv-x="1801" 
d="M329 3262q-34 0 -90 21.5t-98 122.5q-21 53 -21 127q0 69 71 274q70 201 192 201q59 0 59 -42q0 -52 -90 -167q-22 -55 -30 -116q-3 -14 -3 -25q0 -58 80 -77t103 -68t23 -81q0 -18 -14.5 -59.5t-109.5 -92.5q-35 -18 -72 -18zM942 3262q-34 0 -90 21.5t-98 122.5
q-21 53 -21 127q0 69 71 274q70 201 192 201q59 0 59 -42q0 -52 -90 -167q-22 -55 -30 -116q-3 -14 -3 -25q0 -58 80 -77t103 -68t23 -81q0 -18 -14.5 -59.5t-109.5 -92.5q-35 -18 -72 -18z" />
    <glyph glyph-name="quotedblright" unicode="&#x201d;" horiz-adv-x="1774" 
d="M1251 3266q-59 0 -59 42q0 52 90 168q22 54 30 116q3 13 3 25q0 57 -80 76t-103 68.5t-23 80.5q0 19 14.5 60t109.5 93q35 17 72 17q34 0 90 -21t98 -123q21 -52 21 -127q0 -69 -70.5 -272t-192.5 -203zM1913 3266q-59 0 -59 42q0 52 90 168q22 54 30 116q3 13 3 25
q0 57 -80 76t-103 68.5t-23 80.5q0 19 14.5 60t109.5 93q35 17 72 17q34 0 90 -21t98 -123q21 -52 21 -127q0 -69 -70.5 -272t-192.5 -203z" />
    <glyph glyph-name="quotedblbase" unicode="&#x201e;" horiz-adv-x="1774" 
d="M801 266q-59 0 -59 42q0 52 90 168q22 54 30 116q3 13 3 25q0 57 -80 76t-103 68.5t-23 80.5q0 19 14.5 60t109.5 93q35 17 72 17q34 0 90 -21t98 -123q21 -52 21 -127q0 -69 -70.5 -272t-192.5 -203zM1463 266q-59 0 -59 42q0 52 90 168q22 54 30 116q3 13 3 25
q0 57 -80 76t-103 68.5t-23 80.5q0 19 14.5 60t109.5 93q35 17 72 17q34 0 90 -21t98 -123q21 -52 21 -127q0 -69 -70.5 -272t-192.5 -203z" />
    <glyph glyph-name="dagger" unicode="&#x2020;" horiz-adv-x="1475" 
d="M278 -1394q-5 0 -10 2q-74 27 -74 213l1 38q26 527 78.5 899.5t132.5 790.5l65 358q-593 16 -593 140q0 23 14 41t30 29t23 11q232 -10 352 -33q70 -13 116 -13q25 0 59.5 7t60.5 86t61 264q31 165 93 442q82 344 167 482q77 125 131 125q6 0 37.5 -7.5t31.5 -122.5
t-88 -278q-14 -24 -58.5 -130t-95.5 -250q-114 -318 -114 -480q0 -19 2 -36q8 -89 82 -89q172 17 330 59q162 41 222 41q48 0 70 -22q22 -26 22 -48q0 -20 -30 -45q-51 -43 -329 -94q-105 -20 -203 -44q-222 -54 -241 -140q-115 -587 -182 -1090q-40 -299 -67 -716
q-24 -390 -96 -390z" />
    <glyph glyph-name="daggerdbl" unicode="&#x2021;" horiz-adv-x="1526" 
d="M375 -1394q-5 0 -10 2q-74 27 -74 213q6 220 38 514q5 45 5 81q0 147 -79 149q-278 0 -388 28q-124 31 -124 84q0 39 41 70q15 12 22 12q245 0 353 -14q58 -7 99 -7q38 0 77 10q23 6 40 44q52 358 128 757l39 215q10 37 10 65q0 75 -72 81q-267 12 -386 49t-119 88
q0 23 14 41t30 29t23 11q232 -10 352 -33q70 -13 116 -13q25 0 59.5 7t60.5 86q24 71 61 264q31 165 93 442q82 344 167 482q77 125 131 125q6 0 37.5 -7.5t31.5 -122.5t-88 -278q-14 -24 -58.5 -130t-95.5 -250q-114 -320 -114 -480q0 -19 2 -36q8 -89 82 -89
q172 17 330 59q162 41 222 41q48 0 70 -22q22 -26 22 -48q0 -20 -30 -45q-51 -43 -329 -94q-105 -20 -203 -44q-222 -54 -241 -140q-99 -500 -163 -949q13 -82 80 -82h7q170 26 326 77q170 52 231 52q39 0 59 -18q25 -26 25 -48q0 -20 -28 -45q-48 -46 -323 -112
q-104 -25 -200 -55q-179 -53 -221 -121q-24 -226 -42 -505q-24 -390 -96 -390z" />
    <glyph glyph-name="bullet" unicode="&#x2022;" 
d="M355 398h-8q-90 0 -158 86.5t-90 293.5q0 95 23.5 179.5t53.5 162.5q39 99 55 184q18 102 165 102q48 0 127.5 -19.5t172.5 -85t140 -165.5q27 -57 27 -124q0 -51 -16 -107q-40 -131 -120 -245t-178.5 -186t-193.5 -76z" />
    <glyph glyph-name="ellipsis" unicode="&#x2026;" horiz-adv-x="2048" 
d="M327 15q-36 0 -65 36q-38 50 -38 114q0 19 9.5 74t77.5 100q28 16 60 16q9 0 17 -1q116 -22 184 -121q7 -11 12 -25q2 -7 6 -15q-22 -42 -29 -50q-68 -76 -209 -124q-13 -4 -25 -4zM1010 15q-36 0 -65 36q-38 50 -38 114q0 19 9.5 74t77.5 100q28 16 60 16q9 0 17 -1
q116 -22 184 -121q7 -11 12 -25q2 -7 6 -15q-22 -42 -29 -50q-68 -76 -209 -124q-13 -4 -25 -4zM1693 15q-36 0 -65 36q-38 50 -38 114q0 19 9.5 74t77.5 100q28 16 60 16q9 0 17 -1q116 -22 184 -121q7 -11 12 -25q2 -7 6 -15q-22 -42 -29 -50q-68 -76 -209 -124
q-13 -4 -25 -4z" />
    <glyph glyph-name="guilsinglleft" unicode="&#x2039;" horiz-adv-x="848" 
d="M698 337q-83 0 -323 97q-96 38 -203 76q-62 21 -110 73q-64 68 -64 157q0 57 35 121q67 109 191 235q349 357 402 357q21 0 57.5 -19t39.5 -78q-25 -47 -89.5 -113.5t-145.5 -142.5q-96 -89 -178 -176q-124 -130 -124 -194q0 -36 40 -56q114 -48 247 -85q97 -28 177 -57
q143 -54 143 -116q0 -17 -10 -37q-24 -42 -85 -42z" />
    <glyph glyph-name="guilsinglright" unicode="&#x203a;" horiz-adv-x="899" 
d="M-18 38q-16 0 -27 7q-36 28 -36 67q0 21 21 67t105 130t190 177q109 96 206.5 193t149.5 187q-4 78 -89 149.5t-192 138.5q-79 50 -142 98q-91 68 -91 123q0 31 30 61q18 14 46 14q85 0 270 -134q191 -140 309 -258q84 -83 84 -160q0 -23 -19 -83t-138 -173
q-39 -40 -104 -109q-205 -222 -339 -344q-165 -151 -234 -151z" />
    <glyph glyph-name="fraction" unicode="&#x2044;" horiz-adv-x="954" 
d="M-949 -1516q-61 0 -100.5 55.5t-39.5 164.5l1 42q2 205 431 833q185 271 377 537q296 409 879 1379q321 563 403 700q111 186 305 483q33 43 65 43q75 0 81 -111q0 -80 -83 -168q-77 -76 -133.5 -165.5t-103.5 -183.5q-256 -487 -696 -1188.5t-650 -988.5
q-142 -197 -286 -406q-314 -457 -381 -644q-32 -89 -32 -149q0 -56 35 -56q24 0 42 12q18 8 46.5 20t49.5 12q17 0 17 -17q0 -1 -1 -13t-41 -67q-94 -124 -185 -124z" />
    <glyph glyph-name="fraction" unicode="&#x2215;" horiz-adv-x="954" 
d="M-949 -1516q-61 0 -100.5 55.5t-39.5 164.5l1 42q2 205 431 833q185 271 377 537q296 409 879 1379q321 563 403 700q111 186 305 483q33 43 65 43q75 0 81 -111q0 -80 -83 -168q-77 -76 -133.5 -165.5t-103.5 -183.5q-256 -487 -696 -1188.5t-650 -988.5
q-142 -197 -286 -406q-314 -457 -381 -644q-32 -89 -32 -149q0 -56 35 -56q24 0 42 12q18 8 46.5 20t49.5 12q17 0 17 -17q0 -1 -1 -13t-41 -67q-94 -124 -185 -124z" />
    <glyph glyph-name="franc" unicode="&#x20a3;" horiz-adv-x="3223" 
d="M516 -1090q-33 0 -61 54q-29 63 -29 162q0 124 36 291q55 259 192 690q-237 -12 -326 -12q-60 0 -79 6q-83 34 -83 95q0 16 11 37t41 25q39 2 122 9q208 16 371 27q29 94 52 177q44 157 44 236q0 31 -8 47q-44 0 -124 -31t-177 -74q-78 -34 -157 -66t-150 -53t-123 -21
q-40 0 -65 15q-57 37 -57 66q0 27 41 49q61 33 258 85q129 33 263 78q314 105 359 278l26 115q113 486 165 790q35 205 35 350q-9 2 -21 2q-48 0 -127 -25q-114 -37 -334 -132q-108 -47 -162 -66q-120 -41 -120 -109q0 -27 10 -50q7 -19 7 -33q0 -27 -50 -27q-23 0 -59 5
q-21 3 -45 3q-76 0 -170 -15.5t-166 -15.5q-113 0 -113 64l1 12q24 79 887 380q283 99 383 132q136 50 170 178q14 54 20 106q5 40 13 72q16 70 80 70l22 -2q39 -7 51 -35.5t12 -65.5q0 -26 -2 -51.5t-2 -48.5q0 -32 9.5 -53.5t40.5 -21.5q12 0 28 4q790 188 1207 188
q164 0 262 -26.5t141 -72.5t43 -105q0 -76 -56.5 -163.5t-145.5 -172.5t-190 -155t-193.5 -112.5t-154.5 -42.5q-41 2 -41 16q0 17 48.5 52.5t121.5 83t153 103.5t151 118.5t116.5 128t45.5 129.5l-1 14q-127 69 -301 69q-52 0 -103 -5q-473 -35 -741 -82t-394.5 -134.5
t-175.5 -244.5t-84 -414q-49 -330 -79 -438q-45 -162 -45 -235q0 -81 50 -81q14 0 32 6q95 32 770 195q654 157 790 176q40 5 68 5q79 0 79 -33q0 -22 -30 -50.5t-67 -50t-61 -27.5q-5 1 -14 1q-82 0 -421 -73.5t-683.5 -162t-488.5 -145.5q-99 -51 -212 -569q186 10 294 10
q145 0 188 -19q47 -28 59 -79q3 -11 3 -21q0 -37 -35 -62q-23 -17 -66 -17q-40 0 -99 15q-164 -1 -383 -13q-60 -314 -77 -507q-27 -322 -91.5 -510.5t-128.5 -188.5z" />
    <glyph glyph-name="Euro" unicode="&#x20ac;" horiz-adv-x="3349" 
d="M2054 -971q-44 0 -183.5 6.5t-366.5 98.5t-413.5 296t-299.5 549q-21 62 -84 73q-24 4 -50 4q-90 0 -274 -57q-167 -51 -239 -51q-63 0 -83 44q-5 14 -5 27q0 44 60 84.5t165 72t200.5 48.5t132.5 20q76 6 92 63q10 38 10 110q0 34 -2 75q-2 55 -3 127q-2 52 -67 65
q-38 8 -89 8q-84 0 -304 -31q-220 -34 -338 -34q-85 0 -140 21q-60 22 -60 84q0 16 4 34q20 70 237 74q50 1 103 1t111.5 -1t117.5 -1q78 0 183 3.5t201.5 32t123.5 98.5q83 233 245 451.5t374.5 402t444.5 310t455 174.5q107 23 205 23q106 0 245.5 -39.5t254.5 -213.5
q44 -75 44 -171q0 -52 -25.5 -164t-122.5 -280t-207 -292.5t-185 -161.5q-20 -10 -35 -10q-35 0 -35 58q0 36 43 103q39 60 98 142q73 102 149 219q164 253 164 399q0 14 -5.5 64t-102.5 91q-157 60 -318 60q-56 0 -193.5 -17.5t-346.5 -124t-389.5 -262t-314.5 -329.5
t-203 -338q-31 -72 -31 -115q0 -19 13 -48q17 -42 193 -42q46 0 101 3q66 3 143 3q90 0 242 -6t397 -59q158 -40 158 -127q0 -47 -39 -70q-11 -6 -21 -6q-16 0 -29 15q-97 109 -603 109h-119q-110 0 -273 -11t-193 -16q-34 -9 -49 -50q-20 -57 -20 -188q0 -114 49.5 -156
t141.5 -42q91 0 217 17q190 26 348 26q134 0 283 -26q57 -13 87 -48q26 -31 26 -60q0 -4 -2.5 -22t-51.5 -23q-77 -2 -201 -3q-147 -1 -313 -6t-304.5 -22t-200.5 -54q119 -337 291 -522q300 -324 751 -324q11 0 117.5 2t286 44.5t311.5 85.5q142 47 196 47l11 -1
q42 -12 42 -36q0 -18 -39 -59.5t-187 -106t-355 -107.5q-168 -34 -353 -34z" />
    <glyph glyph-name="trademark" unicode="&#x2122;" horiz-adv-x="3377" 
d="M1638 1211q-25 0 -25 31q0 44 30 147.5t74 240.5q87 272 131 440q66 250 66 391q0 185 -116 185q-62 0 -156 -53q-88 -76 -188 -145q-113 -108 -183 -218q-44 -69 -44 -98q0 -6 2 -10q108 -54 108 -70q0 -6 -18 -7q-61 4 -117 22q-70 21 -70 57q0 17 18 38q23 27 61 77
q82 110 159 196l-1 6q0 12 17 27q63 54 118 99.5t97 81t66 62t24 42.5q0 24 -58 24q-37 0 -126 -13q-163 -20 -275 -49q-157 -41 -186 -109q-23 -57 -55 -150q-82 -229 -139 -452q-73 -288 -73 -470q0 -130 39 -200q27 -42 59 -52t57 -10q14 -1 21.5 -2t7.5 -7q0 -7 -9 -20
q-22 -32 -59 -32q-31 0 -65.5 22t-64.5 61t-49 91.5t-19 113.5q4 69 42 308q41 255 56 306q56 168 94 275q61 166 61 203q0 30 -25 30q-24 0 -63.5 -13.5t-101 -37.5t-320.5 -119q-266 -97 -309 -122q-8 -5 -8 -12q0 -12 22 -33q16 -17 16 -23q0 -10 -28 -10l-54 2
q-82 0 -219 -28q-83 -18 -124 -18q-40 0 -56 17q-12 13 -12 23q0 12 16 20q24 11 85 19q17 2 31 5q100 20 543 190q462 176 615 218q17 6 49 51q38 56 59 56q19 0 32 -40q5 -11 28 -11q31 0 164 32q233 56 344 56q145 0 145 -65q0 -36 -43 -89q40 10 72 10q159 0 159 -258
q0 -109 -25 -242.5t-62 -265.5t-74.5 -243t-64.5 -180t-32 -74q4 -2 8 -2q21 0 46 27.5t55.5 75t67.5 107.5q50 84 111.5 177.5t135.5 179.5t163 148q44 30 69 30q43 0 43 -78q0 -48 -13 -116q-18 -87 -76 -295q-63 -218 -63 -271q0 -20 8 -25q6 0 106 161q155 243 222 344
q331 496 441 496q18 0 31 -14q21 -23 21 -73q0 -57 -38 -295q-19 -119 -35.5 -240.5t-16.5 -211.5q0 -143 54 -143q8 0 17 3q3 3 8 5q30 8 104 91q17 18 27 18q14 0 14 -24t-15.5 -59.5t-49 -67.5t-85.5 -49q-18 -5 -34 -5q-111 0 -111 255q0 217 73 555l14 77q2 14 2 30
q0 21 -9 42q-71 -6 -245 -259q-117 -170 -300 -475q-112 -188 -153 -241q-22 -27 -60 -27q-16 0 -31.5 9.5t-25 31.5t-9.5 60q0 49 20 128q15 55 43 139q21 69 43 141.5t37 136.5t15 102q0 41 -21 41q-31 0 -110 -93q-140 -169 -315 -457q-56 -89 -103 -160
q-103 -155 -151 -155z" />
    <glyph glyph-name="minus" unicode="&#x2212;" horiz-adv-x="1499" 
d="M226 539q-17 0 -84.5 0.5t-93.5 18.5q-45 39 -45 84q0 12 3 25q13 54 344 54h65q128 -3 214 -3q133 0 191.5 8.5t217.5 17.5t159 10q188 -6 251 -106q10 -15 10 -28q0 -70 -276 -70l-462 3q-93 0 -242 -9q-145 -5 -252 -5z" />
    <glyph glyph-name="approxequal" unicode="&#x2248;" horiz-adv-x="1476" 
d="M930 796q-41 0 -78 20q-75 41 -143 110q-129 131 -227 131q-28 0 -59 -8q-86 -22 -203 -150q-55 -58 -100 -58q-59 0 -84 68q-11 28 -11 60q0 123 121 214q84 64 246 87q33 3 63 3q157 0 249 -86q46 -44 78 -88q70 -99 136 -99q33 0 77 18q82 34 228 164q37 30 82 30
q77 0 96 -60q3 -8 3 -18q0 -126 -380 -316q-50 -22 -94 -22zM930 319q-41 0 -78 20q-75 41 -143 110q-129 131 -227 131q-28 0 -59 -8q-86 -22 -203 -150q-55 -58 -100 -58q-59 0 -84 68q-11 28 -11 60q0 123 121 214q84 64 246 87q33 3 63 3q157 0 249 -86q46 -44 78 -88
q70 -99 136 -99q33 0 77 18q82 34 228 164q37 30 82 30q77 0 96 -60q3 -8 3 -18q0 -126 -380 -316q-50 -22 -94 -22z" />
    <glyph glyph-name="lessequal" unicode="&#x2264;" horiz-adv-x="1420" 
d="M827 0q-35 0 -74 22q-85 51 -186 106q-150 81 -289 170t-213 186q-46 60 -46 124q0 38 17 78q36 134 365 289q226 106 594 237q114 41 190 70q27 10 51 10q28 0 62 -19q38 -22 43 -82q0 -44 -50 -96t-185 -91q-426 -116 -632 -198t-245 -145q-14 -22 -14 -43
q0 -40 60.5 -88t192.5 -116q95 -50 196.5 -112.5t189.5 -142.5q54 -54 54 -93q0 -5 -4.5 -28t-50.5 -35q-13 -3 -26 -3zM226 -438q-17 0 -84.5 0.5t-93.5 18.5q-45 39 -45 84q0 12 3 25q13 54 344 54h65q128 -3 214 -3q133 0 191.5 8.5t217.5 17.5t159 10q188 -6 251 -106
q10 -15 10 -28q0 -70 -276 -70l-462 3q-93 0 -242 -9q-145 -5 -252 -5z" />
    <glyph glyph-name="greaterequal" unicode="&#x2265;" horiz-adv-x="1249" 
d="M111 0q-18 0 -33 14q-25 31 -25 70q0 97 146 246q156 159 426 351q65 47 214 149l-81 41q-277 135 -452 244q-277 171 -281 285q3 99 53 99q58 0 198 -135q168 -158 565 -340q129 -58 201 -105q66 -42 66 -90q0 -5 -4.5 -34.5t-118.5 -107.5q-142 -99 -218 -150
q-82 -55 -128 -89q-66 -48 -259 -228q-104 -96 -125 -117q-101 -103 -144 -103zM226 -226q-17 0 -84.5 0.5t-93.5 18.5q-45 39 -45 84q0 12 3 25q13 54 344 54h65q128 -3 214 -3q133 0 191.5 8.5t217.5 17.5t159 10q188 -6 251 -106q10 -15 10 -28q0 -70 -276 -70l-462 3
q-93 0 -242 -9q-145 -5 -252 -5z" />
    <glyph glyph-name="Stylish_Classy" unicode="&#xe002;" horiz-adv-x="20332" 
d="M17488 -2105q109 0 322 386q59 112 143.5 353t142.5 476q40 166 40 261q0 40 -7 67q-97 -4 -277 -240q-348 -409 -424 -849q-31 -114 -31 -237q0 -192 78 -215q6 -2 13 -2zM2657 2663q29 51 116.5 326.5t89.5 308.5q0 17 -5 17q-24 0 -101 -216q-100 -284 -100 -436z
M352 -626q67 0 168.5 70t199.5 210.5t149 345.5q-8 155 -58 155q-34 0 -98.5 -72.5t-170.5 -216.5l-132 -173q-126 -169 -126 -249q0 -70 68 -70zM881 554q29 0 66 35q335 311 642 620q431 437 431 524l-1 7q-61 14 -141 14q-96 0 -251 -15q-151 -15 -288 -15
q-16 0 -101 1.5t-168 63.5q-49 42 -49 81q0 55 117 146q59 46 108 102q53 61 53 136q0 204 -89 308q-96 109 -253 109q-138 0 -261 -41q-129 -42 -205 -116.5t-139 -136.5q-158 -156 -228 -387q-40 -132 -40 -272q0 -102 46.5 -278.5t242.5 -386.5q35 -37 100 -109
q266 -299 383 -382q12 -8 25 -8zM3390 -2353q57 110 129 335q151 481 262 1028q81 392 81 544q0 67 -17 81q-90 -115 -185.5 -360.5t-171.5 -548.5t-107 -592q-14 -126 -14 -234q0 -140 23 -253zM6797 -260q31 35 44 55t13 49q0 24 -5 63l-22 -33q-41 -51 -41 -88
q0 -21 11 -46zM15380 893q4 0 12 2t30 26.5t56 82.5q9 14 9 23q0 10 -13 10t-35.5 -13t-45 -41.5t-28.5 -66.5q0 -23 15 -23zM13905 141q7 0 41 48q11 16 27 35q58 77 113 156l28 34q51 52 51 94q0 41 -18 41q-39 0 -124 -131q-64 -91 -100 -191q-20 -67 -20 -82q0 -4 2 -4z
M16316 807q51 17 148 105t198 207.5t164 231.5q52 90 52 150q0 15 -3 27q-11 47 -87 47q-138 0 -232 -115q-108 -132 -202 -381q-40 -105 -40 -220q0 -26 2 -52zM17477 -2297q-34 0 -90 29t-111 147q-61 131 -61 308q0 143 53 291q122 320 254 530t255.5 341.5t221.5 216
t154 154.5t56 156q1 47 11 93q10 40 10 79q0 22 -3 43q-9 4 -18 4q-35 0 -85 -61t-121 -169q-74 -116 -160.5 -223t-177.5 -145q-26 -11 -52 -11q-65 0 -131 66q-80 91 -96 263q-9 88 -9 180q0 162 16 368q-87 -69 -229 -178q-193 -147 -304 -249q-73 -70 -79 -118
q-2 -15 -2 -29q0 -34 11 -65q11 -36 11 -76q0 -6 -1 -32.5t-53 -91.5q-147 -174 -256.5 -247.5t-177.5 -75.5q-110 0 -110 94q0 23 8 48q53 147 104 228.5t101 135.5q73 79 73 120q0 30 -29 66q-118 113 -181 241t-104 257q-167 -121 -303 -250.5t-250 -249.5
q-85 -88 -162 -162q-151 -147 -207 -147q-61 0 -91 60q-8 16 -8 31q0 18 13 34q85 87 138 138q64 62 88 93q17 21 17 38q0 7 -6.5 20.5t-45.5 47.5q-97 90 -180 206q-33 50 -56 106l-105 -138q-47 -64 -107 -127.5t-134 -96.5q-43 -20 -94 -20q-35 0 -73 10
q-92 29 -135.5 94t-58.5 148t-20 163q-2 35 -5 67l-10 1q-52 0 -111 -74.5t-127 -188.5q-68 -110 -141 -208t-153 -136q-30 -13 -61 -13q-52 0 -109 41.5t-57 102.5q0 29 13 62q133 328 329 621q65 92 153 92q55 0 116 -43q49 -34 70 -34q15 0 31.5 15t99.5 113
q63 70 113 70q69 0 69 -106q0 -22 -3 -49q-29 -178 -29 -329v-61q0 -54 23 -118q21 -60 89 -60l45 2q58 3 340 360q-6 50 -6 103q0 244 128 445q93 138 201 189q80 38 149 38q23 0 78 -11t89 -78q13 -26 13 -56q0 -48 -34 -108q-77 -129 -148 -209.5t-127 -132.5
q-62 -57 -96 -105q-30 -43 -30 -100q0 -7 2 -43.5t56 -147.5q18 -37 48 -66q27 -29 48 -53q74 -84 112 -84q27 0 70 30.5t146 128.5q89 83 239 216q83 74 102 161q15 74 15 162q0 131 13 240q31 261 257 553q138 169 336 169q186 0 276 -136q34 -52 34 -115q0 -39 -13 -83
q-76 -208 -377 -526q-108 -115 -240 -246q-57 -61 -57 -159q0 -11 3.5 -73.5t107.5 -225t138 -191.5q21 -19 42 -19q12 0 33.5 11t80.5 65q64 59 355 291q207 164 298 213q11 17 29.5 28.5t37.5 11.5q17 0 45.5 -14.5t46.5 -93.5q8 -34 8 -82q0 -65 -14 -154
q-22 -196 -22 -369q0 -67 11.5 -133t58.5 -74q51 0 135 97q145 171 280 382t251 408q33 53 104 53q29 0 53 -14q33 -18 33 -65q0 -15 -17 -108q-24 -130 -43 -285q-9 -72 -9 -124q0 -61 12 -96q86 26 238 116q141 83 359 188.5t535 200t756 148.5q22 0 43 -9q26 -13 26 -33
q0 -39 -131 -63q-462 -85 -916.5 -269.5t-840.5 -455.5q-151 -106 -171 -294q-19 -194 -76 -435.5t-148 -486.5q-207 -552 -509 -793q-57 -42 -110 -42zM2016 -2164q-127 0 -204 221q-55 158 -55 440q0 250 58 633q58 344 179 964q256 1304 275 1597l-7 17q-9 14 -22 14
l-10 -1q-19 -3 -55 -46q-230 -275 -673 -731q-263 -269 -409 -440q-77 -86 -77 -170q0 -22 5 -44q0 -37 12 -78q23 -75 23 -156q0 -101 -54 -263.5t-182 -334t-289 -255.5q-95 -51 -186 -51q-65 0 -129 25q-147 78 -147 196v61q0 60 86.5 207t208.5 291q108 128 329 370
q34 42 34 83q0 32 -32.5 82t-150.5 151q-107 93 -242.5 238.5t-272.5 368.5q-121 210 -121 444q0 228 88.5 450t240.5 399t341 272q151 75 308 75q40 0 80 -5q213 -34 327 -169q153 -182 153 -454q0 -115 -72 -267l-1 -15q0 -59 103 -67q48 -4 107 -4q88 0 199 9
q143 9 299 10q109 2 189 91t111 214t56 292q56 344 123 571q85 299 112 389q106 345 189 360h16q110 0 139 -106q17 -56 17 -129q0 -194 -105 -524q-61 -188 -118 -332.5t-81 -191.5q-110 -225 -205 -458q-18 -43 -18 -60q-10 -26 -10 -46q0 -60 93 -65q34 -3 75 -3
q146 0 419 33q250 24 565 38q104 5 213 5q216 0 447 -19q422 -12 422 -129q0 -10 -12 -44t-90.5 -85t-165.5 -80q-65 -23 -104 -23q-35 0 -35 16q0 17 35 54q24 20 50 37q53 31 79 82q-29 46 -202 58q-102 6 -228 6q-371 0 -1197 -70q-229 -19 -325 -24q-88 -7 -133 -261
q-21 -112 -37 -236q-20 -152 -112 -649q-97 -523 -193.5 -1093t-132.5 -981q-6 -82 -6 -150q0 -98 16 -191q28 -152 119 -239q38 -37 38 -63q0 -46 -60 -59q-8 -2 -18 -2zM3374 -2683q-26 0 -80.5 37.5t-93.5 260.5q-17 96 -17 221q0 165 30 383q61 386 153 687t193.5 529.5
t187.5 397.5q78 151 125 265t49 200q1 142 8 282q3 61 5 123l-10 1q-49 0 -117.5 -78t-152.5 -197q-76 -107 -156 -204.5t-158 -146.5q-95 -53 -170 -53q-33 0 -95 21.5t-116 119.5q-77 139 -77 312q0 187 85 215q46 11 88 11q108 0 146 -55q8 -13 8 -26q0 -28 -31 -61
q-85 -89 -85 -220q0 -53 19 -93q22 -46 71 -46q18 0 68 14.5t183 180.5q118 151 215 282q163 227 266 336q61 64 103 64q30 0 65.5 -55t36.5 -387q0 -29 13 -29q14 0 37 24q37 39 55 69q75 117 324 489t504 736t344 458q30 26 80 26q23 0 50 -9.5t39 -51.5q3 -11 3 -25
q0 -38 -22 -98q-40 -100 -111 -311q-176 -524 -308 -1066q-157 -642 -157 -1022q0 -23 3 -139.5t78 -217.5q27 -31 56 -31q53 0 147 124q33 41 62 70q25 25 45 25q3 0 16 -2t27 -57l1 -14q0 -38 -34.5 -108.5t-105.5 -138.5q-80 -78 -178 -78q-83 0 -174 92
q-95 108 -117 306q-10 88 -10 186q0 311 105 786q86 394 253 955q65 213 65 223q0 8 -4 8q-10 0 -57 -44q-209 -205 -876 -1292l-60 -95q-118 -184 -133 -407q-12 -198 -64 -546t-134.5 -746t-186.5 -745.5t-219 -546.5q-49 -78 -102 -78zM5774 1081q-65 0 -114 45
q-38 34 -38 121q0 39 7 87q20 126 123 126q29 0 62 -9q149 -39 149 -152q-4 -70 -51 -144q-56 -74 -138 -74zM6643 -599h-10q-88 0 -105 99q-2 13 -2 27q0 105 107 295q105 177 105 231q0 23 -19 38t-77 25q-46 10 -107 31t-129 71q-73 57 -104 121q-119 -188 -249 -375
q-133 -191 -226 -255q-78 -47 -134 -47q-18 0 -58.5 12.5t-104 91t-65.5 182.5l-1 57q0 92 8 245t19.5 242.5t80.5 199.5q30 40 67 40q10 0 39 -9t43 -61q6 -21 6 -44q0 -33 -13 -69q-39 -94 -66 -228q-29 -145 -29 -235q0 -88 50 -177q33 -59 77 -59q26 0 78.5 35
t178.5 219q146 214 283 428q15 63 90 165q90 122 212 209t223 108q23 5 41 5q67 0 89 -60l1 -10q0 -32 -48.5 -78t-128.5 -106.5t-154 -127.5t-107 -136q-14 -29 -14 -57q0 -38 34 -89t188 -108q58 -24 91 -24q11 0 31.5 7t62.5 77q157 239 288 433q259 378 463 720.5
t429 858.5q87 193 165 264q54 50 91 50q17 0 29 -9q28 -20 28 -76q0 -28 -13.5 -101.5t-123.5 -243.5q-98 -152 -189 -415t-161.5 -569.5t-106.5 -585.5q-29 -215 -29 -374q0 -47 6 -159q7 -123 89 -131q71 0 206 203q174 265 280 384q115 130 173 130q68 0 68 -179
q0 -77 -18 -255q-14 -116 -14 -188q0 -33 3 -57q27 -121 87 -161q49 -32 107 -32q70 0 159 28q65 17 91 17q36 0 36 -34q0 -36 -60 -77.5t-168 -61.5q-36 -6 -72 -6q-73 0 -164.5 33t-159.5 160q-57 107 -57 297q0 39 2 81q-7 2 -15 2q-33 0 -72 -47.5t-90 -129.5
q-58 -99 -129.5 -185t-159.5 -101q-11 -2 -22 -2q-80 0 -176 100q-93 106 -111 261q-8 63 -8 131q0 187 82 566q72 338 72 506q-623 -960 -713 -1170q-27 -61 -27 -87q0 -16 8.5 -23.5t25 -12t31 -17.5t15.5 -53q0 -40 -24 -123q-75 -225 -191 -342t-214 -123zM10806 -1082
q-136 0 -304 84t-275 370q-92 246 -92 575q0 54 9 283.5t157.5 689.5t434.5 922q401 628 748 628q75 0 190 -59.5t184 -318.5q36 -136 36 -308q0 -154 -45.5 -437t-272.5 -743q-58 -113 -109.5 -140t-88.5 -27q-39 0 -77 51q-30 40 -30 60q0 18 83 90q72 63 144 199
q39 71 71 149q160 386 160 773q0 62 -10.5 190.5t-83.5 241.5q-61 96 -162 96q-18 0 -92.5 -11t-259.5 -212q-249 -277 -424 -619.5t-271 -701.5q-109 -409 -109 -767q0 -270 71 -491.5t241 -318.5q88 -51 202 -51q107 0 236 44q336 130 967 937q552 705 1073 1547
q231 372 366 643t154 368q23 126 101 433.5t78 606.5q0 98 -9 199q0 98 101 98q49 0 116.5 -39.5t103.5 -156.5q13 -42 13 -95q0 -93 -41 -220q-132 -376 -324 -1100q-240 -903 -360 -1648q-87 -525 -87 -896q0 -257 54 -461t208 -258q16 -6 16 -17q0 -34 -79 -59
q-27 -8 -57 -8q-29 0 -78 12t-110 81q-146 162 -146 629q0 235 74 731t145 842t90 479q0 64 -14 64q-18 0 -59 -90q-69 -149 -248 -429.5t-431 -657t-533 -739.5t-549 -628.5t-482 -348.5q-171 -60 -314 -60z" />
    <glyph glyph-name="y.ss01" unicode="&#xe275;" horiz-adv-x="2942" 
d="M57 -2109q109 0 320 387q59 112 143 353.5t141 476.5q40 167 40 262q0 40 -7 67q-96 -4 -275 -241q-346 -409 -421 -850q-31 -114 -31 -237q0 -193 77 -216q6 -2 13 -2zM46 -2301q-33 0 -89 29t-110 147q-61 132 -61 309q0 143 53 291q121 321 252 531.5t254 342t220 216
t153 154.5t56 157q1 47 11 93q9 40 9 79q0 22 -3 43q-8 4 -17 4q-35 0 -85 -61t-120 -169q-74 -117 -159.5 -224t-176.5 -145q-26 -11 -52 -11q-64 0 -130 66q-79 91 -95 263q-9 89 -9 181q0 201 24 470q5 33 8 61q7 45 42 66q18 12 37 12q17 0 45.5 -14.5t46.5 -93.5
q8 -35 8 -83q0 -65 -14 -154q-22 -196 -22 -369q0 -68 11.5 -134t57.5 -74q51 0 135 97q144 172 278 383t249 409q33 53 103 53q29 0 53 -14q33 -18 33 -65q0 -15 -17 -109q-24 -130 -43 -285q-9 -72 -9 -124q0 -61 12 -96q86 26 237 116q140 83 356.5 188.5t531.5 200.5
t751 149q22 0 42 -9q26 -13 26 -33q0 -39 -130 -64q-459 -85 -910.5 -269.5t-834.5 -456.5q-150 -106 -170 -294q-19 -194 -75.5 -436t-147.5 -488q-205 -552 -505 -794q-57 -42 -110 -42z" />
    <glyph glyph-name="uniF001" unicode="&#xf001;" horiz-adv-x="1728" 
d="M-103 -1666q22 59 67 221.5t94 373.5q101 440 101 687q0 36 -5.5 121.5t-74.5 105.5q-33 -203 -69 -405q-48 -272 -89.5 -545t-62.5 -548l14 -4q13 -3 25 -7zM1210 1082q-64 0 -113 45q-38 35 -38 122q0 39 7 87q20 126 123 126q28 0 61 -9q148 -39 148 -152
q-4 -70 -51 -144q-55 -75 -137 -75zM-154 -2047q-101 5 -134 131q-21 85 -21 204q0 60 10 198q18 246 142 858q105 523 105 643q0 11 -22 49q-24 43 -24 164q0 92 22 108t35 61.5t58 228t189 548.5q89 173 126 219q38 40 65 40q44 0 57 -76q2 -16 2 -33q0 -38 -12 -77
q-136 -395 -167 -494q-59 -184 -101 -374q-4 -24 -4 -44q0 -114 147 -114q29 0 92.5 11.5t127.5 46.5q156 90 403 299q20 67 68 143q30 40 66 40q10 0 39 -9t43 -61q6 -21 6 -44q0 -33 -13 -69q-39 -95 -66 -229q-29 -145 -29 -235q0 -88 50 -177q33 -59 77 -59
q25 0 77.5 35t177.5 219q158 234 306 468q27 24 49 24q27 0 48 -38l1 -4q0 -33 -100 -204q-122 -194 -254.5 -386t-224.5 -256q-77 -47 -133 -47q-18 0 -58 12.5t-103.5 91t-65.5 183.5l-1 57q0 137 13 332q-37 -31 -83 -67q-178 -135 -290 -188t-171.5 -68t-76.5 -40
q-8 -12 -8 -40q0 -26 7 -66q13 -94 13 -213q0 -88 -12.5 -258.5t-60 -432t-113 -491.5t-137 -373.5t-137.5 -146.5z" />
    <glyph glyph-name="uniF001" unicode="&#xfb01;" horiz-adv-x="1728" 
d="M-103 -1666q22 59 67 221.5t94 373.5q101 440 101 687q0 36 -5.5 121.5t-74.5 105.5q-33 -203 -69 -405q-48 -272 -89.5 -545t-62.5 -548l14 -4q13 -3 25 -7zM1210 1082q-64 0 -113 45q-38 35 -38 122q0 39 7 87q20 126 123 126q28 0 61 -9q148 -39 148 -152
q-4 -70 -51 -144q-55 -75 -137 -75zM-154 -2047q-101 5 -134 131q-21 85 -21 204q0 60 10 198q18 246 142 858q105 523 105 643q0 11 -22 49q-24 43 -24 164q0 92 22 108t35 61.5t58 228t189 548.5q89 173 126 219q38 40 65 40q44 0 57 -76q2 -16 2 -33q0 -38 -12 -77
q-136 -395 -167 -494q-59 -184 -101 -374q-4 -24 -4 -44q0 -114 147 -114q29 0 92.5 11.5t127.5 46.5q156 90 403 299q20 67 68 143q30 40 66 40q10 0 39 -9t43 -61q6 -21 6 -44q0 -33 -13 -69q-39 -95 -66 -229q-29 -145 -29 -235q0 -88 50 -177q33 -59 77 -59
q25 0 77.5 35t177.5 219q158 234 306 468q27 24 49 24q27 0 48 -38l1 -4q0 -33 -100 -204q-122 -194 -254.5 -386t-224.5 -256q-77 -47 -133 -47q-18 0 -58 12.5t-103.5 91t-65.5 183.5l-1 57q0 137 13 332q-37 -31 -83 -67q-178 -135 -290 -188t-171.5 -68t-76.5 -40
q-8 -12 -8 -40q0 -26 7 -66q13 -94 13 -213q0 -88 -12.5 -258.5t-60 -432t-113 -491.5t-137 -373.5t-137.5 -146.5z" />
    <glyph glyph-name="uniF002" unicode="&#xf002;" horiz-adv-x="1832" 
d="M-103 -1666q22 59 67 221.5t94 373.5q101 440 101 687q0 36 -5.5 121.5t-74.5 105.5q-33 -203 -69 -405q-48 -272 -89.5 -545t-62.5 -548l14 -4q13 -3 25 -7zM-154 -2047q-101 5 -134 131q-21 85 -21 204q0 60 10 198q18 246 142 858q105 523 105 643q0 11 -22 49
q-24 43 -24 164q0 92 22 108t35 61.5t58 228t189 548.5q89 173 126 219q38 40 65 40q44 0 57 -76q2 -16 2 -33q0 -38 -12 -77q-136 -395 -167 -494q-59 -184 -101 -374q-4 -24 -4 -44q0 -114 147 -114q29 0 92.5 11.5t127.5 46.5q160 92 413 308q19 353 102 780
q105 565 156 825q139 715 257 980q20 43 73 43q26 0 51 -15t41.5 -47t16.5 -83q0 -35 -10 -80q-33 -141 -64.5 -232.5t-63.5 -170.5q-45 -106 -99 -276t-123 -507q-31 -148 -68 -379t-65.5 -494.5t-28.5 -498.5q0 -143 14 -263q29 -246 97 -246q75 0 223 172
q116 135 231 308q168 250 230 250q28 0 28 -53q0 -141 -110 -296q-66 -92 -148 -193q-39 -48 -76 -96q-46 -60 -112 -122q-159 -148 -291 -148q-81 0 -138 63q-128 148 -128 585q-48 -42 -115 -95q-178 -135 -290 -188t-171.5 -68t-76.5 -40q-8 -12 -8 -40q0 -26 7 -66
q13 -94 13 -213q0 -88 -12.5 -258.5t-60 -432t-113 -491.5t-137 -373.5t-137.5 -146.5z" />
    <glyph glyph-name="uniF002" unicode="&#xfb02;" horiz-adv-x="1832" 
d="M-103 -1666q22 59 67 221.5t94 373.5q101 440 101 687q0 36 -5.5 121.5t-74.5 105.5q-33 -203 -69 -405q-48 -272 -89.5 -545t-62.5 -548l14 -4q13 -3 25 -7zM-154 -2047q-101 5 -134 131q-21 85 -21 204q0 60 10 198q18 246 142 858q105 523 105 643q0 11 -22 49
q-24 43 -24 164q0 92 22 108t35 61.5t58 228t189 548.5q89 173 126 219q38 40 65 40q44 0 57 -76q2 -16 2 -33q0 -38 -12 -77q-136 -395 -167 -494q-59 -184 -101 -374q-4 -24 -4 -44q0 -114 147 -114q29 0 92.5 11.5t127.5 46.5q160 92 413 308q19 353 102 780
q105 565 156 825q139 715 257 980q20 43 73 43q26 0 51 -15t41.5 -47t16.5 -83q0 -35 -10 -80q-33 -141 -64.5 -232.5t-63.5 -170.5q-45 -106 -99 -276t-123 -507q-31 -148 -68 -379t-65.5 -494.5t-28.5 -498.5q0 -143 14 -263q29 -246 97 -246q75 0 223 172
q116 135 231 308q168 250 230 250q28 0 28 -53q0 -141 -110 -296q-66 -92 -148 -193q-39 -48 -76 -96q-46 -60 -112 -122q-159 -148 -291 -148q-81 0 -138 63q-128 148 -128 585q-48 -42 -115 -95q-178 -135 -290 -188t-171.5 -68t-76.5 -40q-8 -12 -8 -40q0 -26 7 -66
q13 -94 13 -213q0 -88 -12.5 -258.5t-60 -432t-113 -491.5t-137 -373.5t-137.5 -146.5z" />
  </font>
</defs>
</svg>
